<svg xmlns="http://www.w3.org/2000/svg" viewBox="0 0 375 500"><defs><style>.cls-1{isolation:isolate;}.cls-2{fill:#e9c46a;}.cls-3{mix-blend-mode:hard-light;}.cls-4{fill:#ececec;}.cls-5{fill:#ef6262;}</style></defs><title>60</title><g class="cls-1"><g id="BACKGROUND"><rect class="cls-2" width="375" height="500"/></g><g id="TEXT"><g class="cls-3"><path class="cls-4" d="M183.38,359.7c-4.62-.2-9.25-.42-13.88-.54-.62,0-1.25.55-2,.9-.69-1.4-2.22-1.12-3.6-1.26-11-1.11-22.07-2-33.06-3.37-9.65-1.18-19.25-2.78-28.85-4.29-3.78-.59-7.52-1.48-11.28-2.14-1.57-.27-2-1.58-2.63-2.63-.5-.79-.78-1.71-1.22-2.54-4.57-8.55-6.87-17.49-4.84-27.2.51-2.43,1.08-4.85,1.68-7.26.46-1.86-.13-2.84-1.92-3.47-4.12-1.43-8.15-3.11-12.31-4.4a64.14,64.14,0,0,0-21.85-2.95c-1.2.06-2.39.35-3.7.55,0-1.22.94-1.75,1.9-2.16a2,2,0,0,0,1.25-1.39,6.54,6.54,0,0,1,2.41-2.86,23.3,23.3,0,0,1,10-3.29c4.51-.62,9.05-1,13.63-1.51-.48-1.88-1.06-4.11-1.62-6.35a2.75,2.75,0,0,1-.16-1.22,4.83,4.83,0,0,1,.63-1.21,8.94,8.94,0,0,1,.58,1.1c1.12,3,2.28,6,3.28,9a17.84,17.84,0,0,1,.38,3.61c-.61-.57-1.18-.89-1.41-1.37a1.84,1.84,0,0,0-2.11-1.12,82.75,82.75,0,0,0-20.59,4.1,30.11,30.11,0,0,0-3,1.44l16.1,1.39-2.45-3.09.3-.34a9.75,9.75,0,0,1,2.1,1.68,9.69,9.69,0,0,0,6.41,3.94,7.11,7.11,0,0,0,1.33.34c-1.35-2.4-3.82-3.92-5.18-6.35,2.56,2,5.27,3.79,7.09,6.65.6.93,2,1.34,3.06,2l.35-.41-6.66-8.09.22-.26c.24.1.56.14.71.31,2.5,3,4.9,6,7.49,8.91a15.28,15.28,0,0,0,3.27,2.18l.35-.33-7.29-9.44.16-.2a2.84,2.84,0,0,1,.77.47c2,2.29,4.11,4.55,6,6.95a8.15,8.15,0,0,1,1.1,2.91c.24.89,1.82,1.86,3.39,1.69-2.59-4-5.1-8-7.6-11.88l.27-.27A23.26,23.26,0,0,1,83,297.39c1.88,2.79,3.6,5.68,5.44,8.5.25.4.78.62,1.18.92l.27-.36-5.81-9.29.21-.27a5.74,5.74,0,0,1,1.17.94c1.76,2.43,3.61,4.81,5.15,7.38a2.07,2.07,0,0,0,2.86,1.09c-1.72-2.74-3.41-5.41-5.1-8.07l.47-.31c2.16,2.53,4.71,4.78,5.84,8.38l6.82-.34a18.77,18.77,0,0,1-.09-2c0-.64.55-1.56.29-1.86a19.38,19.38,0,0,0-2.81-2.25l-.36.39A16.8,16.8,0,0,1,100,302a3.57,3.57,0,0,1,.63,1.84.84.84,0,0,1-1.46.62c-5.78-5.72-13-9-20.25-12.31a13.58,13.58,0,0,1-1.66-.84,6.82,6.82,0,0,1-.93-.86,5.68,5.68,0,0,1,1.32-.48,3.28,3.28,0,0,1,1.21.23c1.14.34,2.27.72,3.42,1,2.63.78,5.27,1.54,7.9,2.31l.41-.33-2.25-1.07.53-.62c2.08.21,3.33,1.95,4.76,2.75,1.92-1,3.59.79,5.08.07-.58-1.85-1.23-3.89-1.88-5.94-.13-2-.26-4.08-.39-6.19H92.56c.17,1.88,1,3.25,3,4.94a9.22,9.22,0,0,1,1,1.24l-3.17-1.39c.37,1.19.77,2.35,1.09,3.54a3.67,3.67,0,0,1,0,1.09c-.36-.19-.94-.3-1-.58-.6-1.76-1.16-3.53-1.6-5.33-1.14-4.72-.94-3.67-5.08-3.87L91,287.27c-3,.48-4.35-1.63-5.88-3.48-.31-.38-.92-.52-1.62-.88l0-1.14-8.54-2.07a4,4,0,0,1-1-.33,2.69,2.69,0,0,1-.59-.62c.26-.19.53-.57.79-.56,1.29.05,2.58.24,3.87.32q8.64.57,17.27,1.11a1.13,1.13,0,0,0,.37-.08c-1-1.32-2.09-2.61-3-4a3.4,3.4,0,0,1-.4-1.88,14.87,14.87,0,0,0-1.22-7.46,6.92,6.92,0,0,0-2.28-2.86c-2.58-1.48-3.28-3.78-3.29-6.43,0-5.06,1.91-9.51,4.53-13.72a78.79,78.79,0,0,1,12.83-15.44,36.12,36.12,0,0,0,3.4-4.39c-1.69-1.48-4.36-1-5.31-3.15-.82-1.88-1.39-3.88-2.13-6a11,11,0,0,0-6.2,5.52A41.7,41.7,0,0,0,90,226.64c-1.59,6.06-4,11.6-9,15.71A27.57,27.57,0,0,1,64.69,249c-3.47.2-4.94-.83-6-4.1H55.45c5.19-7.47,6.23-15.8,8-24l-2.07-.57,0-.47c1.79-.24,3.58-.55,5.38-.7,5.49-.45,11-.83,16.47-1.26a7.26,7.26,0,0,0,1.52-.34c1.82-.57,2.37-1.33,2.21-3.22a18.7,18.7,0,0,0-.49-3.07c-1.1-4.38-.64-8.19,3.71-10.64-2.31-3.16-2.1-6.63-1.65-10.13l.52-.11c.23,1.25.44,2.49.7,3.73.36,1.72.75,3.42,1.13,5.13.18.84.67,1,1.49.79,2.49-.49,5-.77,7.51-1.34,2.26-.53,4.47-1.31,6.68-2,3.74-1.21,7.47-2.47,11.37-3.77a36.12,36.12,0,0,1-4.5-11.71l.6-.25,5,11.66,6.53-1.85a44.2,44.2,0,0,1-1.58-5.34,21.24,21.24,0,0,1,0-5.58c2,3.18,1.44,7.16,3.53,10.49,16.38-4.63,33.36-5.73,50.53-6.13v-9.28h.64a23.7,23.7,0,0,1,.05,9c5.19,0,10.34,0,15.48,0,.56,0,1.11-.47,1.69-.73,1.1,1.38,4.8.87,5.53-.86a1.89,1.89,0,0,0-.14-1,22.15,22.15,0,0,1-.86-3.55,8.53,8.53,0,0,1,2.44,6.12l32.88,1c.49-1.47,0-2.34-1.46-3.27-6.52-4.25-12.94-8.67-19.37-13.05a6.84,6.84,0,0,1-1.77-1.86c4.18,1.65,7.69,4.37,11.35,6.83L235.72,181c.19-1.08.37-2,.54-3l.38-.07a16.43,16.43,0,0,1,.39,2.84,2.13,2.13,0,0,0,1.06,2c.94.64,1.72,1.63,2.74,2a22,22,0,0,0,4.25.75c.09-1.48.22-2.66.21-3.84,0-.31-.38-.69-.68-.9q-10.89-7.28-21.8-14.5c-.29-.19-.71-.19-1-.4a18.52,18.52,0,0,1-1.46-1.35l.38-.55a12.24,12.24,0,0,1,2.18.87q8.3,5.25,16.56,10.55c2.16,1.38,4.44,2.59,6.45,4.16,2.48,1.95,4.72,4.2,7.08,6.3a1.21,1.21,0,0,0,.65.32c1.08.12,2.15.2,3.4.31,0-1.68,0-3.28,0-4.88a1.67,1.67,0,0,0-.73-1.06Q243.68,172,231,163.51c-.74-.5-1.44-1.76-2.73-.79a3.21,3.21,0,0,1-1-1c-.15-.24-.07-.89.09-1a1.65,1.65,0,0,1,1.26-.11,71.11,71.11,0,0,1,7.25,3.91c6.54,4.33,13,8.83,19.46,13.26.47.32,1,.62,1.71,1.11v-3.77l.61-.12a15.2,15.2,0,0,1,.7,2.58,4.42,4.42,0,0,0,2.46,3.91,63.67,63.67,0,0,1,5.4,3.42,8,8,0,0,1,1,.94l-.18.39-3.07-.33c-.13-.35-.16-.86-.4-1-1.53-.94-3.11-1.8-4.82-2.78l-.54,4.51c2.85.45,5.63.78,8.36,1.35,4.73,1,9.43,2.1,14.14,3.16.35.08.72.11,1.07.17,2.4.67,4.79,1.36,7.2,2a1.17,1.17,0,0,0,1-.31c1.87-2.41,3.69-4.85,5.6-7.38l-8.61-6.44a30,30,0,0,1-.54,4,1.77,1.77,0,0,0,.74,2.19c1.54,1.24,2.95,2.64,4.41,4l-.4.51c-1.83-1.34-3.65-2.68-5.49-4-1.29,3.75-1.29,3.75-.68,5.14l-2.89.32.73-1.17-9.18-6.05c-.7,1.26.11,3-1.47,4.05a6.09,6.09,0,0,1-.08-1.4c.53-2.76-.7-4.3-3.05-5.8C261.9,176.39,255,171.5,248,166.73a13,13,0,0,1-1.35-1.23L247,165a10.3,10.3,0,0,1,2,.76q9,5.81,18,11.69c1.69,1.11,3.34,2.29,5.18,3.55.18-1.59.4-3,.44-4.41,0-.39-.46-.9-.83-1.17q-6.1-4.45-12.27-8.84c-.46-.33-1.17-.33-1.61-.68a6.79,6.79,0,0,1-1.08-1.48c.49,0,1.12-.19,1.46,0,5.35,3.58,10.72,7.14,16,10.87,3.59,2.55,7,5.37,10.72,8.25.34-1.68.69-3.17.91-4.68,0-.26-.38-.68-.68-.89q-11-7.82-22-15.58c-1-.69-2.21-1-3.17-1.75-.61-.45-1.85-.9-1.14-2,.18-.27,1.55,0,2.18.35a73.73,73.73,0,0,1,6.58,4.17c8.88,6.52,17.7,13.12,26.54,19.7.83.62,1.57,1.35,2.42,2.08l2.42-2c-4.15-3.4-8.14-6.82-12.29-10-7-5.37-14-10.59-21-15.91a4.85,4.85,0,0,1-.9-1.38c.56.07,1.26-.06,1.66.22,5.36,3.75,10.68,7.56,16,11.37.8.58,1.51,1.27,2.29,1.88,1.21.94,2.65,1.45,3.61,2.88s2.54,2.27,3.83,3.41,2.43,2.28,3.69,3.36,2.66,2.18,4.2,3.43l4.07-2.3a27.42,27.42,0,0,0-1.12-3.93c-6.66-14.83-17.13-25.86-32.26-32.26-10-4.22-20.51-6.5-31.2-7.84a408,408,0,0,0-51.69-3.11A234.24,234.24,0,0,0,137.21,139c-2.89.65-5.87,1-8.67,1.9q-7,2.3-13.83,5.17a84.94,84.94,0,0,0-19.63,11.1c-8,6.28-12.37,14.53-13.78,24.49a40.16,40.16,0,0,0-.06,14c.5,2.43,1.23,4.73,3.13,6.47a1.49,1.49,0,0,1,.4,1.15,11.12,11.12,0,0,1-1.48-.81c-2.94-2.27-4-5.57-4.45-9a47.47,47.47,0,0,1,3.24-24.76c2.61-6.32,7.32-10.91,12.67-14.93,6.59-5,14.19-8,21.72-11.13,5-2.07,10-4.24,15.08-5.95A86,86,0,0,1,143.37,134c15.32-2.81,30.75-4.71,46.35-4.44,7.64.13,15.28.63,22.91,1.15s15.14,1.07,22.67,2c13.09,1.54,26,3.91,38.15,9.37,14.1,6.34,23.89,16.84,30.13,30.83,1.74,3.89,1.9,4.65,1.77,6.29,2.8-.42,5.66-1.3,8.48-1.17,4.28.2,8.53,1.09,12.79,1.7,1.95.29,3.91.58,5.44,2-.05,1.1-.68,1-1.5.82-2-.42-4-.74-6-1.1-3.14-.39-6.28-.94-9.43-1.14A18,18,0,0,0,306,182a28.08,28.08,0,0,0-7.6,5.26,80.43,80.43,0,0,0-6,7A44,44,0,0,0,298.6,196a6.72,6.72,0,0,1,4.11,2.42c2,2.06,4,4.14,6.05,6.21l.37-.16a9.29,9.29,0,0,0-1-2.16c-1.11-1.31-2.37-2.48-3.56-3.72s-2.32-2.39-3.44-3.62c-.16-.18-.06-.6-.09-.91a2.35,2.35,0,0,1,.82.14,6,6,0,0,1,.94.81l5.84,5.55.39-.21a8.34,8.34,0,0,0-1-2.17c-1.9-2.14-3.92-4.17-5.86-6.27a7,7,0,0,1-.8-1.35l.46-.32,6.95,7.11.63-.36a9.61,9.61,0,0,0-.88-2.32c-1-1.35-2.13-2.55-3.16-3.86a5.74,5.74,0,0,1-.6-1.33l.57-.41,4.65,5c.44-.78.81-1.46,1.18-2.13l.49-.61-4.26-3.43c2.18.12,3.16,1.91,4.68,3.07l1.69-1.55-4.61-4,.26-.35a6.54,6.54,0,0,1,1.19.67c.82.72,1.59,1.5,2.36,2.27,1.46,1.45,1.45,1.46,3,.08-2.37-2.7-2.37-2.7-2.22-3.4,2,.2,2.31,4,5.32,2.42-1-1.26-2-2.45-3-3.63l.53-.53a24.75,24.75,0,0,1,2.85,2.75,2.06,2.06,0,0,0,3,.64l-2.48-3.08c2.42,0,2.71,3.22,5.52,3-1.29-1.36-2.38-2.53-3.47-3.69,1.9,0,2.84,1.3,3.72,2.48a2.88,2.88,0,0,0,3.37,1.2c-.51-.58-.92-1-1.31-1.48-.76-.9-1.51-1.81-2.26-2.71a6.69,6.69,0,0,1,1.76.71c1.28,1,2.47,2.12,3.69,3.18a13.89,13.89,0,0,1,.8-2.16c.2-.37.79-.54,1.2-.8a9.24,9.24,0,0,1,0,2.68,48.14,48.14,0,0,1-2,5.23c-.14.34-.65.51-1,.76a10.77,10.77,0,0,1-.7-1.23,1.55,1.55,0,0,1,0-.77c.19-1-.26-1.47-1.27-1.41a28.68,28.68,0,0,0-11.43,2.55c-.43.22-.67.82-1.09,1.35-1.34-.07-1.92.57-1.61,2.2-1.64-.29-1.9,1.06-2.07,2.05a39.21,39.21,0,0,0-.45,5.63c-.11,3.53,1,7.22-1.33,10.41a11.67,11.67,0,0,1-2.6,2.07c-.53,3.06-.74,6.32-1.73,9.33-.92,2.83-2.62,5.42-4.08,8.06a1.85,1.85,0,0,0-.08,2.24,37.75,37.75,0,0,1,3.08,4.43,14.68,14.68,0,0,1,.78,3.77c-1.69-.33-3.06-.79-4.24.21a14.44,14.44,0,0,0-1.54-2c-1.72-1.63-3.52-3.16-5.36-4.79,8-8.6,11.24-18.48,8.09-30.34l2.21.37c2.08,2,1.85,4.88,2.6,7.6a12.36,12.36,0,0,0,.93-1.15c1.2-1.88,1.15-2.22-.41-3.83l-2.81-2.89-2.9-3.07a28.14,28.14,0,0,0,.08,3.74,26.53,26.53,0,0,1-4.12,14.5,2.18,2.18,0,0,0,0,2.66,26.24,26.24,0,0,1,1.32,2.59,1.82,1.82,0,0,1-1.19-.63c-1.32-1.47-2.11-1.49-3.55-.15-.91.85-1.9,1.62-2.77,2.51a2,2,0,0,0-.58,1.37c.1,1.28.36,2.56.56,3.84l-.44.14c-.47-1.28-.94-2.56-1.4-3.83l-6.42,3.59c.26,1,.5,1.94.74,2.89l-.51.22-1.29-2.4L268,236.1c.09.87.2,1.89.3,2.9l-.48.4c-.44-3-1.74-4.64-4.84-3.62l.23,1.68-.33.23c-.38-.47-.74-.95-1.13-1.41s-.6-.94-1-1c-1.91-.44-3.85-.75-5.75-1.11-.17.65-.33,1.24-.48,1.83l-.4,0c-.17-.5-.31-1-.51-1.51s-.29-.86-.57-1c-2.19-.9-4.42-1.72-6.75-2.61l.36,1.21-.36.23c-.56-.62-1.13-1.24-1.68-1.86-.29-.33-.49-.81-.85-1A36.48,36.48,0,0,1,232,219.18a1.44,1.44,0,0,0-1.09-.58c-1.16.21-2.28.59-3.6,1,1.77,2.51,3.3,5.07,5.22,7.3a36.91,36.91,0,0,0,6.12,5.8,42,42,0,0,0,12.19,6.15c5.6,1.78,11.15,3.56,17,4.17a37.74,37.74,0,0,0,11.13,0,30.19,30.19,0,0,0,15-7.07c1.76,1.88,3.45,3.71,5.17,5.52.49.52,1,1,1.55,1.48l-1.23,1.55v2l-1.47-.44-.72.91-6.16-6.36-.51.5,6,6.53-2.53,3.59c.6.28,1.08.49,1.55.72,1.58.81,3.22,1.54,4.72,2.48s1.57,2.37,1.8,3.83a6.93,6.93,0,0,1-.91,6.47c-2.32-3.85-10.51-11-13.14-11l4.34,3.46-.21.18-6.86-3.95-.3.47L301,264.93l-1.44,2.6a16.17,16.17,0,0,1-4.05,3.37c-1.44.89-2.3,2.71-3.39,4.1.13.17.19.29.25.3q8,.34,16,.66c.41,0,.83,0,1.24,0h1.23a4.24,4.24,0,0,1-.14,1.62,14.57,14.57,0,0,1-2.26,3.24q-5.41,5.29-11,10.37c-1,.87-2.26,1.37-3.4,2.28,6.91,1.74,14,2.31,21,3.16l.24.57c-.84,1-1.62,2.11-2.55,3-1.41,1.39-2.92,2.68-4.43,4-.23.21-.7.14-1.06.2-.53-1.13.14-1.88.86-2.59,1.27-1.26,2.56-2.49,4-3.87l-17-2.35,2,4.85-.92.71c-.18-.48-.36-.95-.56-1.42-.47-1.09-.93-2.19-1.45-3.25-.21-.42-.52-1-.89-1.09a25.35,25.35,0,0,0-3.21-.47c.48.95.85,1.62,1.18,2.32s.57,1.37.85,2l-.71.35c-.67-1.16-1.4-2.29-2-3.49-.83-1.68-1-1.8-2.87-1.58l2.77,5.18-.47.36a4.78,4.78,0,0,1-1-.89,32.13,32.13,0,0,1-2.11-3.8A2.33,2.33,0,0,0,283,294l1.91,4-.56.29c-.69-1.16-1.36-2.33-2.06-3.49-.26-.43-.51-1.13-.87-1.19-2.05-.39-4.13-.62-6.49-.94,2.8,2.24,5.26,4.28,7.8,6.22a7.07,7.07,0,0,0,2.71,1.36c4.27.83,8.57,1.52,12.86,2.28,2.35.41,4.71.79,7,1.29,1,.23,1.84.82,1.39,2.13a24.28,24.28,0,0,1,1.06,4.44c.22,3.86.34,7.74.25,11.6a39,39,0,0,1-3.1,14.12,22.38,22.38,0,0,1-2.7,4.76,32.46,32.46,0,0,1-10.3,8.77,17.21,17.21,0,0,1-2.25,1c-2.46.93-4.95,1.81-7.39,2.78-.46.18-.78.72-1.16,1.09l-1,1-.88-1.45-5.54.74c-2.72.36-5.44.73-8.16,1.06q-5.46.68-10.93,1.29c-1.43.16-2.86.25-4.29.34L241,358c-3.43.21-6.86.44-10.3.64-4,.23-8,.52-12,.65-5.74.19-11.49.26-17.23.38Zm51.51-172.37-6.26-.42-.06.29,5.79,3.07.12-.3L232.67,188l2.25-.11c1.57-1.1,2,.94,3.26,1.24l-.7-1.84Zm28.76,16.76c-1.43-1.61-3.7-2.27-4.82-4.28l.06.74-12.18,9.29.12.51c2.47-.88,4.87-2.12,7.59-1.54l0-.47-2.22-.51c.25-1.2,1-1.69,2.11-1.27,1.31.48,2.56,1.1,3.83,1.68.41.18.8.41,1.21.62l.12-.24L256,203.49l.64-.48c1,1.2,2.07,2.39,3.1,3.58l.19-.12-2.31-4,.47-.25c.47.59,1,1.16,1.41,1.78,2.17,3.1,4.31,6.22,6.5,9.29a15.28,15.28,0,0,0,1.73,1.78l.32-.28c-2.61-3.79-5.41-7.47-7-11.85a4.26,4.26,0,0,1,1.21,1.3c2.79,4.12,5.56,8.24,8.36,12.34a4.26,4.26,0,0,0,.92.74c-2.12-3.69-4.41-7.13-6.66-10.6a8,8,0,0,1-.62-1.66,11.89,11.89,0,0,1,1.26,1.3c2.64,3.7,5.26,7.42,8,11.25.45-.5.77-.88,1.28-1.47a5.64,5.64,0,0,1-2.87-3.67,15.81,15.81,0,0,0-1.57-2.48,5.39,5.39,0,0,1-.3-1.63Zm-29.37,111.2,2.37,1.79.3-.22-1.39-2.5a2.82,2.82,0,0,0-.53-.9c-2.22-1.67-4.47-3.3-6.71-4.95l-1-.69.36-.62L233,310a37.33,37.33,0,0,0-4.66-5.78,11.14,11.14,0,0,0-9-3.15,40.93,40.93,0,0,0-4.93.71,10,10,0,0,0-2.16,1l.14.36-1.7-.78v2.35l-1.2-1.89-2.24.69c1.12,1.95,1.12,2,.47,2.71-1.91-3.15-1.6-2.6-3.33-1.93l1.24,2.48-.57.37a19.06,19.06,0,0,0-1.37-1.47c-.44-.38-1-.91-1.45-.9a40.14,40.14,0,0,0-4.28.42l1.84,3c-.61-.16-1-.15-1.23-.34a31.63,31.63,0,0,1-3.41-2.9c-1.32-1.39-2.46-3-3.71-4.42a3.36,3.36,0,0,0-4-1.2c-1.46.54-2.94,1-4.4,1.53a51.5,51.5,0,0,1-5.26,1.87c-4.56,1.09-9.15,2-13.8,3l.48,1.14c-1.14.3-2.44-1.42-3.4.78.49-2.89-1.8-3-3.18-3.84a39.46,39.46,0,0,0-4.45-2.25c-6.74-3.08-13.93-4.76-21.09-6.52-2.32-.57-4.74-.78-7.19-1.17-.1,1.6-.17,2.78-.24,4,2,.2,4.05.25,6,.63s4.1.13,6,2.08a23.73,23.73,0,0,1-2.39.11c-3.16-.18-6.32-.44-9.49-.57a6.77,6.77,0,0,0-2,.69c2,2.24,2,2.21,4.51,2.25a60.93,60.93,0,0,1,22.16,4.58c3.94,1.6,7.92,3.1,11.91,4.57a2.51,2.51,0,0,0,1.64-.28,42.58,42.58,0,0,1,5.62-2.52,25.82,25.82,0,0,1,5.66-.48q9.09-.44,18.2-.79a4.31,4.31,0,0,1,1.47.56l-.11.66a23.93,23.93,0,0,1-3.25.36c-1.49,0-2.16.44-2.17,2a25.19,25.19,0,0,1-.65,3.9c-1-1.1-1-1.1-.37-5.61H184c0,1.61,0,3.16,0,4.7,0,.28-.33.56-.51.84-.24-.29-.58-.54-.68-.87a3,3,0,0,1,0-1.24c.1-1.15.23-2.29.31-3.12-3.45,0-6.72,0-10,0-.8,0-1.74-.65-2.39-.4-2.51,1-5.19,1.68-7.07,3.9a2.35,2.35,0,0,1-1.83.53,14.89,14.89,0,0,1-3.1-.86c-4.26-1.49-8.47-3.14-12.77-4.5-3.79-1.2-7.68-2.08-11.83-3.19.75,2.91,1.95,5.21,1.53,7.83-.92-1.92-1.5-3.93-2.24-5.88-.25-.69-.79-1.69-1.33-1.77-2.07-.32-4.2-.33-6.12-.44,0,1.82,0,3.43,0,5a4,4,0,0,1-.5,1.27c-.33-.44-.92-.85-1-1.31-.12-1.59,0-3.19,0-4.84h-3.06l.83,1.6-15.66.58v3.84l-.57.09c-.31-1.22-.62-2.45-1-3.78l-5.41.24V315c-1.95-2-1.33-4.29-1.18-6.57H93.6l-2.66.3-5.89.37c-.19,1.43-.35,2.72-.52,4-.9,7-1.38,13.93,1.18,20.65a112.32,112.32,0,0,0,5.05,11A3.75,3.75,0,0,0,95,347.05c-.15-.44-.26-.84-.42-1.22-1-2.39-2.13-4.75-3.11-7.17-.14-.35.24-.92.37-1.38l.42.08q-.73-6-1.45-11.95l.54-.22a3.79,3.79,0,0,1,.81,1A10.86,10.86,0,0,1,92.5,328c1.24,6.08,2.51,12.16,3.69,18.25.27,1.43,1.06,1.55,2.26,1.41-.07-.39-.1-.69-.17-1A73.76,73.76,0,0,1,95.65,328,10.58,10.58,0,0,1,96,326.2h.58a5.19,5.19,0,0,1,.3,1.19c0,6.58,1.41,13,2.89,19.32a1.87,1.87,0,0,0,1.81,1.71l1.31.27,2.5.21c-.85-4.63-1.81-9.18-2.48-13.78s-1-9.13-1.52-13.7l.48-.12a19.48,19.48,0,0,1,.94,2.79c1.39,7.8,2.72,15.61,4.06,23.41.33,1.9,1,2.31,3.09,1.86-2.1-6.95-4.61-26.45-3.53-28.57.19.65.36,1.12.46,1.6.78,4.16,1.59,8.31,2.29,12.48.27,1.63.19,3.31.45,4.94.47,2.81,1.1,5.6,1.62,8.4a2.08,2.08,0,0,0,2.65,1.91A90.86,90.86,0,0,1,111,324.89l.55-.07q1.8,12.82,3.59,25.62l5.24.73a226.28,226.28,0,0,1-4.24-31,213.35,213.35,0,0,1,5.66,31.31L153,355.07a69.09,69.09,0,0,1-1.15-7.92c-.16-5.09,0-10.19,0-15.28,0-5.48,0-11,0-16.44l.28-.27c.33.44.89.85,1,1.32a62,62,0,0,1,.63,6.66c.17,7.38.19,14.77.35,22.15.06,3.25.31,6.5.49,9.86l7,.5c-1.14-6.42-1.68-24.06-.58-26,.44,5.13.86,9.86,1.23,14.6.26,3.36.42,6.74.72,10.1a1.94,1.94,0,0,0,.93,1.46,10.26,10.26,0,0,0,2.68.07l-.92-4.79.29-.1,1,1.44c.21-8.49.68-16.68.1-24.9,1.85,4.54,1.42,9.35,1.53,14.07s0,9.64,0,14.52l5.49.35c-.11-1.11-.23-2-.28-2.95-.2-3.79-.49-7.58-.52-11.37,0-5.19.1-10.38.22-15.57a4.68,4.68,0,0,1,.65-1.57l.39.18a12.12,12.12,0,0,0-.11,1.47q.49,11.61,1,23.21a3.83,3.83,0,0,0,.58,1.4c.66,1.33,1.32,2.66.51,4.43l-1.1-1.53c-.05.9-.08,1.54-.13,2.47h23.4c0-.47-.12-1-.15-1.47-.07-1.54-.22-3.08-.14-4.61,0-.6.81-1.15.84-1.75.33-6.62.58-13.25.88-19.88,0-.35.34-.69.53-1l.63.14c.77,9.59-.26,19.15-1,28.73h5c.1-9.23,2.44-18.17,1.79-27.78.5.6.9.87,1,1.22a9.28,9.28,0,0,1,.37,2.6c-.4,7-.85,13.89-1.29,20.84-.07,1-.21,2-.37,3.49l49.7-2.4c.94-5.82,1.8-11.17,2.66-16.52l.48.07c.34,5.38-.86,10.6-1.79,16.07l10-.93c.11-2,.13-3.9.32-5.76q1-10,2.11-20c.09-.81.73-2.26.94-2.23,1.44.2,1,1.5.91,2.37-.56,8.39-1.18,16.77-1.79,25.18,2.32.31,2.66,0,2.7-2.48A20.65,20.65,0,0,1,273,348q1.38-10.51,2.82-21a26.35,26.35,0,0,1,.75-3l.68,0a5.66,5.66,0,0,1,.34,1.62c-.41,4.56-.83,9.11-1.36,13.65s-1.14,8.81-1.73,13.29c1.37-.17,2.76-.35,4.14-.5.83-.08,1.16-.45,1.14-1.31a38.44,38.44,0,0,1,.06-4.68q1-11.66,2.16-23.28c0-.35.46-.65.7-1,.29.31.73.59.83.95a6.41,6.41,0,0,1,.11,1.86c-.36,5.86-.72,11.73-1.12,17.59-.22,3-.53,6.08-.81,9.24,2.77-.22,5.36-.62,7.38-2.54a3.37,3.37,0,0,0,1-1.89c.25-2,.2-4.05.46-6.05,1-7.26,2-14.51,3-21.76.05-.42.45-.78.69-1.17.2.45.61.91.59,1.34-.11,2.39-.25,4.78-.5,7.15-.69,6.53-1.43,13.06-2.15,19.64.23-.05.54,0,.71-.18,4-3.19,7.47-6.79,9.44-11.61a2.48,2.48,0,0,0,.18-1.2c-.24-1.9-.59-3.79-.77-5.69-.12-1.34,0-2.7,0-4.05l.54-.05c.38,2.4.75,4.79,1.17,7.49a7.91,7.91,0,0,0,.38-.73,63.9,63.9,0,0,0,1.81-21.51,7.48,7.48,0,0,0-.93-2.14l.5-.76-.29-.27a4.35,4.35,0,0,0-.7.65,38.48,38.48,0,0,1-2.27,3.3c-1.17,1.36-2.5,0-3.75,0-4.73-.09-9.46-.46-14.19-.42a5.32,5.32,0,0,0-3.92,1.73A72.46,72.46,0,0,0,276,319h4l.07.63-10.58,1.79c-.4,1-.88,1.14-2.21.39a9,9,0,0,1-1.17-.76c-3.61-2.74-7.23-5.45-10.79-8.24-2.57-2-5-4-8.57-4.3-4.41-.34-8.79-1.21-13.47-1.89a50.78,50.78,0,0,1,10.57,29,12.93,12.93,0,0,1,2.41-.38c.46,0,.91.43,1.37.66a6.16,6.16,0,0,1-1.05.94c-1,.6-2.13,1.11-3.36,1.74a6.58,6.58,0,0,0-1.37.17c-2.53.8-5.05,1.61-7.53,2.5a5.74,5.74,0,0,0-1.47,1.17c-.27.22-.51.45-.87.77-.18-.55-.3-.94-.36-1.14h-6l-.09-.37,5.76-1.79c-.32-1.42-.63-2.68-.87-4-1.3-6.85-2.81-13.65-5.56-20.1-1.61-3.78-3.33-7.51-6.1-10.64a1.67,1.67,0,0,0-2.28-.47c-3.71,1.64-7.48,3.18-11.49,4.86.28-.51.38-.94.65-1.15a17.9,17.9,0,0,1,3-2.13c2.61-1.27,5.37-2.23,7.93-3.6a2.81,2.81,0,0,1,3.66.38,16.72,16.72,0,0,1,2.47,2.58c1.48,2.13,2.83,4.35,4.23,6.53.75,1.77,1.56,3.51,2.24,5.3a61.05,61.05,0,0,1,4.39,21.8l8.93-3.13c-1.09-3.21-4.83-3.89-5.87-6.87l4.83,3.67.3-.36c-2-2.48-4.8-4.12-7.19-6.18l.36-.51,6,3.93.31-.38c-2.42-3-6-4.73-8.84-7.23,3.16.26,5.18,2.62,7.67,4.23-.23-2-.29-2.11-1.71-3.17-.62-.46-1.19-1-1.84-1.43-2.11-1.38-3.69-3.61-6.42-4-.15,0-.21-.56-.36-1,2.43-.2,3.91,1.38,5.67,2.25.51.42,1,.85,1.52,1.26s1,.74,1.64,1.25c-.46-2.16-.5-2.21-2.18-3.22l-7.73-5.77C231,312.72,232.47,314.36,234.28,315.29Zm19.58-10c-1-1.3-.94-3.38-2.68-4.1l-.41.3,2.86,4.11c0,.29,0,.58-.07.87l-.36.22a20.19,20.19,0,0,1-2.31-3c-.95-1.86-2.18-2.79-4.38-2.5a21.2,21.2,0,0,1-4.36,0c-4.74-.32-9.54.68-14.23-.6a1.59,1.59,0,0,0-.62.07,24.93,24.93,0,0,1,3.23,2.72,4.75,4.75,0,0,0,3.81,1.6c3.88.24,7.73,1,11.6,1.37a16,16,0,0,1,9.33,4c3.5,3.08,7.43,5.68,11.18,8.47a4,4,0,0,0,1.47.81,6,6,0,0,0,6.63-2.93c-1.27-1.9-2.45-3.78-3.76-5.57a8.11,8.11,0,0,0-1.79-1.4l-.51.53c1.05,1.45,2.11,2.88,3.14,4.35a5.15,5.15,0,0,1,.46,1.13c-2.23-1-3.3-2.79-4.29-4.67-.59-1.14-.59-1.15-2.07-.81l2.52,4-.34.41a6.46,6.46,0,0,1-1.5-1.27c-.9-1.45-1.58-3-2.5-4.46a23.38,23.38,0,0,0-2.28-2.62l-.63.48,4.11,6.83a13.1,13.1,0,0,1-4.35-2.74c-1.64-1.9-2.82-4.19-4.29-6.24a30.3,30.3,0,0,0-2.36-2.59l-.5.42,3.38,5.16C255.31,307.67,254.68,306.36,253.86,305.33Zm44.05-93,.37-1.31.6-3.38.32-1.36c-.12-2.14.55-4.38-1-6.31l1.25-1.36,10,9.74a8.27,8.27,0,0,0-.9-1.84q-3.71-4-7.5-7.93a2.16,2.16,0,0,0-1.14-.63c-2.3-.35-4.62-.57-6.9-1s-2.25-.44-2.92,1.9l1.46-1,.38.42-2.94,3,1.16.56-.11.7c-2.16-1-2.37.63-2.88,1.74-1.79,3.91-4.08,7.38-8.24,9.39,1.81,1.77,2.54,4.51,5.22,5.14l.34-.33L282,215.29l.36-.37,2.39,2.16c.81-.62.87-.65,1.4.41s1.09,1.72,2.39,1.16c-.8-1.79-2.9-2.86-3.06-5.37.54.3.86.37,1,.58a30.44,30.44,0,0,1,2.84,3.69c.68,1.17,1.48,1.4,2.9,1-1.45-1.79-2.84-3.45-4.13-5.18-.28-.38-.21-1-.3-1.53.46.18,1.08.23,1.34.56,1.57,2,3,4,4.7,6.21l1.86-.51c-2.38-2.9-4.69-5.38-6.27-8.39l.62-.5c2.39,2.11,4.05,4.89,6.08,7.34a2.16,2.16,0,0,0-.18-3.32,39.48,39.48,0,0,1-3-3.75,6.38,6.38,0,0,1-.63-1.46l.54-.33,4.76,5.42C297.74,212.77,297.82,212.53,297.91,212.28ZM195.72,296.46a9.14,9.14,0,0,1,5.32,1.18c1.07.51,2.12,1.06,3.17,1.59l.19-.34-4.15-2.23a24.74,24.74,0,0,0,.34-2.9,4.32,4.32,0,0,0-.56-1.4,4.73,4.73,0,0,1,1.7-.47c1.43.21,1.65-.91,2.45-2l-1.33-.36.35-.42,1.44.31c.19-.81.35-1.53.52-2.26,2.29.47,0,1.8.81,2.86l2.27,1.16c-.53-1.09-.92-1.79-1.21-2.53a2.64,2.64,0,0,1,0-1c.35.12.84.14,1,.39.61.83,1.05,1.78,1.65,2.63,1.56,2.24,3.32,4.25,6.58,4.6-2.37-1.92-4.06-4-4.54-6.91,2.2,2.25,3.62,5.21,6.62,7.07-1.09-2.24-2.63-3.93-2.8-6.21,2.44,2.37,3.23,6.09,6.53,7.65-2.88-5.54-3-5.95-2.13-6.9,1.72,2.93,2.54,6.54,6.34,8.34-1.24-2.73-2.3-5.1-3.37-7.47l.57-.31c.46.68,1,1.35,1.38,2.07.87,1.53,1.58,3.16,2.56,4.62a16.55,16.55,0,0,0,2.38,2.35l.25-.29-3.38-6.52.47-.38a6.6,6.6,0,0,1,1.08,1.1c1.14,1.79,2.18,3.64,3.34,5.43a2.44,2.44,0,0,0,2.48,1.24c-1.16-2.16-2.33-4.32-3.49-6.49l.32-.37c.44.34,1,.6,1.3,1,1,1.65,1.79,3.39,2.78,5a2,2,0,0,0,1.41.84c1.39,0,2.8-.26,4.19-.2,4.66.22,9.42-1,14,.92a.69.69,0,0,0,.58,0c1.54-1,3.24-.9,5-.88,2.65,0,5.3,0,7.95-.07,1.17,0,1.65.45,2.15,1.52a49.2,49.2,0,0,0,3.54,6,2,2,0,0,0,1.58.49,8.46,8.46,0,0,1,5.07.76c.16.1.7-.4,1-.66s.88-1.14,1.3-1.13c5.35.09,10.7.24,16.05.5a3.72,3.72,0,0,0,4-2.22l-16.21-2.89v1.08a4.53,4.53,0,0,1-.81-.32c-3.1-2.17-6.36-4.15-9.24-6.58-4.08-3.46-8.49-4.4-13.38-2.79l2.64,3.36-.45.4c-1.9-1-3-3.28-5.3-3.7,1,1.25,2.66,1.72,3.36,3.19l-.38.53q-2.82-1.87-5.65-3.74l-.1.2,4.52,4.07-.35.5a7.61,7.61,0,0,1-1.35-.64,19.84,19.84,0,0,1-2.63-2.19c-1.67-1.82-3.64-2.11-5.95-1.41.16.09.29.15.41.23.74.49,2.26.24,1.95,1.64-.07.29-1.75.48-2.58.29q-17.13-4-34.22-8.23c-2.25-.55-4.46-1.31-6.9-2,.09,1.22.16,2.22.23,3.22l-.35.21a10.65,10.65,0,0,1-1.22-2.24c-.28-1.05-.6-1.94-1.75-2.27-.06,0-.08-.17-.16-.35L208,284c-.26-1-.5-1.83-.75-2.72h-1.7c-8.26.12-16.51.2-24.77.37q-5.69.12-11.36.55c-2.54.19-2.53.32-2.69,2.82-.57,1,.12,2.51-1.57,3.22.13-1.94.26-3.67.39-5.56l-2.92.28c-.36,1.35-.67,2.53-1,3.71l-.72-.12.26-3.57c-2.51,0-4.85-.06-7.18.05-.43,0-1,.7-1.21,1.2a9.68,9.68,0,0,0-.48,2.11l-.54-.05c-.06-1-.13-2-.19-3.07a2.15,2.15,0,0,0-.44-.09c-8,.29-15.91.62-23.86.85a58.89,58.89,0,0,1-7.63-.22c-1.4-.15-2.74-1.21-4.13-1.25-3-.1-6.1.19-9.36.33.32,2.47.62,4.69,1,7.17-2.4-1.86-1.46-4.62-2.26-6.55L97.5,282.2a41.91,41.91,0,0,0,2,11c.05.18.35.32.56.42l6.35,2.75,1.8.82c-2.81-2.24-2.81-2.24-2.51-3,3.27,1.73,6.46,3.66,10.34,3.75-2.08-1.57-4.77-2.11-6.7-3.86l.19-.4,1.82.3v-1.77c4.75-.87,7.44,3.45,11.6,4.88l-7.4-5.77.36-.5,7.33,4.76c.09-.44.15-.68.19-.93.33-2.32.37-2.55,2.75-2.43,3,.15,6,.65,9,1,.84.1,1.65.34,2.93.6l-2.7-2.4c1.05,0,1.8,1.12,2.81.09.09-.09.49.08.72.18.87.38,1.73.78,2.79,1.26l-1-1.56L144.2,293l.1-.19-2.65-2.19.31-.44c3.54,1.47,6.33,4.28,9.69,6.07l.22-.35-9.82-7,.33-.48c.64.3,1.59,1,1.86.84,1.31-1,2.12.25,3.12.48l4.91,1.19c.11,0,.26-.15.39-.17a7.12,7.12,0,0,1,2.49-.16c1.73.52,3.35,1.38,5.07,1.93a11.87,11.87,0,0,0,2.69.24l.08-.44-2.79-2.57c2.13-1.12,3.6-.14,4.86,1.13s2.82,1.22,4.48.59l-2.84-3,.27-.38a5.81,5.81,0,0,1,1.13.51c.87.66,1.66,1.44,2.56,2a8.52,8.52,0,0,0,1.89.69l.22-.44c-.68-1.14-1.36-2.28-2.05-3.41l.56-.42a12.65,12.65,0,0,1,2.12,2.42,2,2,0,0,0,2.64,1.1l1.53-.37c-.85-.94-1.54-1.7-2.24-2.45-.39-.43-.65-.8.24-.85l2.44,2.32c.79,1.72,2,.47,3.18.51l-1.1-1.63L178,289.27c1.48-2.41,2.94-4.84,4.49-7.21.19-.29.86-.27,1.31-.4-.05.47.07,1-.16,1.38-.93,1.37-2,2.67-3,4a7.51,7.51,0,0,1,1.36,1.48,1.54,1.54,0,0,0,1.95.78c3.83-.67,7.65-1.39,11.49-2,3-.46,5.95-.78,8.93-1.1.47-.05,1.54-.27.84.92a6.81,6.81,0,0,0-.78.05c-8.39,1.62-16.77,3.35-25.18,4.84-6.85,1.21-13.73,2.42-20.64,3.08-2.81.27-4.3,1.65-5.93,3.45,1.07.54,2,1,3,1.51a2.61,2.61,0,0,0,1.14.4c3.73-.26,7.46-.46,11.16-.9,4.13-.48,8.24-1.2,12.39-1.83l-2.14-3.23.55-.43c.55.67,1.09,1.36,1.67,2s.95,1.88,2.28,1l-.71-3.05c1.94.12.72,3.21,3.08,2.74-.49-1-1-1.84-1.33-2.74-.07-.19.28-.55.43-.83.2.18.48.31.58.53.43.92.8,1.87,1.2,2.85l2-.25c.06-1.36-1.66-2.17-.69-4l1.95,3.77,2.09-.38c-.4-.73-.82-1.39-1.12-2.09s-.46-1.41-.69-2.12l.49-.19,2.65,4.25,5.65-1.33a3.38,3.38,0,0,1-1.3,1.3c-.43.29-.87.56-1.31.84l-4.65.65v.5l2.75,1c.12-.44.24-.88.35-1.32C195.17,297.92,195.13,296.59,195.72,296.46ZM81.56,237.27c0-.49.1-1.12-.15-1.45-2.08-2.65-4.23-5.25-6.36-7.87l-.65-1.75.46-.32c3.15,2.77,5.58,6.25,8.43,9.46l.93-1.58c-2.3-1.43-6.45-7.12-6-8.53l6.49,7.32.38-.09c-.09-.51,0-1.15-.29-1.5-1.19-1.51-2.49-2.93-3.73-4.4a12,12,0,0,1-.82-1.27l.66-.58,4.64,5.55c.93-1.15.71-1.74-.06-2.41s-1.86-1.36-1.62-2.87l2.79,2.37c1.17-2.31-1.64-2.31-2-4l3.06.54.2-.28L85,221.8c.21-.17.43-.48.57-.44.88.22,1.73.51,2.67.8.28-.71.61-1.41.84-2.15a3.63,3.63,0,0,0,0-1.09,5.38,5.38,0,0,0-1.23.15c-1.16.43-2.27,1.26-3.44,1.35-4.65.37-9.32.55-14,.75-1.65.07-3.31,0-5,0-.09.79-.21,1.61-.27,2.43-.41,5.24-.7,10.56-3,15.38a4.86,4.86,0,0,0,.68,5.84s0,.11.08.13l1.91,1.13c-.49-2.26-1.95-3.7-1.43-5.67a17.31,17.31,0,0,1,2.22,4.06c.44,1.27,1,1.37,2,.81-1-2.29-3.37-3.91-3.27-6.69,1.53,1.85,2.82,3.82,4.19,5.74.25.35.78.5,1.18.74l.43-.49-5.37-8.78c.61-.06.92-.17,1-.09,2,2.77,4.08,5.56,6.25,8.54l4.84-2.42c-1.92-2.72-3.7-5.2-5.42-7.74a10.52,10.52,0,0,1-.87-2l.63-.33c2.26,3,4.53,6.09,6.84,9.18l1.06-.9c-2.63-3.7-5.89-6.75-8-10.57l.67-.54L80.44,239Zm165.77-31c-.92-.91-1.81-1.84-2.77-2.7a2.11,2.11,0,0,0-1.26-.61,20.85,20.85,0,0,0-2.68.54c.56.93,1.12,1.75,1.55,2.63.15.28,0,.72,0,1.08a3.55,3.55,0,0,1-.78-.65c-1-1.48-1.65-3.35-4-3.85.54.92,1,1.64,1.4,2.4s.6,1.46.9,2.19l-.36.18c-3.61-5.11-6.49-11-13.14-13.34,2.19,3.12,4.22,6.07,6.32,9,.91,1.25,1.72,2.47,1.15,4.24a3.78,3.78,0,0,1-.69-.47c-.78-.91-1.55-1.83-2.3-2.75-2.75-3.38-5.66-6.65-8.16-10.21-.9-1.28-1.74-1.46-3.24-1.7,1.45,1.76,2.71,3.2,3.88,4.71q3.63,4.67,7.16,9.41a5.92,5.92,0,0,1,.56,1.63l-.58.26c-.52-.73-1-1.47-1.57-2.18q-5.19-6.9-10.43-13.76c-.19-.26-.7-.27-1.07-.39l-.23.35c2.93,5.17,7.22,9.48,9.88,15-1.47-.19-10.33-13.1-10.89-15.59l-3.72-.4C216,195.85,219.6,200,222,205a2.14,2.14,0,0,1-1.32-.72c-3-4.14-6-8.31-9.08-12.45a1.72,1.72,0,0,0-1.05-.71c-1.06-.09-2.15,0-3.49,0,2.89,1.13,5.23,2.55,6.35,5.38,1.83,4.58,3.64,9.17,5.54,13.72a40.72,40.72,0,0,0,2.12,4c.07.12.24.17.31.22l.64-.43c.33.73.45,1.56.91,1.88a6.79,6.79,0,0,0,6.93.55c-.89-1.73-1.77-3.36-2.55-5-.14-.3.16-.8.26-1.21.34.22.78.36,1,.66,1.14,1.6,2.23,3.23,3.33,4.85a11.23,11.23,0,0,0,1.18-.48q6.94-4.17,13.88-8.35c.18-.11.25-.39.37-.59l8.8-5.78-.12-.58c-.81-.17-1.72-.66-2.41-.44-2.83.89-5.58,2-8.31,3ZM263,274.12l-2-2.19-.18.13.58,1.62-8.4-5.25-.38.58,13.17,9.43c-1.6.22-3,.45-4.37.59a2,2,0,0,1-1.22-.36c-2.47-1.86-4.9-3.79-7.39-5.65a5.61,5.61,0,0,0-1.54-.54l-.13.34,7.84,5.85-1.58,6.92-.53-.07c-.87-2.09.37-4.13.41-6.07a19.43,19.43,0,0,1-2.19-1.09c-2.2-1.46-4.36-3-6.55-4.46a6.86,6.86,0,0,0-1-.46l-.32.46,7.75,5.67c-1.82,0-3.42,0-5,0-2.42.08-2.4.1-2.74,2.43a5.13,5.13,0,0,1-.41,1.11h-.62l-.59-3.63c-3.74,0-7.53,0-11.31,0-.84,0-1.67.14-2.51.21l-1.37.89c-.72-1.2-1.64-.63-2.52-.22-.55-2.51-2.43-4-4-5.62s-3.38-3.21-5.09-4.82l.75-1.09-1.69-1.47a4.58,4.58,0,0,1,2.05,1.19c3.48,3.28,6.92,6.6,10.41,9.87a5.75,5.75,0,0,0,1.27.7l.57-.68L225,272.29l.38-.45c.43.24.85.5,1.3.7,2.73,1.2,5.46,2.42,8.23,3.53.34.14.91-.29,1.35-.44a10.33,10.33,0,0,1-2.8-1.32c-.69-.67-.85-1.87-1.52-2.58-1.56-1.65-3.28-3.14-4.94-4.7,4.26,2.4,8.09,5.52,12.71,7.2l.43-.67-10.67-7.11a3.73,3.73,0,0,1,1.79.48c2.5,1.27,4.86,2.91,7.74,3.25.48.06,1-.31,1.51-.48-.67-.6-1.82-1.79-2-1.68-1.16.91-1.75-.19-2.31-.65-1.61-1.28-3.09-2.73-4.62-4.12a3.87,3.87,0,0,1,1.52.52c3.33,1.79,6.64,3.62,10,5.34.48.25,1.22,0,1.84,0l-.37-1.37,2.27-.67-1.8-2.88c.5-.73.93-1.41-.64-2.23a41,41,0,0,1-5.41-4,3.74,3.74,0,0,1,1.79.4c1.62.66,3.22,1.4,4.89,1.92a1.9,1.9,0,0,0,1.75-.5c.25-.38,0-1.3-.32-1.79a25.47,25.47,0,0,0-2.12-2.54c1.18.43,2.22,1.08,3.33,1.59a4.52,4.52,0,0,0,1.49.12c-.24-.46-.35-1.08-.72-1.35-1.53-1.1-3.13-2.08-4.7-3.11l.09-.2,6.5,2.55.22-.3-2.33-3c1.75-2.59,2.69-3,4.18-1.69l-1.33,1.12c1.16,0,2.45.14,2.52-1.46,0-1.1-1.16-1.77-2.71-1.59a4.55,4.55,0,0,1-.61.1,3.75,3.75,0,0,1-1.22-.16c-.95-.42-1.41-.09-1.4,1,0,.57-.09,1.15-.15,1.87-2.65-2.21-5-4.17-7.34-6.15-.22-.18-.27-.54-.42-.81-.27-.49-.42-1.18-.83-1.41q-9.78-5.28-19.61-10.45c-.38-.2-1.19-.4-1.26-.28-.69,1.12-1.36.3-2,.08-.34-.1-.82-.41-1-.28-1.34.94-2.31-.22-3.43-.51-1.87-.49-3.47-2.67-5.72-1-.09.07-.3,0-.46,0a10.45,10.45,0,0,0-6.67,1.73c-1.75,1.11-3.4,2.39-5.06,3.64-2.24,1.69-4.36,3.54-6.69,5.1-3.14,2.09-6.35,1.72-9.29-.49a29.29,29.29,0,0,1-3.65-3.4c-3.45-3.66-4.07-3.79-8.49-1.32a11.51,11.51,0,0,0-2.34,1.53c-2.71,2.57-5.68,5-7.94,7.89-3.62,4.71-6.76,9.79-10.23,14.89,2.13,1.75,4.12,3.36,6.09,5,4.61,3.81,9.2,7.63,13.82,11.42a5,5,0,0,0,1.33.55l.33-.52-5.61-5.1.13-.21,2.8,1.72c1.89,1.5,3.55,3.33,5.88,4.27a3,3,0,0,0-.58-1.41c-1.23-1.88-3.27-2.33-5.22-2.95L163.5,271c1.76.15,3.11,1.58,4.51.41-.34-1.52-.64-2.82-.93-4.11l.49-.25a20.22,20.22,0,0,0,2,1.31c2.75,1.4,5.56,2.71,8.3,4.14s5.15,2.88,7.75,4.26a10.06,10.06,0,0,0,2.15.58l-10.36-7.27.29-.47,9.85,5.31.35-.37a7,7,0,0,0-1.23-1.25c-2.65-1.63-5.34-3.19-8-4.79-.31-.18-.59-.42-.89-.63l.24-.45c5.07.2,8.65,4.3,13.29,5.6l.25-.41-9.08-5.45.3-.51c1,.55,2,1.11,3.07,1.65,2.94,1.53,5.86,3.08,8.82,4.54a6.28,6.28,0,0,0,2,.25c-4.56-2.71-9-5.33-13.42-8-.32-.19-.37-.82-.54-1.24l.37-.22,3.23,1.73.39-.31a5.12,5.12,0,0,0-.86-1.28,19.07,19.07,0,0,0-2.13-1.28v-.88c.91.56,1.82,1.13,2.76,1.65a1.68,1.68,0,0,0,1.06.26c2.08-.53,2.31-.4,2.84,1.72l.54-1.4c1.32-.31,1.47.41.85,1.22a15.69,15.69,0,0,1-2.39,2.15l14.34,8.21c.24-.42.34-.88.57-1,1.27-.44.63-.86,0-1.26s-1.54-1-2.32-1.44l.18-.34,5.44,3.06.26-.4-1.46-1.35,1.07-.66a7.36,7.36,0,0,0-1-.8c-.48-.29-1-.47-1.52-.74q-6.58-3.63-13.16-7.29l-6.33-3.88c.57-1.23.54-1.22-.07-2.49a1.31,1.31,0,0,1,.14-.93,9.93,9.93,0,0,1,3.63-.12,10.28,10.28,0,0,1,2.88,2.06c.49.37,1,.78,1.42,1.18a17.26,17.26,0,0,1-3.41-1.8,2,2,0,0,0-3,1.26l32.86,19.07c-1.46-2.56-4.28-3.69-6.4-5.62a10.76,10.76,0,0,1,1.65.67c1.64.74,3.28,1.52,4.94,2.22.9.37,1.75.43,1.86-.92h0c1.54,2.32,4.18,3.83,5.11,6.86-6,1.31-11.85.22-18.14.45.66,1.28.91,2.65,1.66,3.05a17.42,17.42,0,0,0,4.34,1c.05,0,.08.08.13.09q11.79,2.91,23.58,5.79c.14,0,.34-.17.54-.28L235.91,286l.68-.48c1.3,1.75,2.59,3.52,3.91,5.25a9.31,9.31,0,0,0,1.16,1.1l.34-.34c-.89-1.34-1.78-2.66-2.64-4a3,3,0,0,1-.27-.9,3.08,3.08,0,0,1,1.07.17,2.15,2.15,0,0,1,.72.8c.79,1.28,1.52,2.59,2.33,3.85a6.39,6.39,0,0,0,1,1.05l.48-.43L242,287.51c1.58-.47,3.38,2,3.66,5.24l1.87.3c-1.27-2.23-2.38-4.15-3.44-6.1a6.86,6.86,0,0,1-.43-1.44c.5.24,1.17.36,1.49.75,1,1.28,2,2.66,2.92,4l4.74-.77v-2.23c.88.62,1.31,1.66,2.05,2s1.56-.37,2.47-.64a17.47,17.47,0,0,0,2.49.43c2.75.1,5.55-.18,8.25.23,6.51,1,13,2.25,19.47,3.38.47.08,1.24-.33,1.44-.11.9.95,1.39.36,2-.28a7.91,7.91,0,0,1,1.53-1.07c5.69-3.47,10.41-8.11,15.16-12.7.09-.08.08-.25.15-.49-2.52-.14-4.95-.32-7.38-.37a1.59,1.59,0,0,0-1.14.87c-.45,1.3-.73,2.65-1.13,4.18-1.12-1.84,0-3.44.12-5.19-1.29.06-3-.35-3.54.26a21.26,21.26,0,0,0-2.56,5c-.1.23.3.82.2.89a3.46,3.46,0,0,1-1.09.4c-.13-.41-.46-.89-.35-1.22.59-1.76,1.28-3.48,1.94-5.22l-.18-.38-1.89.85a4.64,4.64,0,0,0-1.58-.4c-1.1.15-2.18.48-3.45.78-.4,1.91-.83,4-1.28,6.15l.62.09.52.08,0,.44c-.57.06-1.28.35-1.68.11s-.52-1-.67-1.53a2.15,2.15,0,0,1,.12-.92c.36-1.74.73-3.48,1.16-5.47a5.16,5.16,0,0,0-1.64.47,7.89,7.89,0,0,1-5.9,1.48c-2.85-.2-5.71-.35-8.56-.61a3.43,3.43,0,0,1-2-.76c-1.27-1.22-2.38-2.59-3.55-3.9,2.07,1.08,4.14,2.15,6.2,3.25.49.26.95.58,1.42.88l.25-.42a25.3,25.3,0,0,0-7.14-4.55C263.65,273.2,263.28,273.81,263,274.12ZM118.9,262a16,16,0,0,1-1.37-1.23c-1.14-1.27-2.21-2.61-3.37-3.87a5.72,5.72,0,0,0-1.36-.82l-.16.29q6.48,8.59,13,17.18l.56-.38c-1.68-3.78-4.48-6.88-6.75-10.3l.92-.8,8,10.5.51-.26c-.42-1-.84-2.06-1.27-3.09a25.29,25.29,0,0,1,2.54,3.18,7.4,7.4,0,0,0,.75.73c.79-1.09,1.16.41,2.13.22a4.05,4.05,0,0,0-.32-1.35c-1.13-1.74-2.35-3.42-3.5-5.15a6.48,6.48,0,0,1-.53-1.33,2.65,2.65,0,0,1,1.33,1c.91,1.26,1.76,2.57,2.72,3.79.47.6,1,1.75,1.92.33,1,1.3,2,2.61,3,3.92l.45-.35-1.13-2.4,1-.6,2.43,1.89c.47-2.24.45-2.23-.63-3.68q-3-3.92-5.85-7.88c-2.54-3.47-5-7-7.56-10.46a1.3,1.3,0,0,1,1,.46c1.22,1.42,2.39,2.88,3.62,4.29q5.46,6.27,10.95,12.52c.37.43.79,1.29,1.07,1.25,1.53-.24,1.62,1.16,2.28,1.83s1.23,1.67,1.93,2.43a4.5,4.5,0,0,0,1.29.67l.48-.55-15.84-19.36c.43-.16.7-.11.85.05,2.27,2.44,4.58,4.84,6.77,7.34,2.42,2.78,4.71,5.66,7.1,8.46a10.87,10.87,0,0,0,1.52,1.25l.48-.44c-1.43-2.89-4.23-4.85-5.6-7.8,3.49,4.73,8.11,8.42,11.67,13.07a4.15,4.15,0,0,0,1.18.74c0-.49.19-1.09,0-1.46-.89-1.61-1.9-3.15-2.86-4.71l.14-.14,5.52,4.72.43-.36a4.5,4.5,0,0,0-.65-1.11c-4.47-4.4-9-8.78-13.45-13.17-1-.95-1.57-.72-2.13.5a2.8,2.8,0,0,1-.28-1.12c0-.36.11-.87-.08-1.06-1.78-1.85-3.62-3.65-5.44-5.45l-.36.33,1.35,2.48-.35.2c-.3-.39-.59-.79-.9-1.17-2.18-2.7-4.18-5.59-6.61-8.05-5.26-5.33-10.72-10.46-16.16-15.61a4.25,4.25,0,0,0-2.64-1.31,5,5,0,0,1-3.91-1.8,17.08,17.08,0,0,0-2.51-2,4,4,0,0,0-1.43-.31l.68,1.47s-.38.13-.7.29a3.78,3.78,0,0,0-1,.62c-5.54,5.68-10.59,11.74-14.09,18.94a22.51,22.51,0,0,0-2.38,11.47c.07,1,.24,1.66,1.55,1.74a5.46,5.46,0,0,1,2.61,1.23,16.59,16.59,0,0,1,2,2.14c.24-.89.44-1.66.64-2.42l.53-.19L106,277.82l.46-.26a10,10,0,0,0-.78-1.61c-3-4.38-6-8.73-9-13.1a2.4,2.4,0,0,1-.17-.7l2.29,2.18.47-.39-2.46-3.14-.95.77a6.55,6.55,0,0,0-1.35-.3c-2,0-4-.29-5.48-1.75-.55-.53-1.35-1.21-.4-2.4,1.56,3.33,4.48,1.72,6.57,2.29l-.24-2,.49-.08,1.27,1.5,1.39-1.51-1.87-.64A32.94,32.94,0,0,1,92,255.19c-1.4-.7-1.42-2.05-.33-3.16.55.86.95,2.26,1.71,2.5a24.36,24.36,0,0,0,5.2.53l-.82-2,.29-.29c.53.32,1.54.69,1.51.94-.17,1.48,1.06,2,1.75,2.87,1.95,2.42,3.94,4.83,6,7.16,3.68,4.15,7.42,8.25,11.15,12.37a3.81,3.81,0,0,0,.77.51l.31-.28-9.67-15.25a8.73,8.73,0,0,1,3,2.36c2.13,2.74,4.13,5.58,6.16,8.4a3.66,3.66,0,0,1,.35,1l.72-.61c-.8-2.73-3.07-4.63-4.54-7.21.42.06.71,0,.78.12,2,3,3.93,6,5.92,9a5.9,5.9,0,0,0,1.18,1l.48-.44a25.16,25.16,0,0,0-2.21-4.65c-5.56-7.48-11.25-14.87-16.91-22.27-.31-.41-.7-.77-1.06-1.16L102.61,248c.75,1.06,1.47,2.09,2.19,3.13-1.7-.84-2.18-3.22-4.56-3.21l1.72,3.23-.63.54-3-3.5-.29.25c.27.39.5.81.8,1.18,2.35,2.89,4.81,5.69,7,8.68,1.55,2.08,2.77,4.4,4.12,6.63,0,.05,0,.18-.16.62-3.83-4.81-7.57-9.42-11.17-14.14a6.4,6.4,0,0,1-1-3.25,5.79,5.79,0,0,1,.74-2.16,5.17,5.17,0,0,0,1-.67c1.52-1.51,2.44-1.61,3.9-.14,1,1,1.2.09,1.55-.6,1.25,2.09,2.44,4.08,3.64,6.07l.45-.18-.51-2.19a15,15,0,0,1,2.81,2.94C113.85,254.77,116.36,258.39,118.9,262Zm131.19-16.35.21-.19c-.36-.41-.68-.86-1.07-1.24a82.8,82.8,0,0,0-14.71-11,4.21,4.21,0,0,0-1.27-.56c-.3-.06-.87.07-.92.24a1.55,1.55,0,0,0,.18,1.08c.07.14.51.09.79.1s.35-.14.44-.08c1.94,1.26,3.87,2.55,5.8,3.82l-.32.56q-5.13-2.86-10.26-5.71a7.71,7.71,0,0,0-1.65-.77c-2.26-.65-4.53-1.25-6.79-1.87l.08-.33h10.72c-1.69-2.93-3.45-5.91-5.12-8.94-.84-1.55-1.1-1.77-2.92-1.5l2.11,1.35-.16.43-8.06-1.48v4.15c-1.85-1.36-.45-3.2-1.15-4.37l-2.79-.66c-.44,1.75-.87,3.48-1.3,5.21l-.74-.15c.33-1.82.67-3.64,1-5.48l-3.47-.75c-.38,1.37-.73,2.61-1.08,3.86l-.6-.14c.14-1.29.28-2.57.43-3.89-.48-.12-.83-.18-1.17-.3-1.45-.52-2.46-.2-3,1.36a8.13,8.13,0,0,1-1,1.59l-.43-.22,1.26-3.18a3.32,3.32,0,0,0-.58-.2c-5.16-.64-10.32-1.23-15.48-1.93-2.52-.34-4.72,0-6.38,2.13-.22.28-.6.42-.85.67-1.71,1.71-3.92,1.13-4.81-1.67a8.21,8.21,0,0,1-.19-1.38h-4.43c-.9,2.55,0,4.88.69,7.23-2.09-2-2.33-4.44-2.1-7.22-.42.22-.87.56-.89.91-.08,1.72,0,3.45,0,5.64-1.8-2.15-.43-4.48-1.13-6.51l-2.6.15c.35,1.85.67,3.51,1,5.42-.41-.31-1.12-.56-1.29-1a8.31,8.31,0,0,1-.38-2.6c-.08-1.86-.28-2-2.41-1.42.36,1.67.73,3.37,1.06,5.07a.77.77,0,0,1-.27.64c-.17.1-.62.08-.68,0a4,4,0,0,1-.52-1.39c-.17-1.49-.26-3-.38-4.45-3.17-.24-3.52.05-3.67,3.06,0,.61.19,1.24.21,1.87a.89.89,0,0,1-.37.7.82.82,0,0,1-.76-.24,2.59,2.59,0,0,1-.31-1.32c.11-1.27.33-2.52.53-3.93l-2.2.17v5.71l-.58,0L153,215.1l-1.9.09c-.21,2.24-.39,4.26-.58,6.28l-.5,0c-1-1.93.62-4-.23-6.08l-2.38.15c.15,2.26.3,4.31.44,6.36l-.46.05c-1.15-1.89-.67-4.14-.87-6.26l-2.26.18c.2,2.33.39,4.5.58,6.67l-.45.11c-1.52-1.91-.59-4.41-1.09-6.66l-3,.36v8.42c-.34-.06-.71,0-.79-.14-1.59-2.57-.06-5.36-.47-8.1l-4.21.65v10l-.61.19a5,5,0,0,1-.69-1.34,11.43,11.43,0,0,1-.06-2.34c.09-2.11.22-4.22.37-6.9-1.18.72-2.56,1.08-2.69,1.72a64.73,64.73,0,0,0-.81,7.13,5,5,0,0,1-.73-.06c0-2.45,0-4.92,0-7.49l-2.19.47v5.22c-1.83-1.46-1-3.28-1.19-4.91l-1.39.38.62,5.18-.6.13c-.45-1.61-.91-3.23-1.41-5L111.78,223c1.37,1.18,2.48,2.05,3.49,3a87,87,0,0,1,7.4,7.35c6.69,8.21,14.89,15.07,21,23.82.77,1.12,1.56.92,2.12-.31a66.27,66.27,0,0,1,11.53-18.06,27.59,27.59,0,0,1,9.82-7.29c4.09-1.65,5.72-1.27,8.75,1.88a48.59,48.59,0,0,0,4.29,4.08,4.65,4.65,0,0,0,6.05.22c1.23-.88,2.42-1.8,3.63-2.71,2.66-2,5.23-4.12,8-5.92a13.25,13.25,0,0,1,9.56-2c4.72.75,9.35,1.69,13.62,4,5.26,2.9,10.63,5.59,15.92,8.45,2.79,1.5,5.5,3.14,8.23,4.74a11.41,11.41,0,0,1,1.24,1l.25-.27-1.88-2.13.17-.35Zm-141-45.07c.29.21.49.34.68.49,1.67,1.32,3.35,2.63,5,4,.24.2.25.67.37,1-.35-.06-.79,0-1-.21-1.92-1.51-3.73-3.14-5.71-4.56a11.59,11.59,0,0,0-2.89-1.08l-.24.52c1.73,1.84,4.55,2.69,5.28,5.49a1.59,1.59,0,0,1-1.18-.33,53.77,53.77,0,0,1-4.58-4.2c-1.29-1.41-2.62-1-4.28-.65.56.44,1,.74,1.37,1.06,1.21,1,2.43,1.94,3.6,3,.21.18.21.6.3.91a4.9,4.9,0,0,1-1.08,0,1.72,1.72,0,0,1-.63-.44c-1.45-1.24-2.89-2.52-4.38-3.73a5,5,0,0,0-1.39-.52c1.2,2.22,3.43,3.35,4.12,5.78a1.82,1.82,0,0,1-1.37-.29c-1-1-1.81-2.22-2.79-3.27-1.66-1.78-1.69-1.76-4.27-.67,1.77,2.07,4.11,3.64,5.5,6l-.59.56a57.58,57.58,0,0,1-6-6.25c-2-.25-3.62.41-4,2.41a13.45,13.45,0,0,0,0,4.43c.38,2.5,1.39,4.94.26,7.5-.1.24.22.67.47,1.34a14.78,14.78,0,0,1,7-6.77,54,54,0,0,1,18.44-4.87c2.67-.2,5.34-.36,8-.58,4.07-.33,5.88.71,7.66,4.42a11.51,11.51,0,0,0,1.31,2.29,1.83,1.83,0,0,0,1.4.56c6.52-.65,13-1.64,19.54-2,9.66-.52,19.33-.58,29-.89a4.78,4.78,0,0,0,2.54-.78,24.78,24.78,0,0,1,19-4.71c3.13.44,5.9,2.76,9.54,1.52l-.61,1.09,4,4.34a10,10,0,0,0-.22-1.77c-1.76-4.72-3.49-9.46-5.36-14.13-1.26-3.16-4.12-4.19-7.28-5.12.31,2.32,2.36,3.89,1.55,6.26-1.1-2.18-2.19-4.37-3.34-6.66l-4.19,1.45,3.12,5.43-.59.34-3.61-5.33a2.07,2.07,0,0,0-.62.08l-13.69,6c-.14.06-.4.18-.39.23.39,1.81-1.29,2-2.21,2.67a18.43,18.43,0,0,1-3.27,1.78c-.65.31-.8,1.69-2,.9-.17-.12-.57.12-.87.2a41.08,41.08,0,0,1-4.17,1.18,64.45,64.45,0,0,1-25.25-.45c-5.11-1.1-10.21-2.3-15.43-3.49l2.68,3.41-.42.37c-1.4-1.35-2.63-3-4.25-4s-3.64-1.32-5.49-1.94l-.19.46,6.55,4.7-.24.4a6.28,6.28,0,0,1-1.33-.54c-2-1.37-3.85-2.81-5.8-4.18a11.37,11.37,0,0,0-1.72-.83c1.41,2,3.78,3,4.6,5.46a1.72,1.72,0,0,1-1.1-.4,42.71,42.71,0,0,1-3.87-3.61c-1.18-1.35-2.5-1.33-4.16-1.08,1.49,1.9,3.83,2.83,4.45,5.24A23.81,23.81,0,0,1,114,202C112.62,200.53,111.25,199.74,109.11,200.57Zm28.51,0c10.63-1.21,21.18.81,31.56,0l-.14-1c.35,0,.75-.19,1-.06,1.22.55,2.43,1.15,3.6,1.81a3.54,3.54,0,0,0,4.74-.76l-2-1,10.39-5.66c-1.81-1.56-4-1.74-6.13-2a2.57,2.57,0,0,0-2.84,1.54c-.47,1-1,2-2.67,2.08.86-1.39,1.59-2.59,2.47-4l-3.77-.31-.63,3.81-.39-.05v-3.94h-2.13c-.07,1.47-.13,2.87-.19,4.27-1.35-1.37-.57-3-.88-4.53h-1.93a23.81,23.81,0,0,1,.36,2.54,14.54,14.54,0,0,1-.22,2.07l-.54-.06-.55-4.58H165.3v5.13l-.56,0c-.14-1.45-.34-2.91-.39-4.37,0-.91-.32-1.21-1.37-.88.15,1.77.31,3.51.47,5.24l-.68.09c-.3-1.75-.6-3.5-.91-5.33l-1.41.12c.16,1.11.27,2.08.46,3s.44,1.79.67,2.68l-.52.13c-1.21-1.66-1.35-3.68-1.51-5.68l-1.77.59c.69,1.9,1.34,3.72,2,5.53l-.75.29a42.25,42.25,0,0,1-1.83-4.75c-.3-1.11-.72-1.57-1.89-1.42.47,1.93.92,3.8,1.37,5.67l-.82.21L154,190.84c-1.83,2.44.84,4.62-.27,6.78-.23-.19-.57-.33-.62-.54-.37-1.5-.63-3-1-4.52-.1-.39-.56-.68-.85-1a31.22,31.22,0,0,0,1.27,5c.08.29-.17.68-.27,1a3.35,3.35,0,0,1-.69-.84c-.5-1.29-.92-2.62-1.35-3.87l-1.38.54c.18,1.4.36,2.76.54,4.12l-.65.13c-.39-1.54-.79-3.08-1.19-4.63-1.38-.19-2.09.43-1.73,1.59.17.55.4,1.07.57,1.61.33,1,.63,2,1,3l-.67.22-2.41-6-1.6.38c.32,1.73.6,3.29.88,4.84l-.73.17c-.44-1.56-.87-3.12-1.33-4.77l-1.83.53c.28,1.21.58,2.38.8,3.56.05.28-.19.6-.29.91-.27-.22-.67-.39-.77-.67-.41-1.09-.72-2.22-1.06-3.31-2.15.36-2.39.77-1.78,2.57a11.45,11.45,0,0,1,.31,1.67l-.55.2-1.57-3.62c-1.52,1.31.62,2.64-.52,4-.51-1.15-.95-2.17-1.43-3.24l-3.65,1.3c1.86,1.85,1.86,1.85,8.58,3.54ZM261.8,230.17l.18-.41-5.26-2.67.22-.58a25.4,25.4,0,0,1,2.92.91c3.22,1.42,6.41,2.92,9.62,4.36a11.1,11.1,0,0,0,1.73.5c-3.82-2.17-7.86-3.77-11.73-5.73l.26-.61,4.89,1.28-1.56-1.34c.52,0,.71-.06.89,0,4.48.73,8.41,2.83,12.38,4.87a10,10,0,0,0,2.55.57l.1-.48-13.57-6.14.16-.51,3.46.61.08-.62c-1.22-.18-2.43-.46-3.66-.54-1.85-.12-3.73,0-5.59-.17-6.8-.65-13.54-2.14-20.43-1.82-.63,0-1.26,0-2.3,0,6.15,5.38,13,8.3,20.28,10.15l.23-.44-6.16-3.42c1.65-1.55,3.25-1,4.86-.2.89.42,1.81.77,2.7,1.18S260.89,229.74,261.8,230.17Zm10-10.94a3.41,3.41,0,0,0-.94-.32c-3.53.18-7-.56-10.43-1-1.45-.2-3,0-4.37-.34-2.07-.47-4.07-1.77-6.17-.09-.16.12-.58-.05-.86-.13l-3.27-.91.86,2.22-1.34-.57c-.59.36-.88.69-1.19.7-1.3.06-1.85-.7-1.73-2.14-2.94.5-6-1.31-8.63,1,1.06,2.2,3,2.63,5.13,2.72,4.25.18,8.51.18,12.75.43s8.36.92,12.55,1.06A10,10,0,0,0,271.77,219.23ZM106.32,221l.11-.26-3.3-2.43.58-1.59,8.82,3.2.24-.62-5.77-3c.9-1.18,1.74-.41,2.48-.25a29.63,29.63,0,0,1,2.81,1c-1.58-1.66-3.93-1.46-5.06-3.79l4.27.93.09-.2-2.16-1.16.17-.45,5.1,1.39c-.4-.47-.54-.8-.8-.92-2.49-1.27-4.87-3.13-7.92-1.54a10.68,10.68,0,0,1-1.47.52c-5.22,1.82-5.36,2.18-2.75,7.19,0,.09.07.22.15.27a4.94,4.94,0,0,0,1.4,1A27.28,27.28,0,0,0,106.32,221ZM273.94,177a14.26,14.26,0,0,1,0,2.5c-.41,2.06.47,3.26,2.19,4.36,2.5,1.59,4.81,3.5,7.36,5.39.38-1.59.72-3,1-4.29Zm-1.46,44.28c3.24.76,6.54,1.37,9.73,2.34,2,.6,3.83,1.17,5.84.24a3.93,3.93,0,0,1,1.82-.33c2.27.16,2.94-1.59,4.19-3.05a5.23,5.23,0,0,0-.78-.06,49.19,49.19,0,0,1-17.49-.36A3.15,3.15,0,0,0,272.48,221.25Zm5.6,49.85c2.94,1.31,5.15,3.94,8.28,4.84l.56-.73a16.34,16.34,0,0,0-1.43-.9c-.82-.42-1.73-.69-2.5-1.17-1.71-1.08-3.35-2.26-5-3.37-.37-.24-1.09-.59-1.23-.45-.82.79-1.15-.06-1.61-.38-2.42-1.7-4.82-3.42-7.25-5.12a4.49,4.49,0,0,0-.93-.36l-.18.27L277,272.27l-.26.43-2.43-1.05-.24.48,7.07,4,.29-.44-3.71-2.58,1.31-.8ZM294,254.93l.21-.26,6.74,5.45c0-2.52-12.41-11.14-15.66-10.89l15,12.23.44-.48Zm-194.15,1.5-.36.08a11.89,11.89,0,0,0,1.24,2.86c2.9,3.6,6,7.08,8.88,10.67,1.78,2.19,3.43,4.49,5.14,6.74l.38-.2a9.73,9.73,0,0,0-.86-1.81c-2.91-3.89-5.82-7.78-8.81-11.61C103.65,260.86,101.71,258.67,99.84,256.43Zm5.31,44.72c-.54,1.69-1,3.18-1.5,4.74l3-.24c1.19-2.81,3.93-1.36,5.78-2.25C110.69,300.62,109.45,300.26,105.15,301.15Zm54.15,1.22c.8.6,1.77,1.35,2.78,2a1.12,1.12,0,0,0,.81,0c3.54-1,7.06-2,10.61-2.93,2.07-.54,4.17-1,6.26-1.44l-.06-.26Zm-48.87-25.6.13-.56-12.08-17c-1,.55-.55,1.2,0,2,3.53,5,7,10.09,10.59,15.1C109.28,276.59,110,276.61,110.43,276.77Zm187.11-8.57.31,0a6.94,6.94,0,0,0-.93-1.89,22.78,22.78,0,0,0-3.57-3.24c-3.25-2.19-6.6-4.23-9.94-6.28a5.83,5.83,0,0,0-1.59-.44,44.38,44.38,0,0,0,6.18,4.37c2,1.14,3.11,3.26,5.58,3.94C295.11,265.12,296.23,267,297.54,268.2Zm-195,8.56c-.24-.72-.26-1.06-.45-1.27q-4.17-4.73-8.41-9.39c-.24-.26-.71-.32-1.06-.47.35,2.8,2.29,4.41,3.88,6.2S99.56,275.87,102.57,276.76Zm167.76-53.45c4,1.58,7.89,2.7,11.16,5.08l-.13.46H279c2.52,1.43,3.26,1.36,5.33-.43-2.23-1.24-4.51-2.35-6.6-3.74A10.11,10.11,0,0,0,270.33,223.31Zm5.87,87.85-.06-.3,2.92-1.62-.23-.54-4.36.94a4.71,4.71,0,0,1,.25.72c0,.61,0,1.23.07,1.84a16,16,0,0,1-1.68-1.07,9.5,9.5,0,0,1-1.09-1.19l-.38.32,3.72,5.85c1-1.73,1.86-3.2,2.8-4.8ZM294.35,269c0-.28,0-.46-.08-.57a3.69,3.69,0,0,0-.6-.7,81.34,81.34,0,0,0-15.18-9.64,5.2,5.2,0,0,0-1.44-.21Zm-125.74,4.39c3.38,2.26,3.38,2.26,8,2.36l-7-5.16Zm122.22-.11c-.1-.46-.08-.67-.17-.74-4-3-8.09-5.94-12.16-8.87-.23-.17-.67,0-1,0l-.18.47c1,.68,2,1.34,2.94,2,2.95,2.1,5.88,4.23,8.84,6.31A11.28,11.28,0,0,0,290.83,273.31ZM269,255a4.67,4.67,0,0,1,.28,1.13c0,.79.24,2-.17,2.27a3.05,3.05,0,0,1-2.52.34,25.68,25.68,0,0,1-3.92-2.23c.12.55.07,1.25.4,1.63a5.78,5.78,0,0,0,5.24,2.14,2.28,2.28,0,0,0,2.24-2C270.7,257,270.69,255.64,269,255Zm19.22,19.49.35-.34a2.77,2.77,0,0,0-.5-.73c-3.25-2.48-6.5-4.95-9.78-7.4a3.23,3.23,0,0,0-1.15-.46c-.19-.05-.43.1-.65.15.11.26.14.63.34.76,2.42,1.63,4.9,3.18,7.31,4.84C285.58,272.31,286.89,273.44,288.24,274.51Zm3.48-2.83c-1.08-2.49-10.83-9.33-13.25-9.29ZM118.33,303.07c-2.33-2.86-4.25-3.48-6.83-2.29A5.37,5.37,0,0,0,118.33,303.07ZM263.59,249.7a4.23,4.23,0,0,0,.58,1,5.49,5.49,0,0,0,5.4.57c.92-.52,1.69-1.24,1.14-2.36s-1.43-.88-2.71-.5l1.58.95C268.39,250.72,267,250.75,263.59,249.7Zm-5.22,42,.32.59,8.95-.81.06-.47a3.76,3.76,0,0,0-1.15-.4c-2.28,0-4.56,0-6.84.1C259.25,290.78,258.82,291.39,258.37,291.74Zm-31.28-100,.17-.35c-1.81-1.17-3.63-2.31-5.42-3.51-.59-.39-1.05-1.19-1.65-1.3a29.55,29.55,0,0,0-4.11-.24l-.1.39c.56.26,1.34.91,1.66.73,1.05-.6,1.68.06,2.41.48,1.57.91,3.1,1.89,4.69,2.78A21.37,21.37,0,0,0,227.09,191.78Zm19.1-6.22,5.52.48.11-.46-5.26-3.43ZM117.61,300.46c1.87,2.6,3.17,3.16,5.61,2.35C122,300.48,120.11,299.63,117.61,300.46Zm176.6-49.54c-.57-2.23-6.55-6.26-8.49-5.92C288.52,247,291.24,248.86,294.21,250.92Zm-12.67-32.54-3.26-4.44-1.61.75C278.15,216.24,278.55,218.84,281.54,218.38Zm-7.71,59.15.39-.62a50.54,50.54,0,0,0-8.5-5.71l-.35.53Zm7.41-52.3c1.29.82,2.56,1.66,3.87,2.45a1,1,0,0,0,.84,0c1-.65,2-1.36,3-2.05l-.14-.44C286.23,226.62,283.76,225.93,281.24,225.23ZM274,213.43c.22-.75.36-1.26.51-1.76,1.22.74,2,.53,3.16-.79-1.53-1.57-2.75.06-4.11.51l.1-.45-1.41-.44-.19.43Zm1.8,62.79c.21-1.62-4.34-5.24-6.8-5.2ZM223.45,193l-.41.46,6,7.27.33-.26c-1.41-2-2.78-4.08-4.24-6.07A9.31,9.31,0,0,0,223.45,193ZM176.8,217.69l3-3.44h-4.08Zm82.65,58c-1.85-1.87-3.74-3.64-6.34-4.3C255.13,273,256.91,275,259.45,275.72Zm-6.37-16a1.31,1.31,0,0,0-.35,2.15,2.27,2.27,0,0,0,1.49.48,5.3,5.3,0,0,0,.77-2.26c0-.61-.13-1.63-1.3-1.27.1.76.19,1.44.29,2.12l-.26.08Zm-65.62-48.93.29.7,8-3.4-.24-.6ZM290.13,244.2l5.1,4.78C295.52,247.64,292.54,244.59,290.13,244.2Zm-32.67,60.48,3.31,4.75.37-.25C260.62,307.31,260.38,305.25,257.46,304.68Zm26.65-109.92-.37.58a23.44,23.44,0,0,0,3.66,2.09l.82-1.62Zm9.7,45.28,4.64,4.18C299.35,243.29,297.6,241.38,293.81,240Zm-174.88-7.87a7.84,7.84,0,0,0-5.48-4.41Zm155.83-27.66c-1.43-.38-2.54-2.27-4.41-.43C271.88,204.33,273,206.44,274.76,204.51Zm-164.22,5.82c1.14.25,2.07.72,2.89.57a13.71,13.71,0,0,0,3.07-1.34C116.23,208.91,113.83,209,110.54,210.33ZM100.45,295c1,1.38,5.74,3.67,7,3.39Zm152.45-2.57c-.07-1.11-1.69-1.22-4.2-.27C249.39,293,249.43,293,252.9,292.41ZM160.16,202l5.31,2.64.24-.49C164,203.26,162.49,201.71,160.16,202Zm-34.55,10-.14.28a7.54,7.54,0,0,1,1.87,1.66c.73,1.28,1.55.91,2.63.13ZM114.1,197.12l-.1-.37-4.31.87.08.51h4.44l-.72-.66ZM177,186.71a3.42,3.42,0,0,0,4.83-.56ZM257.44,290.9c-1.33.26-2.68-.3-3.42,1.15C255.93,292.86,256.47,292.7,257.44,290.9ZM240,197.69l-.2.72c1.6.47,2.95,1.82,5.29,1.17Zm21.49-4.78.21-.51c-1.24-1.6-2.24-1.9-3.38-.84Zm22,7.09c1.09,2.89-1.27.72-1.62,1.56l1.45,1.08,2.25-1.48ZM197.83,300.47l-.22.24a7.32,7.32,0,0,1,1.31,1.43c.67,1.26.85,1.34,2.26.44C200,301.86,198.93,301.16,197.83,300.47Zm65.47-70-.12.51,4.89,2.08.21-.52ZM236.81,185h3.06l-3.06-1.8Zm-115,25.81.11-.37c-1.61-.29-2.82-1.91-4.78-1.08Zm34.56-23.49-.17.68,4.66,1,.1-.45Zm121.11,18.76c-1-.87-1.91-1.12-2.79,0C275.55,207,276.43,207.17,277.44,206.05Zm1.25,2.27c1.67,1.61,2.17.42,2.79-.41l-.17-.51Zm-14.18-7.12,1.74.76,1.25-1.17-1.89-.93C266.37,201.59,264.93,200.73,264.51,201.2Zm3.3-9.13,2.84,1.12C269.86,192.58,269.81,190.09,267.81,192.07Zm-49.34,25.5,3.1,1.08.14-.42C220.74,217.93,220.33,216,218.47,217.57Zm-14.28,74.82,2.48.42.1-.31L205,290.86Zm4.13-105.87-3.06-.52-.08.42C206.21,186.53,207,187.76,208.32,186.52Zm62.53,15.55h-3.32C269.17,203.46,269.17,203.46,270.85,202.07Zm10.09-1.52c-1-.27-1.63-1.78-3.25-.75C279,200.21,279.72,201.33,280.94,200.55Zm-24.55-8.21-.25.63c.95.35,1.7,1.3,3,.61ZM107,226.15l3-.57-1.92-1.28Zm146.35-29.32.25-.81-2.76-.78-.19.64Zm-49.29,100c-1.8-1.89-2.08-1.93-2.54-.66ZM250.39,198l.18-.65-2.47-.75-.18.65Zm-98.32-9.2,3.51.7C154.47,188.89,153.46,187.75,152.07,188.83Z"/><path class="cls-4" d="M283,160.43q7.23,6.27,14.46,12.55,2.28,2,4.49,4.11a6.59,6.59,0,0,1,.82,1.27l-.35.38a16.2,16.2,0,0,1-1.7-1.06q-16.34-13.27-32.64-26.58a15,15,0,0,0-2.25-1.66,15.74,15.74,0,0,0-2.88-1.19c-1-.3-1.95-.77-1.7-1.83a1.68,1.68,0,0,1,2.19-1.32c.71.23,1.73.59,1.91,1.13.61,1.86,2.28,2.42,3.61,3.39.9.66,1.9,1.18,2.85,1.77,1.82,1.45,3.64,2.89,5.44,4.35S281.08,158.86,283,160.43ZM265,147c-1.41-1.48-1.41-1.48-3.21,0Z"/><path class="cls-4" d="M283,160.43c-1.92-1.57-3.83-3.14-5.75-4.69s-3.62-2.9-5.44-4.35l-.76-1.2c3.42.84,25.86,17.67,26.94,20.53-.5-.34-1-.67-1.49-1-3.9-2.84-7.79-5.7-11.71-8.51A8.92,8.92,0,0,0,283,160.43Z"/><path class="cls-4" d="M103.7,197c-3-3-2.72-6.95-2.76-10.79l.56-.15,2.85,10.76Z"/><path class="cls-4" d="M152.66,185c0-3.38,2.31-9.69,4.2-11.45C157.37,175.18,154,184.42,152.66,185Z"/><path class="cls-4" d="M127,146.51c.18.73.14,1.72.61,2.14a3.72,3.72,0,0,0,2.57,1A5.67,5.67,0,0,0,132.6,148c.09-.09-.46-.87-.82-1.55.18,0,.78-.37,1.08-.2a2.19,2.19,0,0,1,1,1.39c.15,1.64-2.06,3.22-4.27,3.18s-3.54-1.34-3.41-3.17a4.8,4.8,0,0,1,.46-1.26Z"/><path class="cls-4" d="M144.43,175.05c-.32,3.8-.62,7.29-.94,11C141.78,184.11,142.38,176.7,144.43,175.05Z"/><path class="cls-4" d="M170.71,151.18c1.61,0,2.67.73,2.71,1.81s-1,2-2.57,2.17c-2.23.22-3.67-.39-4.33-1.95l1.06.31c.45.14.91.46,1.32.4,1.06-.14,2.1-.45,3.15-.69Z"/><path class="cls-4" d="M202.36,136.79c1.19-.25,2,.56,2.63,1.42a2.37,2.37,0,0,1,.11,1.63,7.89,7.89,0,0,1-3,.42,1.49,1.49,0,0,1-1.44-1.87l3.18,1.19.44-.71-2.1-1.65Z"/><path class="cls-4" d="M155.11,140c-1,1.93-1.93,2.87-3.56,2.62-.44-.07-1.18-.45-1.17-.66,0-.48.33-1.27.68-1.37A37.15,37.15,0,0,1,155.11,140Z"/><path class="cls-4" d="M230.52,155.66c1.73.06,2.65.55,2.68,1.77,0,.36-.85,1-1.37,1.06-1.19.14-2.77-1-2.48-1.76C229.57,156.18,230.32,155.83,230.52,155.66Z"/><path class="cls-4" d="M201.39,149.84h-1.62c.38,1.27,1.17,2.09,2.33,1.72,1.41-.46,1-1.57.22-2.56l.33-.2c.28.22.77.42.8.67a3.82,3.82,0,0,1-.14,2,1.77,1.77,0,0,1-2.54.74,8.43,8.43,0,0,1-2.06-2.29c-.1-.13.33-.93.54-.93a13,13,0,0,1,2.22.24Z"/><path class="cls-4" d="M170.65,141.41c1.27.23,2.19.42,3.13.54.21,0,.45-.16,1.12-.43l-2.8-.83c.67-1,1.69-.73,2.48-.37.54.24.85,1,1.26,1.51a7.15,7.15,0,0,1-2,1A3.14,3.14,0,0,1,170.65,141.41Z"/><path class="cls-4" d="M183.93,177.08c.42,2.1.83,4.2,1.29,6.48-1.86-.49-2.56-3.9-1.72-6.49Z"/><path class="cls-4" d="M243.46,144.21l2,.15-1.59-2.49c1.38-.07,3.23,2,2.66,3.11-.22.43-1.16.66-1.77.66s-.93-.5-1.4-.79Z"/><path class="cls-4" d="M116.09,151.86c-.25.62-.34,1.57-.79,1.79a4,4,0,0,1-2.56.25c-.55-.14-.94-1-1.34-1.52-.07-.1.14-.56.29-.61a1,1,0,0,1,.83.11c1.75,1.34,1.79,1.35,3-.17Z"/><path class="cls-4" d="M100.18,161.56a17.54,17.54,0,0,1-2.56,1.29c-.21.07-.94-.61-1-1-.13-.87,1.16-1.89,2.14-1.71a5,5,0,0,1,1.39.82Z"/><path class="cls-4" d="M218.21,138.34c2.85,1.19,5.34,1.64,7.83-.05.29,1.27-.73,1.46-1.46,1.7C222.26,140.76,219.3,140.09,218.21,138.34Z"/><path class="cls-4" d="M227.15,179.35l1.25,4.54C226.77,183.56,226.32,182.24,227.15,179.35Z"/><path class="cls-4" d="M148.78,154c.72,0,1.76,1.42,1.91-1l.43.56c.06.41.31,1,.13,1.21a1.66,1.66,0,0,1-1.29.57c-.51-.1-.94-.59-1.4-.92Z"/><path class="cls-4" d="M159.54,162.92c.19.71.4,1.42.55,2.13a3.72,3.72,0,0,1-.73.3l-.51-2.23Z"/><path class="cls-4" d="M101.56,348.43l.69-.08c-2.83-6.13-2.79-12.69-3.3-19.28a4.38,4.38,0,0,1,.62.13c.15,2.21,1.73,3.95,1.55,6.41a31.81,31.81,0,0,0,1.66,11.81,4.93,4.93,0,0,1,.09,1.28Z"/><path class="cls-4" d="M81.56,237.27a2.07,2.07,0,0,1-2-1.35,37.85,37.85,0,0,0-3.1-4.23,23,23,0,0,1-2.56-4.18l1.12.44c2.13,2.62,4.28,5.22,6.36,7.87C81.66,236.15,81.52,236.78,81.56,237.27Z"/><path class="cls-4" d="M93.6,308.46l-1.9.41v7.48c-1.59-.62-2-4.12-.76-7.59Z"/><path class="cls-4" d="M297.91,212.28l-4.44-5.55.58-.51c.86.92,1.73,1.83,2.57,2.77.57.64,1.11,1.32,1.66,2Z"/><path class="cls-4" d="M298.88,207.59c-1.45-1.12-2.79-2.3-3.15-4.17l.34-.29,3.13,3.1C299.09,206.68,299,207.13,298.88,207.59Z"/><path class="cls-4" d="M183.7,262.49l-3.84-1.95c1.07-.88,2.24-.52,3.83,1.07Z"/><path class="cls-4" d="M289.91,319.22a5.16,5.16,0,0,1,.54,1.73c-.25,3.1-.47,6.21-.94,9.28-.84,5.49-1.84,10.95-2.8,16.42a5.7,5.7,0,0,1-.61,1.91,1.61,1.61,0,0,1-1.14.71c-.21,0-.69-.63-.69-1,0-3.1,0-6.19.16-9.28a19.89,19.89,0,0,1,.71-3.18l1.12,1.93c1.12-6.34,2.17-12.32,3.23-18.31Z"/><path class="cls-4" d="M125.46,350.93l-5.1-27.63.67-.19a23.14,23.14,0,0,1,1,2.74q2.42,10.35,4.72,20.73a10.71,10.71,0,0,1,.09,3.1c0,.47-.44.91-.68,1.37Z"/><path class="cls-4" d="M179.8,338.2l.23.83,1.17-.36c.07.37.34.87.19,1.11-1.64,2.68-.47,5.46-.31,8.19.13,2.27.52,4.53.74,6.8a5.78,5.78,0,0,1-.2,1.41l-.45.11c-.28-.49-.78-1-.83-1.46q-.72-7.49-1.29-15a5.16,5.16,0,0,1,.41-1.61Z"/><path class="cls-4" d="M187.27,338.26c.38,5.12.77,10.24,1.12,15.36a8.12,8.12,0,0,1-.21,2.3c-.06.26-.56.43-.86.63-.16-.27-.44-.54-.47-.83-.3-3.24-.69-6.48-.81-9.74a52.4,52.4,0,0,1,.45-6.48,5.61,5.61,0,0,1,.52-1.35Z"/><path class="cls-4" d="M193.32,345c1.1,1.62,1.05,8-.07,9.21C192.43,353.19,192.48,346.85,193.32,345Z"/><path class="cls-4" d="M148.68,341.43c-1.1-3.11,1.16-5.89,1.3-8.93.84.8.63,1.78.48,2.72s-.42,2.12-.64,3.18-.41,2-.62,3Z"/><path class="cls-4" d="M134.6,337.1c-.53-2.85,1.08-5.09,2.06-7.52C137.07,332.37,136,334.78,134.6,337.1Z"/><path class="cls-4" d="M216.79,315.42c.21-2.07.4-4.14.65-6.21a.76.76,0,0,1,.63-.43.91.91,0,0,1,.53.63,14.32,14.32,0,0,1-1,6.08Z"/><path class="cls-4" d="M95.4,317.09c-1.45-1.94-1.44-6.87,0-8.32Z"/><path class="cls-4" d="M213.8,316.78a15.83,15.83,0,0,1,.9-7.71l.6.06-.84,7.74Z"/><path class="cls-4" d="M216.71,347.35a12,12,0,0,1,.18-5.94c0-.13.45-.29.63-.24a.72.72,0,0,1,.44.55c-.2,1.89-.45,3.79-.69,5.68Z"/><path class="cls-4" d="M129.37,305.94l.9,5.74C128.69,311.81,127.9,308.82,129.37,305.94Z"/><path class="cls-4" d="M209.35,314.7c0-2-.64-4,.67-5.86v5.92Z"/><path class="cls-4" d="M206.33,337.87a5.21,5.21,0,0,1-.17-5.32C207,333.37,207,333.37,206.33,337.87Z"/><path class="cls-4" d="M149.22,318.29c.18-1.1.32-2.21.58-3.29.07-.3.51-.51.77-.76.21.35.67.8.58,1.05-.39,1.08-.94,2.1-1.44,3.15Z"/><path class="cls-4" d="M127.86,322.8c-.23-1.45-.45-2.79-.71-4.36C129,319.41,129.18,321.27,127.86,322.8Z"/><path class="cls-4" d="M165.58,326.33c-1.44-.76-1.9-1.83-1.25-3,.14-.28.5-.44.76-.65a3.1,3.1,0,0,1,.46,1C165.62,324.49,165.58,325.37,165.58,326.33Z"/><path class="cls-4" d="M115.76,313.56c-1.35-1.92-1.17-4.21.23-4.44Z"/><path class="cls-4" d="M185.06,324.3a5.87,5.87,0,0,1,.28,1.62c-.15,1.18-.42,1.35-2,1.75l1.2-3.24Z"/><path class="cls-4" d="M251.91,314.66c1.63.66,1.85,1.77.81,4Z"/><path class="cls-4" d="M169.93,339.54c1.61,1.48.21,2.6.18,4.06C168.93,342.19,169.43,341.05,169.93,339.54Z"/><path class="cls-4" d="M247.79,342.88c.24-1,.47-2.05.72-3.13C250.06,340.59,249.9,341.55,247.79,342.88Z"/><path class="cls-4" d="M98.22,328c-.11-.87-.29-1.73-.32-2.6,0-.32.33-.65.5-1,.22.29.63.57.63.86,0,.94-.16,1.87-.26,2.81Z"/><path class="cls-4" d="M195.26,326.74l.37-3.65.57.05c.75,1.23,0,2.4-.24,3.59Z"/><path class="cls-4" d="M297.16,327.93c-.14,1.17-.28,2.35-.43,3.52l-.57-.08c.11-1.18-.49-2.46.35-3.54Z"/><path class="cls-4" d="M266.32,324.14c1.09,1.48.92,2.28-.55,3.12C266,326.1,266.15,325.12,266.32,324.14Z"/><path class="cls-4" d="M121.1,339.43l-.62-2.92C122,337,122.16,337.73,121.1,339.43Z"/><path class="cls-4" d="M234.19,249.54c.43.54.57.93.81,1,1,.29,2.1.51,3.15.73.47.09,1.23-.1.6.79.42.24.84.67,1.27.68a4.17,4.17,0,0,1,4,2.69,12.92,12.92,0,0,0,1.62,2.07,3.5,3.5,0,0,1,.72,1.58c-8.54-3.87-15.89-9.55-23.38-15Z"/><path class="cls-4" d="M208.36,255.83c.47.25,1,.47,1.41.76,2.26,1.46,4.49,3,6.79,4.37.53.32,1.31.19,1.94.38s1.34.44,1.38.74c.24,1.94,2.27,1.87,3.2,3,0,.06.61-.31.93-.49l-.13-.58,1.59.51-.69,2.14,7.52,6.8a3.76,3.76,0,0,1-2.94-1.43,55.52,55.52,0,0,0-5.9-5.23c-.3-.24-.9-.14-1.36-.16a4.8,4.8,0,0,1-4.79-3.71,2.25,2.25,0,0,0-.9-1c-2.74-1.94-5.5-3.87-8.25-5.79Z"/><path class="cls-4" d="M221.94,273.94a14.42,14.42,0,0,1-3.21-.85c-6.45-3.41-12.85-6.91-19.27-10.37-.37-.2-.72-.55-1.1-.57-1.53-.1-1.78-1-1.61-2.45,4.93,2.79,9.81,5.58,14.71,8.33,3.19,1.78,6.43,3.49,9.63,5.25a6.67,6.67,0,0,1,.84.67Z"/><path class="cls-4" d="M216.28,248.06c2.56-.83,4.26.73,6.11,1.88.88.54,1.74,1.12,2.63,1.65,2.65,1.57,1.92,1.91,4.82-.3,1,.46.64,1,.14,1.66-.35.42-.67.87-1.24,1.62l-6.61-.57,0-.8,2.36-.19Z"/><path class="cls-4" d="M210.37,252.66a7.88,7.88,0,0,1,2.17.58c3.64,2.21,7.2,4.52,10.84,6.72.49.3,1.24.16,1.87.25a1.47,1.47,0,0,1,.66.21l6.13,4.69-.23.38-21.62-12.16Z"/><path class="cls-4" d="M234.79,248.38c-3.41-1.88-6.48-3.45-9.42-5.24s-5.93-3.93-9.14-6.08C218.53,237.08,231.21,244.88,234.79,248.38Z"/><path class="cls-4" d="M241.8,264l-13.73-8.25.28-.49,3.3,1.84c.68.37,1.38.71,2,1.08.85.48,1.28.25,1.24-1.3l7.22,6.59Z"/><path class="cls-4" d="M178.32,246.18c1.34.34,2.75,2.41,2.41,3.61s-1.87,1.59-3.46,1.35a6.16,6.16,0,0,1-4.05-2.36,5.11,5.11,0,0,1-.55-1.38,26.88,26.88,0,0,0,3.72,1.34,8,8,0,0,0,2.49-.28C178.7,247.72,178.51,247,178.32,246.18Z"/><path class="cls-4" d="M173.06,260.31l-1-1.88c1.35.4,2.33.85,2.34,2.33a3.11,3.11,0,0,1-2.75,3c-2.28.24-3.81-.36-6.07-2.43l.91-1.05c1,.49,1.87.89,2.7,1.27a5.71,5.71,0,0,0,1.56.62,6.45,6.45,0,0,0,1.7-.29Z"/><path class="cls-4" d="M222.46,244.5l-1.36,1.7c1.72,1.23,3.54,2.51,5.36,3.8l-.24.34-3.9-2.4c-.52-.32-1-.86-1.59-.93a6.34,6.34,0,0,1-5.17-3.43c.17,0,.66,0,.94-.18,1.09-.81,1.55-.28,1.93.73.47,1.25,1.17,1.42,2.31.64a13.41,13.41,0,0,1,1.34-.74Z"/><path class="cls-4" d="M168.92,240.66l-1.31-.52.31-.65c.66.1,1.65,0,1.92.35a2.67,2.67,0,0,1,.28,2.21c-.79,1.76-4.91,2-6,.37a1,1,0,0,1-.12-.84,1.15,1.15,0,0,1,.83-.49,4.59,4.59,0,0,1,1.64.35C167.64,242,167.65,242,168.92,240.66Z"/><path class="cls-4" d="M171.94,263.9c2.35,2.32,7.21.48,7.18-2.61,1.27.2,1,1.11.81,1.84-.51,2.12-3.76,3.73-6.34,3.14C172.5,266,171.47,265.6,171.94,263.9Z"/><path class="cls-4" d="M157.81,255.14c.74,2,2.64,2.44,4.93,1l-1.69-.81c1.15-.62,2.12-.67,2.76.33a1.35,1.35,0,0,1-1,2.12,13.17,13.17,0,0,1-4.81-.08C156.64,257.35,156.65,255.89,157.81,255.14Z"/><path class="cls-4" d="M212.68,247.6l-3-1a3.7,3.7,0,0,0,2.75,2.76c1.54.6,1.69-.85,2.24-2.07l.89,1.93c-2.95,1.42-4.19,1.39-5.86-.41-.5-.53-1.05-1.57-.84-2.07a2.47,2.47,0,0,1,2-1A1.78,1.78,0,0,1,212.68,247.6Z"/><path class="cls-4" d="M201.24,255.37c.63.07,1.51-.08,1.82.27a2.3,2.3,0,0,1,.33,1.93c-.93,2.5-4.82,2.87-6.73.41,2.24.61,4.23.86,5.68-1.33l-1.19-.66Z"/><path class="cls-4" d="M197.39,247.85l.63.86c-1.48,1.07-4.07,1.07-5.28-.13a2.59,2.59,0,0,1-.65-1.74c0-.44.54-.87,1.06-1.61.39,2.54,1.11,2.91,3.65,2.31Z"/><path class="cls-4" d="M196.69,238.85l4.39.73-.06.68a10.1,10.1,0,0,0-1.23,0,11,11,0,0,1-1.94.27c-.76-.06-1.76-.14-2.17-.63a3.46,3.46,0,0,1-.21-2.25c0-.17.87-.25,1.34-.37C196.77,237.73,196.74,238.18,196.69,238.85Z"/><path class="cls-4" d="M213.86,239.07c-1.37-.81-2.52-.89-3.53.62-.23.34-1.12.3-1.72.31-.18,0-.57-.5-.52-.61.22-.48.49-1.15.9-1.29a11.7,11.7,0,0,1,3.58-.72c.53,0,1.08.8,1.62,1.24Z"/><path class="cls-4" d="M199.76,250.58c3.56-.22,3.56-.22,4-1.35l-1.43-.38,2-.77a5.37,5.37,0,0,1,.55,1.78,2.3,2.3,0,0,1-2.64,2,17.39,17.39,0,0,1-2.64-.88Z"/><path class="cls-4" d="M173.79,252.09a4.12,4.12,0,0,1-5.48-.12,2,2,0,0,1,.12-3C168.81,252.47,171.5,251.68,173.79,252.09Z"/><path class="cls-4" d="M214.79,252.22l.66-1.09,7.43,5.28-.26.36Z"/><path class="cls-4" d="M203.15,237.69c-.36-1-.59-1.63-.78-2.25s-.47-1.14-.29-1.52.89-.4,1.48-.47c-.8.87-.81,1.5.18,2.14a5,5,0,0,1,1,1.27Z"/><path class="cls-4" d="M206.49,258.46l5.06.68c-.25.32-.46.83-.81,1C208.9,260.83,207.69,259.59,206.49,258.46Z"/><path class="cls-4" d="M197.39,247.85l-.59-.31c.42-1.18.24-1.49-1.45-2.46,1.24-1,2.4-.58,3.35,1.12Z"/><path class="cls-4" d="M158.81,261.39l-4.45-2C155.87,258.28,158.09,259.21,158.81,261.39Z"/><path class="cls-4" d="M246.43,251.69c-1.83-1.29-4.08-2.05-5.06-4.43l5.3,4.1Z"/><path class="cls-4" d="M215.32,258.94l-4.49-3,.34-.51A6.71,6.71,0,0,1,215.32,258.94Z"/><path class="cls-4" d="M173.06,260.31l-.65,1.61c-.34-.38-1.54,0-1-1.21.09-.21-.53-.72-.83-1.1l.22-.39Z"/><path class="cls-4" d="M209.25,263.15l4.87,2.88-.26.45L209,263.71Z"/><path class="cls-4" d="M207.57,232.59c-1,.08-2,.21-3.08.2a3.85,3.85,0,0,1-1.24-.44l.6-.8,3.82.83Z"/><path class="cls-4" d="M200.58,254.51l-4-2.38.28-.48,4.09,2.33Z"/><path class="cls-4" d="M122.25,243.65l-2-.2a10.25,10.25,0,0,1,.79.94c.3.48,1.43.65.58,1.6-.09.1.33.7.56,1,2.29,3.28,4.59,6.53,6.87,9.81a16.64,16.64,0,0,1,.89,1.77c-3-3.49-5.74-6.7-8.54-9.82-2.07-2.3-4.26-4.49-6.39-6.73-.37-.4-1.06-.73-.39-1.45.08-.09-.15-.57-.34-.78-1.6-1.84-3.23-3.65-4.83-5.5a10.85,10.85,0,0,1-.85-1.34l.47-.34,7.47,8.15.4-.34c-.68-2.11-2.7-3.33-3.65-5.32Z"/><path class="cls-4" d="M115.33,249.4l1.83,1.08a4.21,4.21,0,0,0,.07-1.59,27.17,27.17,0,0,0-1.79-3.63,10.12,10.12,0,0,0-1.54-1.75c-1.88-2-3.77-4-5.64-6-.11-.12-.08-.36.19-.76.81.93,1.59,1.9,2.43,2.8,1.84,2,3.49,4.25,5.63,5.81,2.47,1.8,3.25,4.7,5.26,6.76.86.87,1,2.47,1.47,3.88l-4.46-4.88c-.82.62-.8.61.06,1.73.46.59.84,1.23,1.45,2.13-1.81-.8-1.93-3.31-4.39-2.89.41.56,1,1.05.95,1.35-.56,2.12,1.35,2.89,2.2,4.2,1,1.47,2.16,2.79,3.24,4.18a1.2,1.2,0,0,1,.25,1.05c-3.82-4.6-7.65-9.19-11.27-13.54v-2.19l3.42,2Z"/><path class="cls-4" d="M101.87,241.05c-1.28-.05-2.32-.7-2.39-1.93,0-.63.78-1.49,1.43-1.92.4-.28,1.23,0,1.84.13,1.68.41,3.39.86,4.37,2.46a1.72,1.72,0,0,1,.15,1.44c-.77,1.37-3.76,1.36-4.79.06l3.4-.33c-1.26-2.14-3.55-2.88-4.33-1.66.55,1.28,2.66-.93,2.92,1.56C103.37,240,102.53,240,101.87,241.05Z"/><path class="cls-4" d="M106,255.61c1.4-1.26-.32-2-.28-3.16,2.3,2.93,4.59,5.87,7,9C108.69,259.89,108.3,259.55,106,255.61Z"/><path class="cls-4" d="M93.61,248.48l1.76,4a2,2,0,0,1-2.47-1.71C92.72,250,92.28,248.81,93.61,248.48Z"/><path class="cls-4" d="M115.33,249.4l-.64-.27-2-3A2.47,2.47,0,0,1,115.33,249.4Z"/><path class="cls-4" d="M106.4,242.82l2.23,3.11C106.36,245.08,105.57,244,106.4,242.82Z"/><path class="cls-4" d="M132.39,250.15c.84,1.11,1.69,2.21,2.53,3.31l-.38.29-2.61-3.24Z"/><path class="cls-4" d="M91.13,203.24c2,2.11,4.24,3.66,5.51,6.54C95,209.14,91.09,204.56,91.13,203.24Z"/><path class="cls-4" d="M190.3,195.8c1.83,0,5.14,3.71,5.2,5.82Z"/><path class="cls-4" d="M194.66,194.07a12.33,12.33,0,0,1,4.06,6.13l-.42.28-4-6.1Z"/><path class="cls-4" d="M189,197.24c1.17,1.65,2.68,3.1,3.15,5.16l-.42.26-3.39-5Z"/><path class="cls-4" d="M91,206.23A14.35,14.35,0,0,1,94,210.1l-.48.38-3.07-3.78Z"/><path class="cls-4" d="M185.68,198.52c1.71.35,2.8,2.48,2.46,4.52C187.3,201.49,186.55,200.13,185.68,198.52Z"/><path class="cls-4" d="M238.71,208.68c-1.56-.88-9.29-11-9.09-11.86C231.41,197.92,238.72,207.46,238.71,208.68Z"/><path class="cls-4" d="M68.85,233.74c1.85,2.83,4.78,5,5.36,8.8C72.73,242.24,68.51,235.36,68.85,233.74Z"/><path class="cls-4" d="M38.49,76.14c3,4.38,6.06,8.76,9.15,13.08S53.86,97.81,57.1,102s6.53,8.35,9.89,12.46,6.82,8.14,10.25,12.23a142.12,142.12,0,0,1-11.42-11.21c-3.63-3.92-7-8-10.31-12.27s-6.32-8.62-9.16-13.13A144.84,144.84,0,0,1,38.49,76.14Z"/><path class="cls-4" d="M297.15,96.76a27.3,27.3,0,0,1-1.47,4.45q-.89,2.15-2,4.19a45.8,45.8,0,0,1-2.35,4,27.83,27.83,0,0,1-2.85,3.72,27.62,27.62,0,0,1,1.47-4.45,49.3,49.3,0,0,1,4.32-8.17A27.29,27.29,0,0,1,297.15,96.76Z"/><path class="cls-4" d="M228.75,95.48a99.67,99.67,0,0,1,4.51-10.39c1.66-3.39,3.49-6.69,5.41-10s4-6.41,6.18-9.48a101.51,101.51,0,0,1,7-8.9c-1.85,3.31-3.78,6.53-5.71,9.75l-5.77,9.66-5.76,9.66C232.7,89.06,230.79,92.29,228.75,95.48Z"/><path class="cls-4" d="M302.39,128a100.91,100.91,0,0,1,6.34-9.39c2.25-3,4.66-5.94,7.14-8.78s5.1-5.57,7.82-8.19a102.44,102.44,0,0,1,8.53-7.45c-2.42,2.91-4.91,5.72-7.4,8.53l-7.45,8.43-7.44,8.44C307.45,122.44,305,125.26,302.39,128Z"/><path class="cls-4" d="M159.64,89.12c-1.42-3.06-2.65-6.17-3.81-9.31s-2.25-6.3-3.29-9.48-2-6.38-2.87-9.61-1.71-6.48-2.34-9.79c1.42,3.06,2.66,6.17,3.82,9.31s2.25,6.3,3.29,9.48,2,6.38,2.87,9.61S159,85.81,159.64,89.12Z"/><path class="cls-4" d="M244.15,104.5c1.35.63,2.71,1.21,4,1.77l3.81,1.64.17.07,0,.23c.55,2.79,1,5.59,1.51,8.39l-1.16-.38,5.82-6.22.3-.32.46.07,8.41,1.34-1,1.39-4-7.52-.25-.46.25-.47,4-7.52,1,1.39-8.41,1.34-.46.08-.3-.32-5.83-6.23,1.18-.38c-.51,2.8-1,5.6-1.51,8.39l-.05.23-.17.07-3.81,1.65C246.87,103.28,245.5,103.86,244.15,104.5Zm0,0c1.19-.63,2.38-1.31,3.63-2l3.83-2.12-.22.3c.28-2.83.63-5.65,1-8.48l.15-1.38,1,1,6.07,6-.76-.25L267.2,96l1.92-.35-.91,1.75L264.28,105V104l3.93,7.56.91,1.75L267.2,113l-8.38-1.55.76-.24-6.07,6-1,1-.15-1.37c-.32-2.83-.67-5.65-.94-8.48l.21.3-3.83-2.12C246.53,105.8,245.34,105.12,244.15,104.5Z"/><path class="cls-4" d="M105.7,104.5c1.36.63,2.72,1.21,4,1.77l3.81,1.64.18.07,0,.23c.54,2.79,1,5.59,1.51,8.39l-1.17-.38L119.9,110l.3-.32.46.07,8.42,1.34-1,1.39-4-7.52-.25-.46.25-.47,4-7.52,1,1.39-8.42,1.34-.46.08-.3-.32-5.82-6.23,1.17-.38c-.5,2.8-1,5.6-1.51,8.39l0,.23-.18.07-3.81,1.65C108.42,103.28,107.06,103.86,105.7,104.5Zm0,0c1.2-.63,2.38-1.31,3.64-2l3.83-2.12-.22.3c.27-2.83.62-5.65.94-8.48l.16-1.38,1,1,6.08,6-.77-.25L128.75,96l1.93-.35-.91,1.75L125.84,105V104l3.93,7.56.91,1.75-1.93-.35-8.38-1.55.76-.24-6.07,6-1,1-.16-1.37c-.31-2.83-.66-5.65-.94-8.48l.22.3-3.83-2.12C108.08,105.8,106.9,105.12,105.7,104.5Z"/><path class="cls-4" d="M175.46,79c1.35.64,2.71,1.22,4,1.77l3.81,1.65.18.07,0,.23c.54,2.79,1,5.59,1.51,8.39l-1.17-.38,5.82-6.22.3-.32.47.07,8.41,1.34-1,1.39-4-7.52-.25-.46.25-.47,4-7.53,1,1.4-8.41,1.34-.47.08-.3-.32-5.82-6.23,1.17-.38c-.5,2.8-1,5.6-1.51,8.39l0,.23-.18.07-3.81,1.65C178.17,77.82,176.81,78.4,175.46,79Zm0,0c1.19-.62,2.37-1.3,3.63-2l3.83-2.12-.22.3c.28-2.83.63-5.65.94-8.48l.16-1.38,1,1,6.08,6-.77-.25,8.39-1.54,1.92-.35-.91,1.75-3.93,7.56v-.93l3.93,7.56.91,1.75-1.92-.35L190.13,86l.76-.24-6.08,6-1,1-.15-1.37c-.32-2.83-.67-5.65-1-8.48l.22.3L179.09,81C177.84,80.34,176.65,79.66,175.46,79Z"/></g><path class="cls-5" d="M117,420.61v5.29c0,9.36-6,15.48-15.4,15.48H85.19V376.47h15.58c9.37,0,15.39,6.12,15.39,15.49v3.43c0,5.84-2.31,10-6.58,12.42C114.31,410,117,414.4,117,420.61ZM95,385.74v17.62h4.36c4.73,0,7-2.22,7-6.95v-4.64c0-3.8-2.22-6-6-6Zm12.15,33.85c0-4.73-2.23-6.95-7-6.95H95v19.47h6.12c3.8,0,6-2.23,6-6Z"/><path class="cls-5" d="M123.21,410.44v-34H133v34c0,3.81,2.32,5.94,5.47,5.94s5.48-2.13,5.48-5.94v-34h9.64v34c0,9.09-6.12,15.21-15.12,15.21S123.21,419.53,123.21,410.44Z"/><path class="cls-5" d="M183.77,441.38l-7.14-26.8h-5.1v26.8H161.7V376.47h15.39c9.37,0,15.39,6.12,15.39,15.49v7.14c0,6-2.5,10.66-6.77,13.26l8.26,29Zm-12.24-36.07h5.1c3.8,0,6-2.22,6-6v-7.51c0-3.8-2.22-6-6-6h-5.1Z"/><path class="cls-5" d="M220.58,396.69v-5.47c0-4.08-2.31-6.4-5.93-6.4s-5.94,2.32-5.94,6.4v35.42c0,4.08,2.32,6.4,5.94,6.4s5.93-2.32,5.93-6.4v-11.5h-5.93v-9.27h15.76v20.77c0,9.36-6.3,15.67-15.76,15.67s-15.76-6.31-15.76-15.67V391.22c0-9.37,6.3-15.68,15.76-15.68s15.76,6.31,15.76,15.68v5.47Z"/><path class="cls-5" d="M237.65,376.27h27.91v9.27H247.48v14.75h9.93v9.27h-9.93v6.8h18.08v9.27H237.65Z"/><path class="cls-5" d="M293.57,441.38l-7.14-26.8h-5.1v26.8H271.5V376.47h15.39c9.37,0,15.39,6.12,15.39,15.49v7.14c0,6-2.5,10.66-6.77,13.26l8.26,29Zm-12.24-36.07h5.1c3.8,0,6-2.22,6-6v-7.51c0-3.8-2.22-6-6-6h-5.1Z"/><rect class="cls-5" x="124.47" y="431.61" width="27.91" height="10"/><rect class="cls-5" x="237.65" y="431.61" width="27.91" height="10"/></g></g></svg>