<svg width="163" height="216" viewBox="0 0 163 216" fill="none" xmlns="http://www.w3.org/2000/svg">
<g opacity="0.35">
<path opacity="0.35" d="M28.9846 165.129C28.9802 165.213 28.9549 165.295 28.9109 165.368C28.9284 165.286 28.9531 165.206 28.9846 165.129V165.129Z" fill="black"/>
</g>
<path d="M82.2534 86.4584C82.3691 86.4459 82.4849 86.4326 82.5969 86.4164C82.5298 86.4584 82.4628 86.4975 82.3957 86.5395C82.2991 86.482 82.2534 86.4584 82.2534 86.4584Z" fill="#982E20"/>
<path d="M154.322 177.876C152.413 179.999 149.568 181.703 146.298 183.066C134.835 187.847 118.14 188.465 118.14 188.465L98.38 111.784L95.6025 101.005C96.8409 101.256 125.701 99.2688 141.967 105.87C155.536 111.369 163.608 167.55 154.322 177.876Z" fill="white"/>
<g opacity="0.35">
<path opacity="0.35" d="M154.322 177.876C152.413 179.999 149.568 181.703 146.298 183.066C146.15 183.127 146.003 183.188 145.856 183.246C145.648 183.332 145.439 183.414 145.228 183.493C144.989 183.587 144.747 183.679 144.501 183.767C144.35 183.822 144.198 183.876 144.047 183.934C143.417 184.153 142.777 184.365 142.125 184.57C141.845 184.657 141.561 184.744 141.277 184.828C141.196 184.85 141.115 184.876 141.034 184.901C140.841 184.959 140.649 185.016 140.452 185.07L140.253 185.124C139.931 185.213 139.61 185.299 139.285 185.386C138.638 185.554 137.99 185.713 137.339 185.865C137.176 185.903 137.013 185.939 136.854 185.979C136.528 186.053 136.201 186.126 135.879 186.193L135.394 186.296C135.234 186.331 135.071 186.362 134.911 186.396C134.523 186.476 134.139 186.549 133.758 186.621C133.571 186.657 133.389 186.695 133.2 186.726C132.495 186.857 131.8 186.977 131.115 187.087C130.959 187.114 130.806 187.138 130.652 187.161L130.427 187.196C130.305 187.217 130.181 187.236 130.058 187.254C129.789 187.295 129.523 187.336 129.26 187.374L128.462 187.487C127.717 187.589 126.998 187.683 126.303 187.767C126.034 187.801 125.767 187.831 125.507 187.859C125.246 187.886 124.974 187.921 124.717 187.947C124.519 187.97 124.324 187.99 124.136 188.008C123.849 188.041 123.568 188.066 123.294 188.094L122.955 188.126C120.022 188.4 118.143 188.468 118.143 188.468L98.3799 111.784C99.4421 111.75 100.436 111.728 101.344 111.711C104.831 111.645 107.078 111.677 107.078 111.677C107.078 111.677 124.342 107.299 127.648 113.548C132.964 123.585 135.217 130.63 140.572 146.12C141.117 147.697 141.633 149.267 142.12 150.829C143.292 154.595 148.128 155.747 150.782 152.829L150.833 152.773C153.983 149.268 155.134 140.483 154.75 130.188C159.207 148.621 159.937 171.631 154.322 177.876Z" fill="#371A45"/>
</g>
<g opacity="0.35">
<path opacity="0.35" d="M98.5776 100.99L101.341 111.711C100.433 111.728 99.4393 111.75 98.3771 111.785L95.5996 101.006C95.8163 101.05 96.8815 101.023 98.5776 100.99Z" fill="#371A45"/>
</g>
<path d="M118.142 189.946C117.756 189.943 117.386 189.789 117.111 189.517C116.836 189.245 116.679 188.877 116.672 188.49C116.665 188.104 116.809 187.73 117.074 187.449C117.339 187.167 117.703 187 118.089 186.983C118.358 186.973 145.134 185.877 153.219 176.884C157.871 171.711 158.039 151.03 153.588 131.723C150.476 118.223 145.922 109.071 141.411 107.241C128.125 101.853 105.715 102.323 98.3504 102.476C96.0786 102.524 95.6474 102.527 95.3083 102.458C94.9268 102.384 94.5898 102.163 94.3697 101.843C94.1497 101.522 94.0643 101.129 94.132 100.746C94.1997 100.363 94.415 100.022 94.7316 99.797C95.0481 99.5716 95.4405 99.4796 95.8243 99.5407C96.0926 99.5592 97.1585 99.5363 98.287 99.5127C105.806 99.3557 128.671 98.8773 142.523 104.494C150.036 107.541 154.489 122.445 156.475 131.058C160.682 149.304 161.438 172.175 155.422 178.867C146.503 188.79 119.348 189.903 118.197 189.945L118.142 189.946ZM95.8449 99.5444L95.8943 99.5533L95.8449 99.5444Z" fill="#371A45"/>
<path d="M144.012 108.327C143.717 108.327 143.353 108.347 143.015 108.372C142.676 108.397 142.32 108.43 141.972 108.467C141.274 108.547 140.571 108.638 139.875 108.762C138.474 108.999 137.08 109.3 135.698 109.672C134.316 110.045 132.941 110.471 131.593 110.983C130.911 111.22 130.249 111.507 129.576 111.776C128.903 112.045 128.255 112.366 127.59 112.661C128.201 112.272 128.804 111.862 129.427 111.487C130.051 111.111 130.675 110.73 131.321 110.39C132.596 109.671 133.921 109.042 135.264 108.44C136.607 107.838 137.991 107.323 139.404 106.858C140.11 106.623 140.826 106.416 141.549 106.221C141.913 106.126 142.276 106.033 142.647 105.951C143.018 105.868 143.375 105.79 143.804 105.722C143.976 105.69 144.152 105.694 144.323 105.732C144.493 105.77 144.655 105.841 144.797 105.942C144.94 106.043 145.061 106.172 145.153 106.321C145.245 106.469 145.307 106.635 145.334 106.807C145.362 106.98 145.355 107.156 145.313 107.326C145.271 107.496 145.196 107.656 145.092 107.796C144.988 107.936 144.856 108.054 144.706 108.143C144.556 108.232 144.389 108.29 144.216 108.314C144.148 108.322 144.08 108.327 144.012 108.327V108.327Z" fill="#371A45"/>
<path d="M157.108 145.369L143.186 148.668C142.581 148.81 142.041 149.148 141.65 149.631C141.259 150.113 141.04 150.712 141.026 151.332C140.926 156.009 141.254 166.821 146.231 169.618C150.359 171.94 156.267 170.65 159.289 167.143C162.67 163.217 161.401 152.763 160.52 147.627C160.456 147.249 160.315 146.888 160.106 146.567C159.896 146.246 159.623 145.971 159.303 145.759C158.983 145.547 158.624 145.403 158.246 145.336C157.868 145.269 157.481 145.28 157.108 145.369Z" fill="white"/>
<g opacity="0.35">
<path opacity="0.35" d="M141.028 151.331C140.924 156.006 141.255 166.818 146.233 169.611C150.361 171.934 156.267 170.643 159.292 167.136C161.369 164.72 161.689 159.839 161.422 155.24C161.146 157.599 160.442 159.595 159.394 160.996C153.388 169.024 146.794 161.733 146.794 161.733C146.794 161.733 146.188 163.854 145.472 164.083C142.48 165.041 141.59 155.339 141.246 150.309C141.108 150.632 141.033 150.979 141.028 151.331V151.331Z" fill="#371A45"/>
</g>
<path d="M150.962 172.268C149.04 172.268 147.145 171.826 145.508 170.907C140.021 167.824 139.418 157.298 139.547 151.3C139.568 150.351 139.903 149.436 140.501 148.699C141.098 147.961 141.923 147.443 142.847 147.225L156.769 143.929C157.339 143.794 157.931 143.777 158.508 143.88C159.084 143.982 159.634 144.201 160.122 144.524C160.611 144.848 161.028 145.267 161.348 145.758C161.668 146.249 161.884 146.8 161.983 147.377C163.217 154.571 163.946 164.008 160.414 168.109C158.099 170.794 154.484 172.268 150.962 172.268ZM157.449 146.811L143.527 150.107C143.242 150.174 142.988 150.333 142.803 150.56C142.619 150.786 142.515 151.068 142.508 151.36C142.316 160.307 143.983 166.649 146.958 168.322C150.376 170.244 155.508 169.258 158.167 166.172C160.271 163.728 160.605 156.888 159.06 147.874C159.029 147.696 158.962 147.526 158.863 147.375C158.764 147.224 158.635 147.095 158.484 146.995C158.333 146.895 158.164 146.828 157.986 146.796C157.808 146.764 157.625 146.769 157.449 146.811V146.811Z" fill="#371A45"/>
<path d="M153.143 171.734C153.042 171.697 152.98 171.669 152.921 171.642C152.862 171.615 152.796 171.586 152.743 171.557C152.634 171.5 152.518 171.445 152.416 171.384C152.207 171.265 152.004 171.142 151.813 171.008C151.431 170.752 151.067 170.469 150.725 170.162C150.053 169.568 149.452 168.901 148.931 168.172C147.919 166.765 147.159 165.194 146.683 163.528C146.568 163.12 146.472 162.708 146.368 162.301C146.264 161.893 146.213 161.474 146.133 161.064C145.975 160.24 145.904 159.425 145.819 158.602C145.735 157.78 145.696 156.957 145.691 156.133C145.686 155.309 145.712 154.482 145.88 153.678C145.82 154.494 145.914 155.307 146.018 156.111C146.121 156.915 146.284 157.712 146.465 158.501C146.646 159.291 146.834 160.088 147.089 160.843C147.217 161.221 147.31 161.61 147.466 161.975C147.622 162.341 147.754 162.713 147.908 163.075C148.547 164.514 149.397 165.837 150.442 166.922C150.948 167.463 151.516 167.944 152.132 168.356C152.427 168.558 152.737 168.738 153.059 168.895C153.216 168.976 153.373 169.042 153.529 169.106C153.607 169.14 153.681 169.161 153.757 169.19C153.791 169.202 153.826 169.213 153.861 169.221C153.882 169.23 153.904 169.235 153.927 169.237C154.258 169.341 154.534 169.573 154.694 169.88C154.854 170.188 154.886 170.547 154.782 170.878C154.677 171.209 154.446 171.485 154.138 171.645C153.83 171.806 153.471 171.837 153.14 171.733L153.143 171.734Z" fill="#371A45"/>
<path d="M95.0321 203.941C95.0321 203.941 66.8424 204.688 27.4383 205.503L26.0562 183.932C26.0562 183.932 24.8576 162.415 41.0049 155.375C61.7003 146.351 81.2214 168.888 81.2214 168.888L95.0321 203.941Z" fill="white"/>
<path d="M26.0471 207.014L24.5729 184.027C24.5596 183.785 24.278 178.32 26.0471 171.901C28.4199 163.264 33.3881 157.079 40.4158 154.015C49.3349 150.124 59.443 151.321 69.6426 157.479C77.2238 162.054 82.1389 167.682 82.3446 167.919L82.5105 168.111L97.1895 205.369L95.0739 205.425C94.7923 205.433 66.4295 206.182 27.469 206.988L26.0471 207.014ZM51.1092 154.745C47.8357 154.741 44.5973 155.419 41.6003 156.735C26.6051 163.274 27.5214 183.65 27.5354 183.855L28.8261 203.996C61.0087 203.326 85.714 202.703 92.8817 202.522L79.9401 169.675C78.3826 167.968 65.8442 154.745 51.1084 154.745H51.1092Z" fill="#371A45"/>
<path d="M34.9758 205.224L18.5145 206.279C16.9527 206.379 15.3951 206.025 14.0299 205.26C12.6646 204.495 11.55 203.351 10.8205 201.966C6.16628 193.116 -2.53689 173.558 3.63059 160.893C9.5703 148.696 30.1551 150.833 34.3744 179.395" fill="white"/>
<path d="M17.9949 207.777C16.2482 207.777 14.5347 207.299 13.0393 206.397C11.5438 205.494 10.323 204.201 9.5084 202.656C4.10679 192.38 -4.01405 173.206 2.2979 160.245C5.03335 154.627 10.7202 151.604 16.7897 152.541C24.2677 153.696 33.1994 161.301 35.8405 179.18C35.8735 179.374 35.8673 179.574 35.8223 179.766C35.7773 179.958 35.6944 180.139 35.5784 180.299C35.4624 180.458 35.3157 180.593 35.1469 180.696C34.9781 180.798 34.7906 180.865 34.5954 180.894C34.4002 180.923 34.2012 180.913 34.01 180.863C33.8189 180.814 33.6395 180.727 33.4824 180.608C33.3252 180.489 33.1935 180.339 33.0949 180.168C32.9963 179.997 32.9329 179.808 32.9083 179.613C30.503 163.328 22.7707 156.467 16.3371 155.47C11.5067 154.725 7.14962 157.051 4.96259 161.542C-0.991864 173.77 7.99288 193.403 12.1325 201.277C12.7295 202.407 13.6406 203.342 14.7561 203.967C15.8716 204.592 17.144 204.881 18.4202 204.8L34.8808 203.745C35.075 203.733 35.2697 203.759 35.4539 203.821C35.638 203.884 35.808 203.983 35.9541 204.111C36.1002 204.24 36.2196 204.396 36.3054 204.57C36.3912 204.745 36.4417 204.935 36.4542 205.129C36.4666 205.323 36.4407 205.518 36.3779 205.702C36.315 205.886 36.2166 206.056 36.0881 206.202C35.9595 206.349 35.8035 206.468 35.6289 206.554C35.4542 206.639 35.2644 206.69 35.0702 206.702L18.6089 207.757C18.404 207.771 18.1993 207.777 17.9949 207.777Z" fill="#371A45"/>
<g opacity="0.35">
<path opacity="0.35" d="M95.0328 203.94C95.0328 203.94 69.0795 204.626 32.1676 205.404L18.5161 206.279C16.9539 206.38 15.3957 206.027 14.0302 205.261C12.6647 204.496 11.5503 203.351 10.8221 201.965C7.16742 195.016 1.01837 181.473 1.52919 169.845C3.02702 179.354 7.45636 188.936 10.3385 194.414C11.0677 195.799 12.1826 196.943 13.5483 197.708C14.914 198.473 16.472 198.826 18.034 198.724L25.0978 198.17L25.3462 189.482C32.6636 204.169 32.3843 192.483 39.7437 192.012C47.1031 191.54 85.036 196.634 92.0836 196.454L95.0328 203.94Z" fill="#371A45"/>
</g>
<path d="M21.2352 206.105L18.516 206.279C16.9538 206.38 15.3956 206.027 14.0301 205.261C12.6645 204.496 11.5502 203.351 10.8219 201.965C6.16626 193.111 -2.53691 173.559 3.63057 160.892C3.81042 160.522 4.00453 160.165 4.21289 159.822C4.21289 159.822 10.4976 153.324 15.8417 161.603C20.8349 169.338 32.4328 203.035 21.2352 206.105Z" fill="#AFAFB2"/>
<g opacity="0.7">
<path opacity="0.7" d="M18.6634 167.163C18.5315 166.978 18.3995 166.804 18.272 166.647C11.8267 158.434 4.0095 165.032 4.0095 165.032C3.7482 165.379 3.50464 165.739 3.27976 166.111C2.54404 167.324 1.95418 168.619 1.52246 169.97C1.64925 166.74 2.28464 163.652 3.62989 160.893C3.80974 160.523 4.00385 160.167 4.21221 159.823C4.21221 159.823 10.4969 153.325 15.841 161.605C16.6526 162.856 17.6337 164.788 18.6634 167.163Z" fill="white"/>
</g>
<path d="M1.53794 170.73C1.26652 170.73 1.00456 170.63 0.801971 170.449C0.599381 170.268 0.470313 170.02 0.43935 169.75C0.408386 169.48 0.47769 169.209 0.634063 168.987C0.790436 168.765 1.02295 168.608 1.28732 168.547L17.7892 164.693C18.0748 164.627 18.3752 164.676 18.6243 164.831C18.8734 164.986 19.0508 165.233 19.1175 165.519C19.1842 165.804 19.1346 166.105 18.9798 166.354C18.825 166.603 18.5775 166.78 18.2919 166.847L1.79077 170.701C1.70788 170.72 1.62305 170.73 1.53794 170.73V170.73Z" fill="#371A45"/>
<path d="M2.22199 179.735C1.9476 179.735 1.68305 179.633 1.47976 179.448C1.27647 179.264 1.14897 179.011 1.12204 178.738C1.09511 178.465 1.17068 178.191 1.33405 177.971C1.49742 177.75 1.73693 177.599 2.00602 177.545L21.351 173.671C21.6358 173.62 21.9294 173.683 22.1686 173.846C22.4079 174.009 22.5737 174.259 22.6305 174.543C22.6874 174.826 22.6307 175.121 22.4726 175.364C22.3145 175.606 22.0677 175.777 21.7851 175.839L2.44018 179.714C2.36835 179.728 2.29525 179.735 2.22199 179.735V179.735Z" fill="#371A45"/>
<path d="M4.50924 188.452C4.23326 188.453 3.96702 188.35 3.76285 188.164C3.55869 187.979 3.43135 187.723 3.40585 187.449C3.38036 187.174 3.45855 186.899 3.62508 186.679C3.7916 186.459 4.03441 186.309 4.30579 186.259L23.9581 182.565C24.1019 182.536 24.25 182.535 24.3939 182.564C24.5379 182.592 24.6747 182.649 24.7965 182.731C24.9183 182.813 25.0226 182.918 25.1033 183.04C25.184 183.163 25.2395 183.3 25.2666 183.444C25.2937 183.589 25.2919 183.737 25.2611 183.88C25.2304 184.024 25.1714 184.16 25.0877 184.28C25.0039 184.4 24.897 184.503 24.7732 184.582C24.6493 184.66 24.5111 184.714 24.3665 184.738L4.71415 188.433C4.64656 188.445 4.57798 188.452 4.50924 188.452V188.452Z" fill="#371A45"/>
<path d="M8.26719 197.877C7.98817 197.877 7.71927 197.772 7.51442 197.583C7.30956 197.394 7.18391 197.134 7.16264 196.855C7.14138 196.577 7.22608 196.301 7.39976 196.083C7.57345 195.865 7.82327 195.72 8.09912 195.678L25.7052 192.946C25.85 192.92 25.9983 192.924 26.1415 192.957C26.2848 192.99 26.42 193.051 26.5394 193.136C26.6588 193.222 26.7599 193.331 26.8369 193.456C26.9139 193.581 26.9651 193.72 26.9876 193.865C27.0102 194.01 27.0035 194.159 26.9681 194.301C26.9327 194.444 26.8693 194.578 26.7814 194.696C26.6936 194.814 26.5832 194.913 26.4566 194.987C26.33 195.062 26.1899 195.111 26.0443 195.13L8.43819 197.863C8.38167 197.872 8.32448 197.877 8.26719 197.877V197.877Z" fill="#371A45"/>
<g opacity="0.35">
<path opacity="0.35" d="M21.2351 206.105L18.5159 206.279C16.9537 206.38 15.3955 206.027 14.03 205.261C12.6644 204.496 11.5501 203.351 10.8218 201.965C9.61809 199.67 8.1409 196.662 6.71899 193.237C8.52567 195.842 11.9525 197.348 15.5932 197.114L18.8365 196.906C23.3978 195.811 24.8433 191.177 24.5315 185.243C26.7318 195.15 26.9028 204.55 21.2351 206.105Z" fill="#371A45"/>
</g>
<path d="M17.9958 207.585C16.2839 207.585 14.6045 207.117 13.1391 206.232C11.6736 205.347 10.4777 204.079 9.68033 202.564C4.29494 192.318 -3.80232 173.211 2.4713 160.327C2.66737 159.924 2.88261 159.528 3.11038 159.153L3.18409 159.029L3.28435 158.925C3.40966 158.796 6.39056 155.756 10.2759 156.14C12.8072 156.389 15.0443 157.992 16.924 160.904C21.0157 167.244 30.2548 192.324 26.2596 202.779C25.3286 205.212 23.7534 206.753 21.5752 207.35L21.4477 207.384L18.5965 207.567C18.3965 207.579 18.1963 207.585 17.9958 207.585ZM5.23329 160.63C5.07702 160.896 4.92812 161.173 4.79102 161.455C-1.20103 173.765 7.81321 193.464 11.9639 201.365C12.5771 202.53 13.5143 203.492 14.6623 204.135C15.8104 204.779 17.1202 205.076 18.4336 204.992L21.0135 204.826C22.3109 204.43 23.2404 203.458 23.8515 201.858C27.2547 192.954 19.0454 168.943 14.7591 162.304C13.3313 160.092 11.7443 158.883 10.0415 158.709C7.71443 158.476 5.68883 160.207 5.23329 160.63Z" fill="#371A45"/>
<path d="M19.4478 207.81C19.0856 207.81 18.7237 207.791 18.3635 207.753C18.1699 207.733 17.9821 207.675 17.8109 207.582C17.6397 207.49 17.4884 207.364 17.3657 207.213C17.243 207.062 17.1512 206.888 17.0956 206.702C17.0401 206.515 17.0218 206.32 17.0418 206.126C17.0618 205.932 17.1198 205.745 17.2124 205.573C17.305 205.402 17.4304 205.251 17.5815 205.128C17.7326 205.006 17.9063 204.914 18.0928 204.858C18.2794 204.803 18.475 204.784 18.6686 204.804C19.4854 204.888 20.2166 204.845 20.8453 204.674C21.034 204.62 21.2316 204.604 21.4265 204.627C21.6215 204.649 21.8099 204.711 21.981 204.807C22.152 204.903 22.3022 205.033 22.4229 205.187C22.5436 205.342 22.6323 205.52 22.684 205.709C22.7356 205.898 22.7491 206.096 22.7237 206.291C22.6983 206.485 22.6345 206.673 22.536 206.843C22.4375 207.012 22.3063 207.161 22.15 207.28C21.9936 207.398 21.8152 207.485 21.6252 207.534C20.9149 207.722 20.1826 207.815 19.4478 207.81V207.81Z" fill="#371A45"/>
<path d="M120.708 210.283C109.662 212.927 93.2038 207.078 93.2038 207.078L91.2489 187.596C91.2489 187.596 90.6659 181.666 93.0645 175.893L48.813 179.166C48.813 179.166 55.8996 144.939 58.5533 122.621C58.6181 122.076 58.6801 121.542 58.739 121.015C59.827 111.285 112.922 94.5954 112.922 94.5954C112.922 94.5954 115.208 98.5154 118.515 104.763C123.831 114.801 131.783 130.851 137.14 146.337C138.565 150.465 139.804 154.55 140.762 158.473C141.564 161.751 142.166 164.915 142.512 167.892C145.992 197.803 133.941 207.121 120.708 210.283Z" fill="white"/>
<path d="M114.154 212.453C104.048 212.453 93.2627 208.671 92.704 208.472L91.8194 208.158L89.7725 187.743C89.754 187.556 89.3435 183.16 90.7307 178.144C92.6059 171.348 96.8776 166.706 103.083 164.721C103.269 164.657 103.466 164.632 103.662 164.646C103.859 164.66 104.05 164.713 104.226 164.801C104.401 164.89 104.558 165.012 104.685 165.162C104.813 165.312 104.91 165.485 104.97 165.673C105.03 165.86 105.052 166.058 105.035 166.254C105.018 166.45 104.962 166.64 104.87 166.814C104.779 166.988 104.653 167.143 104.502 167.268C104.35 167.393 104.175 167.487 103.986 167.544C91.3565 171.585 92.6634 186.806 92.7254 187.452L94.5822 205.973C98.0931 207.106 111.3 211.009 120.365 208.84C130.98 206.3 144.678 199.31 141.041 168.067C138.103 142.821 116.137 103.243 112.233 96.3704C108.744 97.499 97.7437 101.129 86.7783 105.537C62.6679 115.227 60.3489 119.958 60.2125 121.178C58.7287 134.438 55.5053 152.487 53.0624 165.293L50.7619 176.998C50.7244 177.189 50.6496 177.371 50.5419 177.533C50.4342 177.695 50.2956 177.834 50.1341 177.942C49.9725 178.051 49.7912 178.127 49.6004 178.165C49.4097 178.203 49.2132 178.204 49.0223 178.166C48.8314 178.129 48.6497 178.054 48.4876 177.946C48.3256 177.839 48.1863 177.7 48.0778 177.539C47.9694 177.377 47.8937 177.196 47.8553 177.005C47.8169 176.814 47.8165 176.618 47.854 176.427L50.1508 164.732C52.5833 151.985 55.792 134.016 57.2655 120.849C57.6002 117.863 60.9098 112.741 85.6859 102.782C98.9953 97.4334 112.345 93.2229 112.477 93.1809L113.606 92.8264L114.202 93.848C115.282 95.6997 140.702 139.524 143.982 167.726C146.917 192.935 139.416 207.33 121.051 211.724C118.888 212.242 116.539 212.453 114.154 212.453Z" fill="#371A45"/>
<path d="M111.072 206.87C111.072 206.87 96.0189 214.587 91.151 213.955C86.283 213.323 88.9684 162.472 88.9684 162.472C88.9684 162.472 99.5954 159.161 103.955 170.368C105.765 175.02 103.948 180.734 104.928 185.543" fill="white"/>
<g opacity="0.35">
<path opacity="0.35" d="M118.515 104.763C110.026 114.644 98.4554 121.375 85.6706 123.872C84.5856 124.082 83.4942 124.262 82.3964 124.413C76.7897 125.174 71.1011 125.099 65.5163 124.192C63.1639 123.812 60.8372 123.287 58.5498 122.62C58.6147 122.075 58.6766 121.542 58.7356 121.014C59.8235 111.284 112.919 94.5947 112.919 94.5947C112.919 94.5947 115.208 98.5155 118.515 104.763Z" fill="#371A45"/>
</g>
<path d="M26.3633 93.2517C31.9023 101.691 39.52 108.564 48.4835 113.208C50.3679 114.184 52.3032 115.059 54.2809 115.829C55.2517 116.21 56.2446 116.566 57.2508 116.901C60.2394 117.888 63.3021 118.636 66.4095 119.136C72.1316 120.063 77.9593 120.14 83.7038 119.363C84.8301 119.208 85.9488 119.023 87.0599 118.808C107.387 114.84 125.033 100.307 131.978 79.2368C142.214 48.2041 125.349 14.7463 94.3183 4.50988C88.5011 2.58551 82.4198 1.5781 76.2928 1.5238C75.5947 1.51201 74.8923 1.52381 74.1935 1.54371C72.3207 1.59285 70.4624 1.72995 68.6186 1.95502C60.1487 3.0031 52.0035 5.86148 44.736 10.3361C43.589 11.0412 42.4659 11.7862 41.3666 12.571C31.1462 19.8742 23.518 30.2433 19.5884 42.1745C13.6988 60.0268 16.7807 78.6766 26.3633 93.2517Z" fill="white"/>
<path d="M75.8242 120.047C75.3141 120.047 74.8057 120.041 74.2991 120.028C71.6455 119.959 68.9996 119.711 66.3795 119.286C63.2652 118.783 60.1957 118.034 57.2001 117.045C56.0944 116.677 55.1222 116.323 54.2222 115.97C52.2399 115.197 50.3 114.32 48.4107 113.343C39.4293 108.679 31.7936 101.79 26.233 93.335C16.2082 78.0891 13.7366 59.4275 19.4434 42.1251C23.384 30.1644 31.0317 19.7697 41.2776 12.4479C42.3567 11.6762 43.4934 10.9221 44.6551 10.2071C51.9406 5.72135 60.1059 2.85546 68.5967 1.80391C70.4395 1.57909 72.317 1.43977 74.1863 1.39112C74.9234 1.3668 75.6303 1.36016 76.293 1.37196C82.4353 1.426 88.5318 2.43591 94.3635 4.3654C125.428 14.6114 142.365 48.224 132.12 79.2855C125.412 99.644 108.154 114.846 87.0859 118.959C85.975 119.173 84.8436 119.36 83.7217 119.516C81.104 119.869 78.4656 120.047 75.8242 120.047V120.047ZM75.6473 1.67123C75.1792 1.67123 74.689 1.68007 74.1929 1.69629C72.3317 1.74494 70.4609 1.88278 68.6314 2.10687C60.1843 3.15295 52.0611 6.00373 44.8128 10.4658C43.657 11.1771 42.5278 11.9275 41.4523 12.6948C31.2596 19.9808 23.6514 30.3228 19.7301 42.2224C14.0543 59.4319 16.5156 78.0014 26.4858 93.1684C32.0175 101.579 39.6134 108.432 48.5478 113.071C50.4277 114.044 52.358 114.917 54.3305 115.685C55.2261 116.036 56.1954 116.386 57.2937 116.755C60.2748 117.738 63.3292 118.483 66.4281 118.983C72.135 119.909 77.9474 119.985 83.6767 119.211C84.7927 119.056 85.919 118.87 87.0247 118.657C107.983 114.565 125.15 99.4413 131.826 79.1874C142.018 48.2845 125.168 14.8487 94.264 4.65361C88.462 2.73398 82.3966 1.72905 76.2856 1.67491C76.0807 1.67344 75.8677 1.67123 75.6502 1.67123H75.6473Z" fill="#371A45"/>
<g opacity="0.35">
<path opacity="0.35" d="M131.974 79.2354C125.032 100.307 107.384 114.838 87.0556 118.807C85.945 119.023 84.827 119.208 83.7017 119.363C74.8115 120.555 65.7666 119.714 57.2487 116.903C56.244 116.562 55.2518 116.21 54.2796 115.831C52.3023 115.059 50.3671 114.183 48.4821 113.207C39.5184 108.564 31.901 101.691 26.3634 93.2502C23.3735 88.7033 21.0216 83.7677 19.3733 78.5815C26.0792 88.2831 35.5368 95.754 46.5273 100.032C47.4959 100.413 48.488 100.764 49.4964 101.103C58.0116 103.925 67.0583 104.767 75.9479 103.565C77.0757 103.408 78.1947 103.223 79.3048 103.007C99.6331 99.0418 117.277 84.5094 124.223 63.4359C128.14 51.6238 128.213 38.8744 124.433 27.0178C134.616 41.755 138.018 60.9172 131.974 79.2354Z" fill="#371A45"/>
</g>
<path d="M75.824 121.072C75.305 121.072 74.789 121.065 74.276 121.051C68.3606 120.894 62.4999 119.873 56.88 118.02C55.7544 117.641 54.7645 117.283 53.849 116.925C51.8335 116.14 49.8611 115.248 47.9402 114.254C38.8027 109.51 31.0343 102.502 25.377 93.8996C15.1826 78.3914 12.6654 59.4024 18.4702 41.8059C22.479 29.6383 30.2585 19.0635 40.6811 11.6142C41.7801 10.8285 42.9366 10.0611 44.1182 9.33358C51.5291 4.76999 59.8348 1.85385 68.4719 0.782998C70.3442 0.554491 72.257 0.414438 74.1595 0.363577C74.904 0.338515 75.6301 0.33188 76.3105 0.343673C82.5556 0.399407 88.754 1.42671 94.6832 3.38871C126.285 13.8138 143.515 48.0029 133.093 79.6024C126.266 100.315 108.713 115.777 87.2825 119.96C86.1517 120.182 85.0018 120.369 83.8622 120.527C81.198 120.888 78.5126 121.07 75.824 121.072V121.072ZM75.65 2.69582C75.1908 2.69582 74.7161 2.70393 74.2296 2.72015C72.3934 2.76806 70.5558 2.90369 68.7587 3.12335C60.4579 4.1512 52.4754 6.95273 45.3529 11.3378C44.2163 12.0373 43.1054 12.7745 42.0506 13.5285C32.035 20.6877 24.5592 30.8501 20.7066 42.543C15.1273 59.454 17.5473 77.7036 27.3407 92.6052C32.7756 100.871 40.2393 107.604 49.0186 112.162C50.8658 113.119 52.7627 113.976 54.7011 114.731C55.5856 115.078 56.5365 115.422 57.6186 115.785C60.5465 116.751 63.5464 117.482 66.5901 117.973C72.198 118.882 77.9096 118.957 83.5394 118.194C84.634 118.042 85.7426 117.859 86.8299 117.649C107.424 113.629 124.293 98.7675 130.853 78.8653C140.868 48.496 124.31 15.6426 93.9424 5.62514C88.2416 3.73867 82.2819 2.75115 76.2773 2.69803C76.0738 2.69803 75.8638 2.69582 75.65 2.69582Z" fill="#371A45"/>
<path d="M75.8242 121.413C75.3033 121.413 74.7829 121.406 74.263 121.393C71.5482 121.323 68.8412 121.07 66.1606 120.635C62.9748 120.121 59.8349 119.355 56.7704 118.344C55.6367 117.964 54.6423 117.607 53.7209 117.243C51.6947 116.453 49.7117 115.557 47.7805 114.557C38.591 109.786 30.7786 102.738 25.0897 94.0861C14.8379 78.4909 12.3059 59.3958 18.1439 41.6983C22.1753 29.4622 29.9981 18.8277 40.4786 11.3356C41.5843 10.5454 42.7474 9.77364 43.9357 9.04242C51.3897 4.45359 59.7438 1.52232 68.4309 0.447606C70.3135 0.216888 72.2374 0.0753579 74.1509 0.0252338C74.8991 0.000171725 75.6303 -0.00572217 76.3166 0.00533462C82.596 0.0615313 88.8284 1.0943 94.7903 3.06659C126.57 13.5514 143.899 47.9343 133.415 79.7123C126.551 100.54 108.898 116.091 87.3454 120.299C86.2073 120.52 85.0522 120.709 83.9067 120.868C81.2278 121.23 78.5275 121.412 75.8242 121.413ZM75.648 3.03711C75.1915 3.03711 74.7217 3.04521 74.2387 3.06143C72.4113 3.10934 70.5848 3.24423 68.798 3.46242C60.5461 4.4845 52.6106 7.26968 45.5301 11.629C44.4001 12.3241 43.2959 13.0568 42.2477 13.8064C32.2905 20.9229 24.8584 31.0256 21.029 42.6499C15.4829 59.4621 17.8881 77.6012 27.6277 92.418C33.0307 100.634 40.4502 107.328 49.1773 111.86C51.0139 112.81 52.8997 113.663 54.8266 114.414C55.7045 114.758 56.6525 115.1 57.7294 115.462C60.6402 116.421 63.6226 117.148 66.6485 117.636C72.2235 118.54 77.9016 118.615 83.4983 117.857C84.5856 117.709 85.6883 117.524 86.7704 117.315C107.242 113.318 124.012 98.5449 130.533 78.7636C140.489 48.5734 124.032 15.9124 93.8394 5.95168C88.1723 4.07686 82.2479 3.09556 76.279 3.043C76.0726 3.03932 75.8625 3.03711 75.6502 3.03711H75.648Z" fill="#371A45"/>
<path d="M36.2458 104.75C72.8453 125.938 118.361 104.719 117.286 62.847C116.554 34.3595 88.0963 13.0818 60.7801 15.5372C40.8993 17.3247 22.2723 27.766 16.6104 59.3795C16.6104 59.3795 16.2655 73.7615 20.9373 82.9187C25.6092 92.076 31.6993 100.192 31.6993 100.192L36.2458 104.75Z" fill="#371A45"/>
<path d="M117.285 62.8469C118.362 104.715 72.8438 125.936 36.2451 104.751L35.3245 103.826C73.9082 107.365 109.838 81.3789 109.537 39.0233C114.194 45.9514 117.057 54.0561 117.285 62.8469Z" fill="#220F2D"/>
<path d="M66.4915 120.657H66.2851L66.1664 120.638C62.9792 120.124 59.8377 119.358 56.7719 118.347C55.6389 117.967 54.6445 117.61 53.7231 117.246C51.6969 116.456 49.7139 115.56 47.7827 114.56C38.5932 109.789 30.7808 102.741 25.0919 94.089C14.8401 78.4938 12.3081 59.3987 18.1461 41.7012C21.5083 31.4805 27.5327 22.3401 35.5996 15.2202L35.7175 15.1163L35.8546 15.0381C42.6575 11.1874 50.7348 8.81905 59.8626 7.99863C76.119 6.5384 93.4576 12.4619 106.238 23.8467C117.982 34.3094 124.655 48.0898 125.03 62.6501C125.435 78.4746 120.146 92.4769 109.735 103.144C98.871 114.274 83.1128 120.657 66.4915 120.657ZM37.4888 17.6077C29.8862 24.3551 24.2075 32.9968 21.0312 42.6528C15.4851 59.465 17.8903 77.6041 27.6299 92.4209C33.0329 100.637 40.4524 107.331 49.1795 111.862C51.0161 112.813 52.9019 113.666 54.8288 114.417C55.7067 114.761 56.6547 115.103 57.7316 115.465C60.6033 116.412 63.5448 117.132 66.5291 117.619C82.3241 117.61 97.2729 111.565 107.561 101.025C117.386 90.9585 122.377 77.7169 121.992 62.7312C121.641 49.0208 115.328 36.0158 104.217 26.1178C92.0548 15.2821 75.5713 9.63946 60.1375 11.0275C51.4992 11.8 43.8841 14.0143 37.4888 17.6077Z" fill="#371A45"/>
<path d="M66.6456 114.585C56.0783 114.585 45.2876 111.739 35.4854 106.064L35.3122 105.964L30.4833 101.103C30.2319 100.768 24.262 92.774 19.585 83.6087C14.7937 74.2178 15.0775 59.9471 15.0886 59.3434L15.1121 59.112C20.0634 31.4648 35.3829 16.2949 60.6403 14.0246C75.1527 12.7199 90.6219 18.005 102.026 28.1648C112.509 37.5041 118.464 49.8066 118.801 62.8094C119.283 81.5808 110.579 97.6803 94.9186 106.979C86.3754 112.055 76.6093 114.585 66.6456 114.585ZM37.1793 103.535C55.2387 113.912 76.7537 114.235 93.3743 104.365C108.059 95.6451 116.221 80.526 115.768 62.886C115.455 50.7331 109.859 39.2053 100.009 30.4336C89.2199 20.823 74.6014 15.821 60.9167 17.0512C37.2257 19.1807 22.8298 33.4713 18.1277 59.5284C18.1107 60.8722 18.0628 73.9421 22.2909 82.2317C26.5965 90.6673 32.2015 98.3223 32.8502 99.1973L37.1793 103.535Z" fill="#371A45"/>
<path d="M130.068 82.0457C138.522 81.2495 144.487 71.1719 143.392 59.5368C142.296 47.9017 134.554 39.115 126.1 39.9112C117.646 40.7073 111.68 50.7849 112.776 62.42C113.872 74.0552 121.614 82.8419 130.068 82.0457Z" fill="white"/>
<path d="M128.979 83.6168C126.162 83.6168 123.373 82.6836 120.797 80.8607C115.917 77.408 112.513 71.3179 111.457 64.1524C109.642 51.8329 115.585 40.3589 124.713 38.5744C128.355 37.8631 132.043 38.7321 135.374 41.0894C140.253 44.5421 143.658 50.6314 144.714 57.7977C146.529 70.1172 140.586 81.5904 131.458 83.3757C130.641 83.5356 129.811 83.6163 128.979 83.6168V83.6168ZM127.171 41.3754C126.541 41.3756 125.912 41.4366 125.294 41.5575C117.739 43.0317 112.88 52.971 114.459 63.7101C115.38 69.9646 118.404 75.4495 122.547 78.3788C125.184 80.2445 128.062 80.9403 130.871 80.3919C138.427 78.9177 143.287 68.9783 141.707 58.24C140.786 51.9855 137.761 46.5006 133.618 43.5713C131.567 42.1192 129.368 41.3754 127.171 41.3754V41.3754Z" fill="#371A45"/>
<path d="M134.25 78.7554C141.158 78.3426 146.308 70.5022 145.755 61.2434C145.202 51.9845 139.154 44.8134 132.247 45.2262C125.34 45.6389 120.189 53.4793 120.742 62.7382C121.295 71.997 127.343 79.1682 134.25 78.7554Z" fill="white"/>
<path d="M133.711 78.9479C132.588 78.9438 131.475 78.7491 130.417 78.3722C123.6 75.9832 119.31 66.7021 120.853 57.6835C121.717 52.6335 124.244 48.5432 127.782 46.4586C130.386 44.9247 133.254 44.6372 136.074 45.6249C142.891 48.0147 147.181 57.2957 145.638 66.3137L145.481 66.2871L145.638 66.3137C144.774 71.3644 142.247 75.4539 138.709 77.5392C137.118 78.4761 135.428 78.9479 133.711 78.9479ZM132.781 45.3677C131.119 45.3677 129.483 45.8247 127.942 46.7321C124.484 48.768 122.014 52.7765 121.167 57.7373C119.648 66.61 123.845 75.7326 130.522 78.0729C133.249 79.0312 136.026 78.7496 138.548 77.2621C142.006 75.2254 144.476 71.2177 145.324 66.2569C146.842 57.3842 142.645 48.2616 135.968 45.9212C134.945 45.5578 133.867 45.3706 132.781 45.3677Z" fill="#371A45"/>
<g opacity="0.35">
<path opacity="0.35" d="M122.574 70.7621C121.357 67.8225 120.941 64.5379 121.227 61.3543C124.568 67.824 131.178 69.6904 136.513 65.4342C139.963 62.6855 142.087 58.0085 142.527 53.0823C142.741 53.4885 142.938 53.9204 143.123 54.3657C146.219 61.8533 144.13 71.5936 138.454 76.121C132.779 80.6484 125.67 78.2454 122.574 70.7621Z" fill="#371A45"/>
</g>
<path d="M134.106 80.2931C132.023 80.2931 129.95 79.5987 128.023 78.241C124.082 75.4642 121.209 70.1762 120.337 64.0942C118.876 53.9072 123.433 44.4492 130.497 43.0126C133.202 42.4619 135.959 43.1054 138.468 44.8738C142.409 47.6498 145.283 52.9379 146.155 59.0199C147.616 69.2068 143.059 78.6648 135.995 80.1015C135.373 80.2287 134.74 80.2929 134.106 80.2931ZM132.367 45.8608C131.942 45.8607 131.519 45.9032 131.103 45.9876C125.588 47.111 122.11 55.0402 123.344 63.663C124.099 68.9326 126.503 73.4541 129.773 75.7576C131.581 77.0321 133.523 77.5046 135.388 77.125C140.903 76.0016 144.381 68.0732 143.148 59.4496C142.392 54.1799 139.989 49.6592 136.719 47.3549C135.316 46.3665 133.835 45.8608 132.367 45.8608Z" fill="#371A45"/>
<g opacity="0.5">
<path opacity="0.5" d="M75.7447 24.6443C75.7447 24.6443 49.1789 28.7508 35.8665 45.4539L35.8252 45.507C33.0296 49.0302 31.2231 53.2347 30.5917 57.6878C29.7499 63.573 30.0315 67.7517 30.4214 71.4219C31.6118 82.5811 34.2544 87.5869 34.2544 87.5869C27.2783 82.3681 22.9875 76.0561 21.9032 66.7706C21.7986 65.8551 21.7249 64.9072 21.6821 63.932C21.6711 63.7108 21.6652 63.4846 21.6622 63.259C21.657 63.259 21.6622 63.2524 21.6622 63.2457C21.7238 60.7337 21.936 58.2277 22.2976 55.7411C23.5787 46.9325 27.2533 35.2293 37.4535 28.8923C56.5279 17.0424 76.5393 23.3808 75.7447 24.6443Z" fill="white"/>
</g>
<g opacity="0.5">
<path opacity="0.5" d="M101.841 58.5978C105.917 57.0274 107.738 51.9037 105.908 47.1536C104.078 42.4036 99.2901 39.826 95.214 41.3964C91.1379 42.9667 89.317 48.0905 91.1471 52.8405C92.9771 57.5906 97.765 60.1682 101.841 58.5978Z" fill="white"/>
</g>
<g opacity="0.5">
<path opacity="0.5" d="M106.21 69.0523C107.833 68.2641 108.403 66.0925 107.485 64.2019C106.567 62.3113 104.507 61.4177 102.884 62.2059C101.262 62.9941 100.691 65.1657 101.609 67.0563C102.528 68.9468 104.588 69.8405 106.21 69.0523Z" fill="white"/>
</g>
<g opacity="0.35">
<path opacity="0.35" d="M93.2037 207.078C93.2037 207.078 98.1608 208.839 104.457 209.989C99.7788 212.053 93.873 214.307 91.1508 213.955C89.4083 213.729 88.6336 207.067 88.3594 198.604C88.8016 202.642 89.5152 205.296 90.6054 205.436C91.2511 205.519 92.0796 205.456 93.0231 205.289L93.2037 207.078Z" fill="#371A45"/>
</g>
<g opacity="0.35">
<path opacity="0.35" d="M108.443 199.381C108.587 199.308 108.727 199.243 108.858 199.179C108.858 199.181 108.603 199.401 108.443 199.381Z" fill="#371A45"/>
</g>
<path d="M140.741 156.566C137.993 164.074 124.658 167.577 109.671 166.622C106.441 166.415 103.226 166.012 100.044 165.416L99.9014 151.542C99.9014 151.542 112.077 151.837 122.707 149.202C127.716 147.964 132.385 146.074 135.275 143.199C135.275 143.197 144.073 147.469 140.741 156.566Z" fill="white"/>
<g opacity="0.35">
<path opacity="0.35" d="M140.741 156.566C137.993 164.074 124.658 167.577 109.671 166.622C107.618 166.493 105.534 166.275 103.44 165.976C102.713 165.871 101.982 165.76 101.253 165.633C100.849 165.565 100.448 165.492 100.044 165.416L99.981 159.321L99.9014 151.542C99.9014 151.542 112.077 151.837 122.707 149.202C122.453 150.97 121.991 152.702 121.329 154.362C120.199 157.177 122.605 160.161 125.58 159.567C133.08 158.067 138.674 154.982 140.346 150.411C140.519 149.947 140.664 149.473 140.78 148.992C141.609 150.984 141.865 153.499 140.741 156.566Z" fill="#371A45"/>
</g>
<path d="M114.444 168.266C109.521 168.252 104.609 167.786 99.7709 166.874C99.4336 166.811 99.1285 166.633 98.9079 166.37C98.6873 166.107 98.5648 165.776 98.5613 165.433L98.4176 151.555C98.4154 151.356 98.4534 151.159 98.5292 150.975C98.6049 150.791 98.717 150.624 98.8586 150.484C99.0003 150.344 99.1686 150.235 99.3536 150.161C99.5386 150.088 99.7364 150.053 99.9353 150.058C100.193 150.064 125.765 150.574 134.231 142.147C134.449 141.93 134.729 141.786 135.033 141.735C135.337 141.685 135.649 141.73 135.926 141.865C139.385 143.545 145.135 148.886 142.137 157.077C140.381 161.872 134.786 165.451 126.381 167.153C122.712 167.895 118.674 168.266 114.444 168.266ZM101.512 164.175C119.711 167.293 136.541 163.733 139.351 156.058C141.636 149.823 137.389 146.254 135.48 145.022C126.797 152.425 107.093 153.021 101.397 153.034L101.512 164.175Z" fill="#371A45"/>
<path d="M39.0734 206.369C38.8765 206.369 38.6832 206.316 38.5133 206.217C38.3434 206.117 38.2029 205.974 38.1063 205.803C38.0097 205.631 37.9603 205.437 37.9633 205.24C37.9663 205.043 38.0215 204.851 38.1233 204.682C42.7531 197.026 43.6775 188.888 40.8705 180.495C38.7557 174.171 35.1999 170.062 35.1645 170.021C34.9734 169.799 34.8777 169.511 34.8982 169.218C34.9187 168.926 35.0538 168.654 35.274 168.461C35.4942 168.267 35.7818 168.169 36.0742 168.187C36.3666 168.204 36.6402 168.337 36.8355 168.555C36.9911 168.733 40.684 172.984 42.9536 179.707C45.0566 185.941 46.2552 195.534 40.0287 205.833C39.9294 205.997 39.7892 206.133 39.6218 206.227C39.4544 206.321 39.2655 206.37 39.0734 206.369V206.369Z" fill="#371A45"/>
<path d="M20.0418 155.126C20.263 156.705 20.9131 158.245 22.4006 159.225C26.5882 161.987 50.1421 165.242 63.7412 164.606C77.3403 163.969 104.979 160.797 109.028 154.077C113.076 147.356 109.298 140.44 108.162 140.57C107.025 140.701 104.193 143.792 103.263 147.587C102.332 151.382 101.685 154.464 95.8177 153.688C89.9502 152.912 77.9256 150.95 71.5665 155.515C65.2074 160.081 54.4145 159.182 50.5947 156.303C46.7749 153.423 41.2753 152.175 36.4936 154.505C33.0151 156.2 24.6997 156.864 21.5301 154.029C20.3404 152.967 19.6401 152.251 20.0418 155.126Z" fill="#ED1100"/>
<g opacity="0.3">
<path opacity="0.3" d="M22.3984 157.38C26.5845 160.144 50.1414 163.402 63.7398 162.761C77.3382 162.121 104.976 158.952 109.023 152.232C109.53 151.392 109.94 150.498 110.244 149.566C110.298 149.614 110.345 149.668 110.385 149.728C110.038 149.221 109.184 149.114 108.784 149.785L108.752 149.838C104.704 156.558 77.0676 159.731 63.4685 160.368C49.8694 161.005 26.3133 157.749 22.1272 154.987C21.952 154.872 21.7844 154.745 21.6252 154.609C21.4489 154.454 21.2196 154.373 20.9851 154.383C20.7506 154.393 20.5291 154.494 20.3669 154.663C20.7274 155.729 21.3562 156.694 22.3984 157.38Z" fill="#371A45"/>
</g>
<path d="M109.872 123.796C109.959 125.225 109.759 126.657 109.282 128.006C105.722 138.332 86.9383 146.829 63.8252 148.311C42.5873 149.672 24.2176 144.69 17.6137 136.279C16.071 134.317 15.1702 132.169 15.0235 129.875C14.2451 117.731 34.4053 99.6277 60.5974 97.9493C86.7895 96.2709 109.093 111.652 109.872 123.796Z" fill="#FF900B"/>
<g opacity="0.3">
<path opacity="0.3" d="M81.895 109.727C74.1796 108.553 71.7486 111.237 72.869 115.236C73.4027 117.141 77.9551 117.87 81.4284 119.444C85.0875 121.103 88.6028 126.16 91.9265 124.648C98.1588 121.813 93.2592 111.457 81.895 109.727Z" fill="white"/>
</g>
<g opacity="0.3">
<path opacity="0.3" d="M109.879 120.304C109.938 121.669 109.734 123.033 109.279 124.322C105.719 134.648 86.9362 143.144 63.8201 144.625C42.5829 145.986 24.2132 141.004 17.6116 132.595C16.0636 130.63 15.165 128.482 15.0176 126.19C14.8223 123.143 15.9471 119.719 18.1541 116.273C18.1193 116.763 18.1174 117.254 18.1482 117.744C18.2956 120.036 19.1978 122.184 20.7384 124.149C27.343 132.558 45.7128 137.54 66.9506 136.179C86.6597 134.916 103.221 128.553 109.879 120.304Z" fill="#371A45"/>
</g>
<g opacity="0.5">
<path opacity="0.5" d="M109.87 123.797C109.957 125.226 109.757 126.657 109.281 128.007C109.099 128.535 108.881 129.05 108.627 129.547C108.654 129.132 108.654 128.716 108.627 128.301C107.847 116.161 85.5386 100.773 59.3458 102.45C37.5345 103.851 19.91 116.635 15.0759 127.886C16.4079 115.85 35.7986 99.5356 60.5967 97.9464C86.7888 96.2694 109.092 111.655 109.87 123.797Z" fill="white"/>
</g>
<path d="M57.0151 150.012C38.4986 150.012 22.6756 145.129 16.4448 137.194C14.6816 134.951 13.7049 132.52 13.5413 129.971C13.1174 123.359 18.0723 115.449 26.7961 108.809C36.2128 101.642 48.1829 97.2601 60.5002 96.4707C72.8174 95.6812 85.2482 98.4992 95.503 104.406C105.002 109.877 110.927 117.091 111.351 123.702C111.451 125.328 111.223 126.957 110.68 128.493C106.882 139.511 87.6527 148.27 63.9175 149.791C61.5852 149.939 59.2788 150.012 57.0151 150.012ZM64.6516 99.2982C63.346 99.2982 62.0253 99.3405 60.6896 99.425C48.9481 100.178 37.5485 104.346 28.591 111.164C20.7776 117.11 16.1448 124.242 16.5023 129.777C16.6268 131.718 17.3927 133.596 18.7792 135.36C25.1922 143.532 43.2619 148.139 63.7302 146.829C85.947 145.405 104.515 137.285 107.884 127.52C108.297 126.356 108.473 125.121 108.4 123.888C107.737 113.66 88.9714 99.3012 64.6516 99.3012V99.2982Z" fill="#371A45"/>
<path d="M113.756 138.174L104.663 143.414C103.636 144.01 102.977 145.023 102.905 146.138L102.641 150.208C102.515 152.114 100.731 153.571 98.6763 153.445L81.5302 152.398C77.9036 152.177 74.319 153.297 71.5629 155.515L70.1579 156.64C68.4191 158.027 66.3469 158.934 64.1482 159.27H64.143C61.7364 159.654 59.2702 159.352 57.0276 158.398C54.4477 157.292 51.5331 156.089 49.1169 155.104C45.759 153.748 42.0784 153.4 38.5259 154.104C37.2632 154.354 35.8723 154.626 34.4718 154.899C31.8683 155.408 29.1962 155.931 27.1212 156.331C25.002 156.74 22.9779 155.388 22.7368 153.407L22.3683 150.408C22.2054 149.095 21.2375 147.993 19.8834 147.579L14.0469 145.803C11.3078 144.967 10.6503 141.665 12.883 139.942L17.6131 136.279C24.217 144.69 42.5867 149.672 63.8246 148.311C86.9377 146.829 105.722 138.332 109.281 128.006L114.468 132.862C116.126 134.415 115.776 137.004 113.756 138.174Z" fill="#8CCC1D"/>
<g opacity="0.35">
<path opacity="0.35" d="M11.8148 141.292C12.1922 142.157 12.9471 142.889 14.0424 143.222L19.8811 145.001C21.2338 145.414 22.2053 146.514 22.3682 147.826L22.7367 150.825C22.977 152.809 24.999 154.159 27.1204 153.751C29.1924 153.351 31.866 152.829 34.4709 152.32C35.8715 152.047 37.2609 151.774 38.5251 151.525C42.0784 150.822 45.7597 151.169 49.119 152.524C51.5323 153.507 54.4454 154.716 57.0297 155.818C59.2725 156.773 61.7398 157.074 64.1466 156.687H64.1518C66.3492 156.352 68.4203 155.446 70.1586 154.06L71.5657 152.936C74.3189 150.716 77.905 149.596 81.5301 149.818L98.6748 150.867C100.727 150.993 102.513 149.532 102.639 147.629L102.903 143.559C102.977 142.442 103.632 141.43 104.662 140.832L113.753 135.593C114.412 135.219 114.933 134.643 115.24 133.95C115.399 134.308 115.49 134.693 115.509 135.084C115.467 134.233 115.09 133.433 114.462 132.858L111.372 129.963L111.706 130.276C111.685 130.325 111.665 130.374 111.642 130.423C111.642 130.422 111.642 130.42 111.642 130.419C112.322 131.812 111.823 133.546 110.315 134.421L101.906 139.266C100.957 139.816 100.35 140.756 100.285 141.784L100.041 145.544C99.9264 147.308 98.276 148.656 96.3779 148.535L80.5262 147.571C77.1723 147.361 73.8597 148.399 71.3122 150.445L70.0134 151.489C68.4074 152.773 66.4919 153.612 64.4592 153.922H64.454C62.2292 154.277 59.9493 153.998 57.876 153.116C55.4899 152.096 52.7957 150.978 50.5652 150.071C47.4586 148.817 44.0539 148.495 40.7674 149.145C39.605 149.378 38.3194 149.629 37.0192 149.882C34.6147 150.353 32.1424 150.841 30.2259 151.209C28.2659 151.587 26.3929 150.336 26.1717 148.505L25.8312 145.731C25.6786 144.518 24.7874 143.502 23.5358 143.117L18.1408 141.474C16.2729 140.906 15.4555 139.103 15.9788 137.55L12.8829 139.94C11.851 140.739 11.4448 141.874 11.5694 142.947C11.5035 142.384 11.5882 141.812 11.8148 141.292Z" fill="#371A45"/>
</g>
<path d="M62.0857 160.914C60.1458 160.916 58.2258 160.523 56.4423 159.76C53.3464 158.437 50.1716 157.136 48.5551 156.477C45.4665 155.223 42.0776 154.903 38.8089 155.558C37.5448 155.807 36.1553 156.08 34.7481 156.354L33.8017 156.539C31.5063 156.987 29.2197 157.434 27.3954 157.786C26.6744 157.928 25.9321 157.92 25.2143 157.764C24.4964 157.607 23.8183 157.305 23.2218 156.876C22.6843 156.494 22.2323 156.004 21.8945 155.437C21.5566 154.871 21.3404 154.24 21.2596 153.586L20.891 150.587C20.8003 149.863 20.2328 149.237 19.4433 148.996L13.6112 147.221C11.7898 146.665 10.4556 145.21 10.1298 143.422C9.80548 141.649 10.4984 139.91 11.9726 138.769L17.8644 134.206L18.774 135.364C25.1869 143.535 43.2515 148.143 63.7243 146.832C85.9411 145.408 104.509 137.288 107.878 127.523L108.623 125.362L115.478 131.779C116.596 132.826 117.14 134.279 116.971 135.766C116.795 137.303 115.894 138.648 114.498 139.457L105.405 144.697C104.808 145.043 104.425 145.618 104.385 146.232L104.121 150.302C103.942 153.03 101.46 155.098 98.5871 154.923L81.4409 153.876C78.2072 153.676 74.9455 154.694 72.4931 156.668L71.0866 157.795C69.146 159.344 66.8332 160.357 64.3788 160.733L64.3177 160.742C63.5792 160.856 62.833 160.914 62.0857 160.914ZM42.168 152.264C44.7417 152.263 47.2912 152.761 49.6748 153.732C51.2965 154.396 54.4882 155.703 57.6084 157.035C59.5947 157.883 61.7802 158.15 63.9123 157.808L63.9756 157.798C65.898 157.496 67.7088 156.699 69.2306 155.486L70.6355 154.36C73.6982 151.895 77.5954 150.674 81.6186 150.92L98.7647 151.967C99.9883 152.049 101.088 151.193 101.16 150.112L101.424 146.043C101.528 144.441 102.46 142.979 103.917 142.137L113.011 136.896C113.587 136.563 113.957 136.03 114.025 135.435C114.088 134.881 113.885 134.353 113.451 133.948L109.793 130.523C104.469 140.576 86.1733 148.368 63.9145 149.794C43.4225 151.108 25.0683 146.524 17.4022 138.317L13.7852 141.118C13.1911 141.576 12.9213 142.224 13.0436 142.894C13.1719 143.597 13.707 144.156 14.4737 144.389L20.3094 146.166C22.2164 146.748 23.5992 148.343 23.8336 150.229L24.2022 153.232C24.2361 153.482 24.3216 153.723 24.4535 153.939C24.5853 154.154 24.7605 154.34 24.968 154.485C25.2358 154.675 25.5396 154.808 25.8607 154.876C26.1818 154.944 26.5134 154.945 26.8351 154.88C28.6573 154.528 30.9409 154.082 33.2341 153.634L34.1813 153.449C35.5818 153.175 36.9742 152.903 38.2354 152.654C39.5305 152.396 40.8476 152.266 42.168 152.264V152.264Z" fill="#371A45"/>
<path d="M110.59 153.283C110.217 153.283 109.857 153.142 109.584 152.888C109.311 152.634 109.143 152.286 109.116 151.914L109.092 151.6L109.194 151.305C109.23 151.204 109.254 151.1 109.268 150.994C109.416 149.871 109.503 144.391 108.079 141.352C107.992 141.175 107.942 140.983 107.93 140.786C107.919 140.589 107.946 140.392 108.012 140.207C108.077 140.021 108.179 139.85 108.311 139.704C108.443 139.558 108.603 139.44 108.782 139.356C108.96 139.273 109.153 139.226 109.35 139.218C109.547 139.21 109.743 139.241 109.928 139.31C110.112 139.379 110.281 139.483 110.425 139.618C110.568 139.753 110.684 139.915 110.764 140.095C112.635 144.091 112.338 150.395 112.206 151.388C112.167 151.679 112.1 151.965 112.006 152.242C111.916 152.524 111.744 152.774 111.512 152.958C111.28 153.142 110.997 153.252 110.702 153.274C110.663 153.283 110.627 153.283 110.59 153.283Z" fill="#371A45"/>
<path d="M111.553 165.804C109.319 171.526 91.8292 178.188 66.6234 179.802C41.4176 181.416 24.1727 178.985 20.2697 171.655C18.5345 168.391 17.5136 160.425 20.3685 155.807C20.4408 156.201 20.5393 156.59 20.6633 156.972C21.783 160.299 28.591 163.004 38.9556 164.381L40.853 168.397L48.9348 165.233C54.2612 165.467 60.1441 165.411 66.4045 165.012C68.9009 164.852 71.3287 164.646 73.688 164.396H73.6931L100.273 167.375L106.212 156.134C108.595 154.737 110.119 153.272 110.597 151.809C113.627 157.655 112.562 163.227 111.553 165.804Z" fill="#FF900B"/>
<g opacity="0.3">
<path opacity="0.3" d="M20.2712 168.705C24.1779 176.036 41.4125 178.469 66.6242 176.854C91.8359 175.238 109.317 168.581 111.552 162.856C111.957 161.819 112.37 160.296 112.524 158.469C112.556 158.852 112.574 159.228 112.581 159.596C112.553 158.011 112.309 156.437 111.855 154.918C111.694 155.956 111.424 156.973 111.05 157.954C110.161 160.232 106.853 162.661 101.595 164.858L101.141 165.719C100.883 166.205 100.485 166.603 99.999 166.86C99.5126 167.117 98.96 167.222 98.4132 167.161L95.9623 166.888C88.2881 169.284 78.0731 171.186 66.1222 171.952C40.9127 173.567 23.6737 171.134 19.7692 163.804C19.3704 163.058 19.01 162.061 18.7284 160.916C18.6864 161.254 18.6547 161.595 18.634 161.937C18.8139 164.669 19.464 167.194 20.2712 168.705Z" fill="#371A45"/>
</g>
<path d="M52.5517 181.773C33.5753 181.773 22.2981 178.617 18.9612 172.351C16.9216 168.518 15.9913 160.069 19.1086 155.024L21.1143 151.776L21.8256 155.526C21.8841 155.854 21.9647 156.177 22.0667 156.494C22.7404 158.496 27.6187 161.376 39.1502 162.906L39.9499 163.013L41.0033 165.241C41.1663 165.583 41.4527 165.852 41.8051 165.992C42.1576 166.132 42.5499 166.134 42.9036 165.997L48.6855 163.733L48.9988 163.747C54.4609 163.986 60.2834 163.911 66.3056 163.526C68.7706 163.368 71.2001 163.162 73.5294 162.915L73.7122 162.901L73.8596 162.916L98.0762 165.63C98.4773 165.676 98.8828 165.6 99.2396 165.411C99.5964 165.222 99.8878 164.93 100.075 164.572L105.1 155.064L105.464 154.85C108.237 153.228 108.99 151.954 109.191 151.341L110.292 147.995L111.913 151.121C114.849 156.78 114.369 162.694 112.939 166.344C110.158 173.461 90.7227 179.743 66.7221 181.281C61.6001 181.609 56.8767 181.773 52.5517 181.773ZM20.4826 159.449C19.5148 163.457 20.2902 168.537 21.578 170.959C23.2498 174.098 29.6 178.807 52.5849 178.807C56.6825 178.807 61.305 178.659 66.5282 178.323C93.498 176.595 108.515 169.51 110.173 165.265C110.531 164.353 112.001 160.05 110.295 154.9C109.528 155.683 108.537 156.444 107.323 157.185L102.688 165.957C102.225 166.843 101.504 167.567 100.62 168.035C99.7364 168.502 98.7317 168.691 97.7386 168.576L73.6813 165.879C71.3615 166.123 68.9445 166.327 66.4929 166.484C60.4817 166.869 54.6592 166.949 49.1816 166.721L43.9805 168.758C42.9273 169.168 41.7583 169.163 40.7083 168.746C39.6582 168.329 38.8048 167.53 38.3194 166.51L37.9509 165.736C32.3023 164.931 23.8571 163.146 20.4826 159.449Z" fill="#371A45"/>
<path d="M63.2931 159.376C63.3188 159.374 63.3444 159.381 63.3651 159.397C63.3858 159.412 63.4003 159.434 63.4061 159.46C63.4119 159.485 63.4085 159.511 63.3966 159.534C63.3846 159.557 63.3649 159.575 63.341 159.584L48.9333 165.229L43.11 167.508C42.4962 167.748 41.8142 167.746 41.2017 167.503C40.5892 167.259 40.0918 166.793 39.81 166.197L38.9505 164.377L34.4636 154.899C35.8641 154.626 37.2573 154.354 38.5178 154.104C42.071 153.4 45.7525 153.748 49.1109 155.105C51.5272 156.09 54.4388 157.296 57.0217 158.398C58.9983 159.241 61.1539 159.577 63.2931 159.376V159.376Z" fill="#FFB600"/>
<g opacity="0.35">
<path opacity="0.35" d="M40.0001 158.158C43.5533 157.454 47.2348 157.802 50.5932 159.159C52.6454 159.995 55.0521 160.99 57.3135 161.947L63.3432 159.584C63.3671 159.575 63.3868 159.557 63.3987 159.534C63.4107 159.511 63.414 159.485 63.4083 159.46C63.4025 159.434 63.3879 159.412 63.3672 159.397C63.3465 159.381 63.321 159.374 63.2953 159.376C61.158 159.576 59.0046 159.24 57.0297 158.398C54.4498 157.293 51.5353 156.09 49.119 155.105C45.7605 153.748 42.0791 153.4 38.5258 154.104C37.2632 154.354 35.8722 154.626 34.4717 154.899L36.3528 158.874C37.6125 158.628 38.8575 158.384 40.0001 158.158Z" fill="#371A45"/>
</g>
<g opacity="0.5">
<path opacity="0.5" d="M63.2931 159.376C61.3144 159.558 59.3202 159.282 57.4654 158.569L48.9333 161.912L43.11 164.191C42.4962 164.431 41.8142 164.429 41.2017 164.186C40.5892 163.942 40.0918 163.476 39.81 162.88L38.9505 161.06L35.901 154.618L34.4636 154.899L38.9505 164.377L39.81 166.197C40.0918 166.793 40.5892 167.259 41.2017 167.503C41.8142 167.746 42.4962 167.748 43.11 167.508L48.9333 165.229L63.341 159.584C63.3649 159.575 63.3846 159.557 63.3966 159.534C63.4085 159.511 63.4119 159.485 63.4061 159.46C63.4003 159.434 63.3858 159.412 63.3651 159.397C63.3444 159.381 63.3188 159.374 63.2931 159.376V159.376Z" fill="white"/>
</g>
<path d="M106.206 156.129L101.238 165.533C100.952 166.074 100.51 166.517 99.9682 166.804C99.4268 167.09 98.8117 167.207 98.2031 167.138L73.6865 164.391C88.3294 162.853 100.103 159.71 106.206 156.129Z" fill="#FFB600"/>
<path d="M42.6089 168.938C41.6716 168.939 40.7535 168.673 39.961 168.173C39.1685 167.673 38.5342 166.958 38.1316 166.111L32.3083 153.813L34.1806 153.448C35.5812 153.175 36.9728 152.903 38.2348 152.654C42.0716 151.887 46.0492 152.263 49.6741 153.736C51.2958 154.399 54.4875 155.706 57.6078 157.039C59.3567 157.783 61.2635 158.08 63.1561 157.904C63.5378 157.868 63.9195 157.972 64.2308 158.196C64.5421 158.42 64.762 158.749 64.8501 159.122C64.9381 159.495 64.8884 159.887 64.7099 160.227C64.5315 160.566 64.2365 160.83 63.8792 160.969L44.3956 168.6C43.8264 168.823 43.2204 168.938 42.6089 168.938V168.938ZM36.622 155.992L40.811 164.841C41.026 165.293 41.4039 165.646 41.8687 165.831C42.3336 166.016 42.851 166.018 43.3172 165.837L57.663 160.217C57.2498 160.084 56.8431 159.932 56.4431 159.76C53.3472 158.437 50.1724 157.136 48.5559 156.477C45.4673 155.223 42.0784 154.903 38.8097 155.558C38.1132 155.695 37.3775 155.84 36.622 155.988V155.992Z" fill="#371A45"/>
<path d="M98.7927 168.669C98.6366 168.67 98.4805 168.661 98.3254 168.644L59.9531 164.343L73.5323 162.917C87.3968 161.461 99.3315 158.445 105.456 154.851L109.953 152.212L102.414 166.482C102.068 167.143 101.548 167.696 100.909 168.082C100.271 168.468 99.5387 168.671 98.7927 168.669ZM85.4663 164.221L98.6556 165.695C98.8836 165.721 99.1143 165.678 99.3172 165.571C99.5201 165.463 99.6857 165.297 99.7922 165.094L102.77 159.457C98.245 161.346 92.3208 162.974 85.4663 164.221Z" fill="#371A45"/>
<g opacity="0.35">
<path opacity="0.35" d="M35.8703 120.229C37.1419 120.147 38.1519 119.756 38.1261 119.355C38.1004 118.953 37.0487 118.694 35.7771 118.775C34.5054 118.857 33.4955 119.248 33.5212 119.65C33.547 120.051 34.5987 120.311 35.8703 120.229Z" fill="#371A45"/>
</g>
<g opacity="0.35">
<path opacity="0.35" d="M43.7913 112.927C43.8171 113.329 42.8072 113.72 41.5357 113.801C40.2642 113.882 39.2123 113.623 39.1865 113.222C39.1607 112.821 40.1706 112.429 41.4421 112.348C42.7136 112.267 43.7655 112.526 43.7913 112.927Z" fill="#371A45"/>
</g>
<g opacity="0.35">
<path opacity="0.35" d="M49.8864 122.344C51.158 122.263 52.168 121.871 52.1423 121.47C52.1165 121.069 51.0648 120.809 49.7932 120.891C48.5216 120.972 47.5116 121.364 47.5373 121.765C47.5631 122.167 48.6148 122.426 49.8864 122.344Z" fill="#371A45"/>
</g>
<g opacity="0.35">
<path opacity="0.35" d="M58.9909 107.457C60.2625 107.375 61.2725 106.984 61.2467 106.582C61.221 106.181 60.1693 105.922 58.8977 106.003C57.6261 106.085 56.6161 106.476 56.6418 106.878C56.6676 107.279 57.7193 107.538 58.9909 107.457Z" fill="#371A45"/>
</g>
<g opacity="0.35">
<path opacity="0.35" d="M58.6492 113.985C58.675 114.387 57.6652 114.779 56.3936 114.86C55.1221 114.941 54.0702 114.682 54.0444 114.281C54.0186 113.88 55.0285 113.488 56.3 113.407C57.5715 113.326 58.6241 113.584 58.6492 113.985Z" fill="#371A45"/>
</g>
<g opacity="0.35">
<path opacity="0.35" d="M75.4436 121.443C75.4687 121.845 74.4589 122.236 73.1873 122.317C71.9158 122.398 70.8647 122.139 70.8389 121.738C70.8131 121.336 71.8229 120.945 73.0944 120.863C74.366 120.782 75.4178 121.042 75.4436 121.443Z" fill="#371A45"/>
</g>
<g opacity="0.35">
<path opacity="0.35" d="M73.6126 113.424C73.6377 113.825 72.6278 114.217 71.3563 114.298C70.0847 114.379 69.0336 114.12 69.0078 113.719C68.982 113.318 69.9919 112.926 71.2634 112.845C72.5349 112.764 73.5868 113.023 73.6126 113.424Z" fill="#371A45"/>
</g>
<g opacity="0.35">
<path opacity="0.35" d="M79.0887 106.176C79.1145 106.577 78.1039 106.968 76.8324 107.05C75.5608 107.132 74.5097 106.871 74.4839 106.47C74.4581 106.069 75.4679 105.678 76.7395 105.596C78.011 105.514 79.0629 105.774 79.0887 106.176Z" fill="#371A45"/>
</g>
<g opacity="0.35">
<path opacity="0.35" d="M85.9699 113.686C87.2415 113.604 88.2515 113.213 88.2257 112.812C88.2 112.41 87.1483 112.151 85.8767 112.232C84.605 112.314 83.5951 112.706 83.6208 113.107C83.6466 113.508 84.6983 113.768 85.9699 113.686Z" fill="#371A45"/>
</g>
<g opacity="0.35">
<path opacity="0.35" d="M93.6866 121.594C94.9608 121.517 95.9742 121.129 95.95 120.727C95.9259 120.325 94.8734 120.061 93.5992 120.137C92.325 120.214 91.3116 120.602 91.3357 121.004C91.3598 121.406 92.4123 121.67 93.6866 121.594Z" fill="#371A45"/>
</g>
<path d="M20.8101 116.41C20.8101 116.41 17.3338 122.431 24.7168 127.362C35.052 134.263 34.864 153.758 25.1392 154.398C19.0712 154.797 12.3221 153.751 9.04639 144.554C6.25123 136.703 8.8201 121.615 20.8101 116.41Z" fill="white"/>
<g opacity="0.35">
<path opacity="0.35" d="M25.1406 154.398C19.0733 154.798 12.3243 153.753 9.04704 144.555C8.19566 142.163 7.84333 139.097 8.10205 135.843C8.23533 136.419 8.4007 136.987 8.5974 137.545C11.8746 146.743 18.6222 147.791 24.6909 147.388C28.9168 147.11 31.3405 143.276 31.8852 138.458C33.6388 146.009 31.3021 153.992 25.1406 154.398Z" fill="#371A45"/>
</g>
<path d="M23.1075 155.951C17.6256 155.951 10.9451 154.306 7.65162 145.051C4.49085 136.176 7.74302 120.469 20.2195 115.05L24.3393 113.261L22.0969 117.145C21.8109 117.661 19.5708 122.142 25.5408 126.129C32.8132 130.984 35.2103 141.166 33.3262 148.205C32.0908 152.823 29.1423 155.619 25.2378 155.876C24.5567 155.922 23.8424 155.951 23.1075 155.951ZM18.5448 119.342C10.1534 125.044 7.99364 137.18 10.4438 144.057C13.4564 152.515 19.5148 153.282 25.0432 152.919C28.5445 152.689 29.9421 149.387 30.4632 147.439C32.0422 141.542 29.9797 132.657 23.8948 128.594C19.2694 125.506 18.3892 121.943 18.5448 119.342V119.342Z" fill="#371A45"/>
<path d="M114.265 112.917C112.556 121.173 108.434 132.811 83.8123 134.81C59.1903 136.809 63.9101 158.952 73.9902 162.231C82.4855 164.992 114.866 166.199 120.714 143.811" fill="white"/>
<g opacity="0.35">
<path opacity="0.35" d="M120.714 143.814C114.865 166.201 82.4845 164.994 73.9914 162.234C68.463 160.436 64.5467 152.968 66.2001 146.261C66.5553 151.466 68.62 154.184 73.1526 156.038C82.1528 159.724 106.476 157.613 116.761 143.008C117.871 141.433 120.32 141.927 120.714 143.814Z" fill="#371A45"/>
</g>
<path d="M114.749 113.018C114.916 116.003 114.249 119.032 112.858 121.79C112.173 123.18 111.321 124.48 110.32 125.663C109.316 126.837 108.188 127.9 106.956 128.832C104.508 130.69 101.806 132.118 99.0065 133.181C96.201 134.232 93.3137 134.967 90.4095 135.478C89.6819 135.591 88.9559 135.715 88.2276 135.819C87.4986 135.909 86.7696 136.009 86.0405 136.09L83.8587 136.299L81.7947 136.526C79.0674 136.91 76.4138 137.647 74.066 138.874L73.6238 139.099L73.2073 139.361C72.9323 139.539 72.6449 139.701 72.3795 139.889L71.6048 140.479C71.4734 140.573 71.3501 140.678 71.2362 140.792L70.8824 141.12C69.9493 141.993 69.1672 143.014 68.5679 144.142C67.4025 146.396 67.0553 149.049 67.4895 151.602C67.9236 154.155 69.0861 156.623 70.8419 158.462C71.7176 159.378 72.7429 160.125 73.8515 160.59C74.4438 160.833 75.0556 161.024 75.6803 161.162L76.1712 161.281L76.6747 161.382C77.0101 161.451 77.347 161.516 77.6897 161.569C79.0519 161.8 80.4421 161.959 81.8382 162.059C83.2343 162.159 84.6393 162.214 86.0398 162.221C88.8465 162.227 91.6502 162.037 94.4304 161.652C97.1998 161.249 99.933 160.636 102.561 159.755C105.189 158.874 107.721 157.734 109.985 156.217L110.822 155.634L111.24 155.343L111.636 155.024C112.162 154.597 112.701 154.185 113.173 153.703L113.902 153.001L114.557 152.234C115.013 151.738 115.377 151.174 115.773 150.636L116.068 150.232L116.335 149.809C116.511 149.526 116.696 149.248 116.887 148.973C117.255 148.415 117.567 147.822 117.945 147.257C118.283 146.671 118.615 146.077 119.02 145.496C119.375 144.894 119.742 144.285 120.233 143.686L120.264 143.648C120.329 143.568 120.418 143.509 120.517 143.479C120.617 143.449 120.723 143.449 120.823 143.48C120.922 143.511 121.01 143.571 121.075 143.652C121.14 143.733 121.179 143.832 121.188 143.936C121.253 144.711 121.206 145.48 121.127 146.25C120.987 147.004 120.796 147.748 120.554 148.476C120.412 148.831 120.259 149.184 120.099 149.534C119.939 149.885 119.804 150.247 119.591 150.57C119.397 150.903 119.198 151.233 118.991 151.559L118.682 152.047L118.326 152.503C117.848 153.108 117.375 153.716 116.827 154.256L116.037 155.091L115.198 155.871C114.092 156.929 112.869 157.84 111.616 158.691C109.091 160.374 106.325 161.606 103.504 162.562C100.683 163.517 97.7711 164.157 94.8476 164.583C91.9263 164.988 88.9802 165.188 86.031 165.181C84.5567 165.174 83.0825 165.128 81.6082 165.011C80.134 164.894 78.6598 164.737 77.1855 164.488C76.817 164.432 76.4484 164.36 76.0798 164.283L75.5255 164.173L74.9683 164.038C74.1876 163.862 73.4232 163.621 72.6832 163.316C71.1353 162.664 69.7988 161.667 68.688 160.507C66.4708 158.17 65.0857 155.205 64.555 152.091C64.0243 148.976 64.437 145.64 65.9275 142.77C66.6705 141.338 67.6811 140.062 68.8318 138.968L69.2696 138.563C69.4112 138.425 69.5625 138.296 69.7222 138.179L70.6635 137.462C70.9849 137.235 71.3232 137.039 71.6534 136.828L72.151 136.518L72.667 136.252C75.4253 134.81 78.4025 134.008 81.365 133.589L83.594 133.343L85.7052 133.139C86.4054 133.066 87.102 132.965 87.8008 132.88C88.4966 132.78 89.188 132.659 89.8817 132.554C92.6437 132.07 95.354 131.375 97.9391 130.407C100.524 129.439 102.964 128.15 105.035 126.433C107.105 124.716 108.784 122.642 110.13 120.333C110.803 119.175 111.372 117.949 111.958 116.695L112.827 114.778C113.122 114.131 113.417 113.47 113.766 112.816L113.773 112.802C113.826 112.705 113.91 112.628 114.011 112.582C114.112 112.536 114.225 112.524 114.333 112.548C114.441 112.573 114.538 112.631 114.61 112.716C114.682 112.8 114.725 112.905 114.731 113.016L114.749 113.018Z" fill="#371A45"/>
<path d="M121.045 173.819C121.045 173.819 113.86 162.828 103.534 166.137C89.5788 170.603 91.2499 187.601 91.2499 187.601L93.2025 207.081C93.2025 207.081 109.663 212.929 120.71 210.286C133.942 207.12 145.993 197.805 142.513 167.902" fill="white"/>
<path d="M114.154 212.453C104.048 212.453 93.2627 208.671 92.704 208.472L91.8194 208.158L89.7725 187.743C89.7371 187.374 88.9476 178.737 93.5436 171.835C93.6497 171.669 93.7878 171.526 93.9499 171.414C94.112 171.302 94.2947 171.224 94.4875 171.183C94.6803 171.143 94.8792 171.141 95.0726 171.178C95.2661 171.215 95.4502 171.291 95.6141 171.4C95.7781 171.509 95.9186 171.65 96.0276 171.814C96.1365 171.978 96.2116 172.162 96.2485 172.356C96.2855 172.549 96.2834 172.748 96.2426 172.941C96.2018 173.134 96.1229 173.316 96.0107 173.478C92.0126 179.482 92.715 187.373 92.7224 187.452L94.5792 205.973C98.0894 207.106 111.294 211.009 120.362 208.84C130.977 206.3 144.675 199.31 141.038 168.067C140.993 167.677 141.104 167.284 141.348 166.976C141.592 166.668 141.949 166.469 142.339 166.424C142.729 166.378 143.122 166.49 143.43 166.734C143.738 166.978 143.937 167.334 143.982 167.724C146.918 192.934 139.417 207.329 121.051 211.722C118.888 212.242 116.539 212.453 114.154 212.453Z" fill="#371A45"/>
<path d="M120.868 173.935C119.217 172.07 117.311 170.427 115.253 169.167C114.242 168.541 113.168 168.024 112.048 167.624C110.966 167.245 109.838 167.01 108.694 166.927C107.578 166.862 106.458 166.96 105.37 167.216C104.823 167.342 104.286 167.509 103.763 167.714C103.222 167.909 102.692 168.132 102.174 168.381C100.101 169.359 98.3077 170.752 96.7612 172.451L96.7516 172.46C96.4976 172.739 96.1468 172.911 95.7707 172.941C95.3946 172.97 95.0213 172.856 94.7266 172.62C94.432 172.384 94.2382 172.045 94.1845 171.672C94.1309 171.298 94.2214 170.918 94.4378 170.609C96.0196 168.35 98.3128 166.56 100.835 165.458C101.463 165.181 102.106 164.941 102.761 164.738C103.43 164.529 104.112 164.368 104.804 164.258C105.5 164.143 106.205 164.092 106.911 164.104C107.613 164.108 108.314 164.164 109.008 164.273C110.37 164.504 111.691 164.932 112.93 165.544C114.129 166.14 115.255 166.875 116.283 167.733C116.79 168.15 117.274 168.593 117.734 169.06C118.195 169.519 118.633 170.002 119.044 170.505C119.874 171.496 120.603 172.566 121.222 173.699C121.246 173.745 121.253 173.798 121.24 173.849C121.228 173.899 121.198 173.943 121.155 173.972C121.113 174.002 121.061 174.015 121.01 174.009C120.958 174.004 120.911 173.979 120.876 173.941L120.868 173.935Z" fill="#371A45"/>
<path d="M111.072 206.87C111.072 206.87 96.0189 214.587 91.151 213.955C86.283 213.323 88.9684 162.472 88.9684 162.472C88.9684 162.472 99.5954 159.161 103.955 170.368C105.765 175.02 103.948 180.734 104.928 185.543" fill="white"/>
<g opacity="0.35">
<path opacity="0.35" d="M120.708 210.283C115.723 211.477 109.639 210.942 104.458 209.989C98.1611 208.839 93.204 207.077 93.204 207.077L93.0234 205.284C96.1982 204.703 97.0975 191.849 101.064 193.686C102.368 194.289 104.801 202.016 108.683 199.782C110.899 198.503 114.298 192.154 117.034 192.528C122.23 193.24 120.932 200.937 127.294 198.887C138.619 195.239 142.223 188.746 142.391 166.911C142.433 167.243 142.475 167.571 142.512 167.895C145.992 197.803 133.942 207.121 120.708 210.283Z" fill="#371A45"/>
</g>
<path d="M111.185 207.089C108.608 208.801 105.919 210.308 103.15 211.685C101.764 212.378 100.348 213.017 98.9006 213.602C97.4307 214.215 95.9177 214.72 94.3739 215.112C93.5719 215.303 92.7523 215.469 91.8065 215.49C91.5576 215.497 91.3085 215.489 91.0606 215.465L90.9633 215.456C90.9006 215.448 90.8158 215.433 90.7495 215.417C90.6097 215.387 90.4732 215.344 90.3419 215.287C90.2225 215.234 90.107 215.174 89.9962 215.105C89.9025 215.041 89.8045 214.972 89.722 214.903C89.4566 214.677 89.2277 214.411 89.0431 214.116C88.9006 213.891 88.774 213.657 88.6642 213.415C88.2647 212.531 88.0679 211.724 87.8851 210.918C87.7023 210.112 87.5777 209.329 87.4627 208.545C87.0381 205.41 86.8877 202.322 86.8059 199.234C86.7241 196.146 86.7211 193.072 86.7322 189.999L86.828 180.785C86.9445 174.647 87.0669 168.523 87.3492 162.38L87.4008 161.247L88.4865 160.913C88.6207 160.872 88.6937 160.853 88.7902 160.827L89.0578 160.759C89.2332 160.718 89.4079 160.679 89.5812 160.645C89.9283 160.571 90.2741 160.523 90.622 160.479C91.3164 160.393 92.0156 160.35 92.7154 160.352C94.1159 160.361 95.5393 160.542 96.9081 160.983C98.291 161.411 99.5883 162.078 100.741 162.954C101.893 163.826 102.854 164.91 103.639 166.07C104.401 167.21 105.02 168.439 105.482 169.731C105.924 170.915 106.345 172.224 106.553 173.564C106.779 174.918 106.752 176.276 106.69 177.518C106.629 178.759 106.612 179.998 106.612 181.277C106.612 181.335 106.592 181.392 106.556 181.437C106.519 181.482 106.468 181.513 106.411 181.525C106.354 181.536 106.294 181.528 106.243 181.501C106.191 181.474 106.151 181.429 106.128 181.376C105.621 180.186 105.284 178.912 105.033 177.65C104.783 176.387 104.595 175.213 104.207 174.117C103.844 173.004 103.383 171.942 102.836 170.81C102.39 169.748 101.829 168.739 101.162 167.8C99.8551 165.982 98.0551 164.673 95.9713 164.067C95.4474 163.911 94.9121 163.798 94.3702 163.728C93.8212 163.649 93.2671 163.61 92.7125 163.61C92.1523 163.611 91.5927 163.646 91.037 163.717C90.7591 163.751 90.4827 163.797 90.2114 163.848C90.0758 163.873 89.9423 163.902 89.8111 163.93L89.6202 163.977L89.4684 164.017L90.6058 162.55C90.28 168.633 89.9785 174.744 89.8428 180.844L89.7507 185.42C89.7323 186.945 89.7382 188.469 89.7448 189.99C89.7566 193.037 89.8185 196.082 89.9659 199.113C90.1134 202.144 90.2858 205.172 90.6581 208.106C90.7495 208.837 90.8556 209.562 90.9942 210.258C91.1328 210.954 91.3045 211.637 91.5102 212.156C91.5524 212.265 91.6017 212.371 91.6576 212.473C91.7004 212.556 91.7409 212.593 91.7063 212.568C91.6927 212.556 91.6773 212.546 91.6606 212.538C91.6321 212.519 91.6011 212.503 91.5684 212.491C91.5243 212.473 91.4787 212.459 91.4321 212.449C91.4079 212.443 91.3832 212.44 91.3584 212.439L91.4041 212.445C91.5364 212.464 91.6699 212.474 91.8036 212.475C92.3933 212.484 93.0876 212.401 93.782 212.28C95.1825 212.033 96.617 211.607 98.0529 211.186C99.4866 210.744 100.917 210.258 102.352 209.762C105.218 208.758 108.081 207.681 110.969 206.638C111.027 206.615 111.091 206.616 111.148 206.638C111.206 206.66 111.253 206.703 111.281 206.758C111.308 206.814 111.314 206.877 111.298 206.937C111.281 206.996 111.243 207.047 111.191 207.08L111.185 207.089Z" fill="#371A45"/>
<path d="M100.189 186.725C99.2916 176.217 103.693 155.798 84.732 163.921C73.5189 168.725 73.0155 187.251 77.5267 202.899C81.7408 217.517 96.5679 216.113 100.455 207.774C103.573 201.089 101.117 197.595 100.189 186.725Z" fill="#AFAFB2"/>
<g opacity="0.7">
<path opacity="0.7" d="M101.717 204.032C101.387 200.94 100.526 197.329 100.057 191.828C99.159 181.322 103.56 160.904 84.5958 169.025C78.4777 171.645 75.5484 178.348 74.882 186.438C74.6218 176.148 77.3668 167.075 84.7299 163.92C103.692 155.798 99.288 176.217 100.185 186.724C100.93 195.405 102.645 199.381 101.717 204.032Z" fill="white"/>
</g>
<g opacity="0.35">
<path opacity="0.35" d="M100.455 207.773C96.568 216.115 81.7416 217.519 77.5268 202.9C76.6687 199.931 76.0078 196.909 75.5483 193.853C80.0448 207.672 94.426 206.172 98.2472 197.981C99.2489 195.83 100.125 193.986 100.821 192.11C101.839 199.013 102.992 202.336 100.455 207.773Z" fill="#371A45"/>
</g>
<path d="M76.2428 175.656C75.9698 175.654 75.7071 175.552 75.5051 175.368C75.3031 175.185 75.1761 174.933 75.1487 174.661C75.1212 174.39 75.1952 174.118 75.3564 173.897C75.5175 173.677 75.7545 173.524 76.0217 173.468L99.3058 168.621C99.4485 168.59 99.5959 168.588 99.7396 168.614C99.8832 168.641 100.02 168.695 100.143 168.774C100.265 168.854 100.371 168.957 100.453 169.078C100.536 169.198 100.593 169.334 100.623 169.477C100.653 169.62 100.654 169.767 100.626 169.91C100.599 170.054 100.543 170.19 100.463 170.312C100.382 170.434 100.278 170.539 100.157 170.62C100.036 170.701 99.8994 170.758 99.7562 170.786L76.4728 175.633C76.3971 175.648 76.32 175.656 76.2428 175.656V175.656Z" fill="#371A45"/>
<path d="M74.8707 185.585C74.5934 185.586 74.326 185.482 74.1217 185.294C73.9174 185.107 73.791 184.849 73.7676 184.573C73.7442 184.297 73.8256 184.022 73.9955 183.802C74.1654 183.583 74.4115 183.436 74.685 183.39L99.862 179.076C100.151 179.026 100.448 179.094 100.687 179.263C100.927 179.432 101.089 179.69 101.139 179.979C101.188 180.268 101.121 180.565 100.952 180.804C100.782 181.044 100.525 181.206 100.236 181.256L75.0587 185.569C74.9966 185.58 74.9337 185.585 74.8707 185.585V185.585Z" fill="#371A45"/>
<path d="M75.6706 195.757C75.3925 195.756 75.1249 195.65 74.9212 195.461C74.7175 195.272 74.5927 195.013 74.5716 194.735C74.5504 194.458 74.6346 194.183 74.8073 193.965C74.98 193.747 75.2285 193.602 75.5033 193.559L100.469 189.703C100.612 189.681 100.759 189.687 100.9 189.722C101.041 189.756 101.174 189.818 101.291 189.904C101.408 189.989 101.507 190.098 101.583 190.222C101.658 190.346 101.708 190.483 101.73 190.627C101.753 190.77 101.746 190.917 101.712 191.058C101.677 191.199 101.615 191.332 101.53 191.449C101.444 191.566 101.336 191.665 101.212 191.741C101.088 191.816 100.95 191.866 100.806 191.889L75.8409 195.744C75.7846 195.752 75.7276 195.757 75.6706 195.757V195.757Z" fill="#371A45"/>
<path d="M78.109 205.756C77.8266 205.757 77.5546 205.649 77.349 205.456C77.1433 205.262 77.0195 204.997 77.0029 204.715C76.9863 204.433 77.0782 204.156 77.2597 203.94C77.4413 203.723 77.6987 203.585 77.9792 203.552L101.847 200.687C102.135 200.658 102.423 200.743 102.649 200.924C102.875 201.105 103.021 201.368 103.056 201.655C103.09 201.942 103.011 202.232 102.834 202.461C102.657 202.691 102.398 202.842 102.111 202.882L78.2424 205.748C78.1981 205.753 78.1535 205.756 78.109 205.756V205.756Z" fill="#371A45"/>
<path d="M90.2222 215.47C89.8708 215.47 89.5175 215.457 89.1622 215.429C83.0441 214.952 78.1607 210.42 76.11 203.307C73.6554 194.792 72.8247 186.212 73.7711 179.148C74.9004 170.726 78.4887 164.992 84.1512 162.563C89.7629 160.16 93.9151 159.939 96.8474 161.886C101.625 165.055 101.573 173.079 101.527 180.154C101.513 182.506 101.499 184.728 101.658 186.597C101.94 189.904 102.363 192.489 102.734 194.77C103.579 199.946 104.135 203.366 101.792 208.394C99.7804 212.723 95.2139 215.47 90.2222 215.47ZM92.1254 163.533C90.3017 163.533 88.0248 164.115 85.3129 165.276C74.8569 169.756 74.6815 187.707 78.9435 202.491C80.6647 208.461 84.4719 212.106 89.3914 212.49C93.5045 212.809 97.5049 210.615 99.1214 207.151C101.081 202.949 100.635 200.211 99.8261 195.248C99.445 192.915 99.0153 190.271 98.7204 186.85C98.5494 184.848 98.5634 182.56 98.5789 180.139C98.6194 173.809 98.6659 166.636 95.2161 164.345C94.3994 163.804 93.3674 163.533 92.1254 163.533Z" fill="#371A45"/>
<path d="M110.634 211.927C110.43 211.927 110.23 211.87 110.057 211.764C109.883 211.657 109.742 211.504 109.65 211.323C109.557 211.141 109.517 210.937 109.533 210.734C109.549 210.531 109.621 210.336 109.741 210.171C117.271 199.827 117.295 190.145 115.99 183.843C114.176 175.087 108.983 168.564 105.875 166.729C105.747 166.657 105.635 166.56 105.546 166.443C105.456 166.327 105.39 166.194 105.353 166.052C105.315 165.911 105.306 165.763 105.326 165.617C105.346 165.472 105.394 165.332 105.469 165.206C105.544 165.079 105.643 164.969 105.76 164.881C105.878 164.794 106.012 164.73 106.154 164.695C106.297 164.659 106.445 164.653 106.59 164.675C106.735 164.697 106.874 164.748 106.999 164.825C111.037 167.208 116.319 174.526 118.155 183.395C119.551 190.133 119.534 200.475 111.529 211.472C111.427 211.613 111.292 211.728 111.136 211.807C110.98 211.886 110.808 211.927 110.634 211.927Z" fill="#371A45"/>
<path d="M108.01 160.195C107.92 160.195 107.83 160.184 107.743 160.161C107.458 160.091 107.214 159.91 107.063 159.659C106.912 159.407 106.867 159.107 106.937 158.822C110.677 143.776 98.1293 132.65 98.0025 132.539C97.7821 132.347 97.6469 132.075 97.6267 131.783C97.6064 131.491 97.7028 131.203 97.8945 130.982C98.0863 130.761 98.3579 130.625 98.6498 130.604C98.9417 130.583 99.23 130.678 99.4517 130.869C100.013 131.356 113.156 142.973 109.083 159.356C109.023 159.595 108.885 159.808 108.691 159.96C108.497 160.112 108.257 160.195 108.01 160.195V160.195Z" fill="#371A45"/>
</svg>
